<svg xmlns="http://www.w3.org/2000/svg" width="8000" height="8000" fill-rule="evenodd" viewBox="0 0 6000 6000"><path d="M250.8 94.3c-2.7 1-2.8 1.4-2.7 8.1 0 6.5 1.3 20.7 2.4 28.1 4.1 26.5 9.9 53.7 12.4 58.5.5.9 1.2 3.1 1.6 5 .4 1.9 1.1 3.9 1.5 4.5.4.5 1.1 2.6 1.5 4.5.4 1.9 1.1 4.1 1.5 5 .5.8 2.3 5.5 4 10.5 1.8 4.9 3.8 10.3 4.5 12 .7 1.6 2.2 5.5 3.4 8.5 1.2 3 2.6 6.4 3.1 7.5.5 1.1 2.1 4.9 3.6 8.5 5.5 13.6 15.8 35 19.9 41.5 1.4 2.2 3.4 5.6 4.5 7.5 1.1 1.9 2.9 4.8 4 6.5 1.1 1.6 2.7 4.3 3.6 6 .9 1.6 4.1 6.5 7.1 10.8 2.9 4.3 5.3 8.1 5.3 8.4 0 .3 4.8 7.8 10.8 16.5 5.9 8.8 11.2 16.8 11.7 17.7.6.9 2.5 3.5 4.3 5.8 1.7 2.3 3.2 4.4 3.2 4.8 0 .399 1.9 3.2 4.3 6.299 2.4 3.201 10.6 14 18.2 24.201 16 21.399 13.7 18.299 22.2 28.7 3.8 4.6 10 12.1 13.8 16.9 28.6 35.2 52.7 60 96.7 99.6 9 8.1 20.8 18.8 26.3 23.8 5.5 4.899 10.4 9 10.9 9 .4 0 3 1.7 5.7 3.7 2.7 2.1 8.1 6 12 8.8 3.9 2.7 9.8 7 13 9.5 3.2 2.5 8.1 6.1 10.9 8 9.6 6.6 18.7 13.2 36.2 26.1 5.9 4.299 11 7.9 11.3 7.9.4 0 2.6 1.6 4.9 3.5 2.4 1.899 4.6 3.5 5.1 3.5.4 0 2.9 1.799 5.5 4 2.6 2.2 5.1 4 5.5 4 .3 0 3 1.899 6 4.2 5.5 4.4 11.9 9.1 16 11.8 3.6 2.299 12.2 8.399 20.5 14.5 4.1 3 8.6 6.299 10 7.2 1.4 1 4.3 3.1 6.5 4.9 2.2 1.7 4.5 3.299 5 3.5 1.1.4 7 4.7 15.5 11.1 2.7 2.1 5.2 3.8 5.5 3.8.2 0 5.2 3.5 10.9 7.7 10.1 7.6 26.4 19.3 31 22.3 3.9 2.6 22.7 16.399 24.1 17.7.8.7 1.7 1.3 2 1.3.4 0 2.6 1.6 4.9 3.5 2.4 1.899 4.6 3.5 5 3.5.4 0 2.9 1.7 5.6 3.7 2.7 2.1 7.4 5.6 10.5 7.8 3.1 2.2 8 5.799 10.8 8 2.9 2.2 6 4.399 6.9 5 2 1.2 9.7 6.6 19.3 13.6 3.9 2.799 8.1 5.799 9.5 6.7 1.4.9 4.6 3.3 7.1 5.4 2.6 2.1 5 3.8 5.3 3.8.4 0 2.9 1.7 5.5 3.7 6.4 4.9 12.8 9.5 15 10.8 2.3 1.299 9.6 6.799 16.6 12.2 2.9 2.4 5.7 4.3 6 4.3.4 0 2.9 1.7 5.6 3.7 2.6 2.1 7.1 5.4 9.9 7.3 2.8 1.899 10.8 7.7 17.8 12.899 7 5.101 15 10.9 17.7 12.701 5.6 3.799 8.4 5.799 27.4 19.799 7.4 5.5 15.8 11.601 18.7 13.5 7 4.9 15.7 11.101 22.9 16.601 3.3 2.399 7.8 5.7 10 7.2s5.8 4.2 8.1 6c2.3 1.8 4.4 3.3 4.8 3.3.4 0 2.9 1.7 5.5 3.7 11 8.4 26.5 19.8 27.5 20.2.6.2 2.9 1.9 5.2 3.8 2.3 1.8 4.4 3.3 4.9 3.3.4 0 2.9 1.8 5.5 4s5.1 4 5.5 4c.3 0 3.1 1.9 6 4.2 10 7.9 15.3 11.8 16 11.8.4 0 2.9 1.7 5.6 3.7 2.7 2.1 7.4 5.6 10.4 7.8 3.1 2.2 8 5.9 11 8.2 3 2.4 5.7 4.3 6 4.3.4 0 2.8 1.6 5.3 3.5 6.8 5.2 13.2 9.8 15.2 11 2.2 1.4 9.8 7 16.5 12.2 2.9 2.4 5.7 4.3 6 4.3.4 0 2.8 1.6 5.3 3.6 4.4 3.3 12.3 9 17.2 12.4 1.2.8 7.2 5.2 13.3 9.7 11.9 8.7 17.9 13 26.7 19.3 3 2.2 8 5.8 11 8 9.3 7 16.6 12.3 22 16 2.8 1.9 9.6 6.9 15.2 11 11.3 8.5 17 12.5 24.5 17.6 2.8 1.9 5.7 4.1 6.3 4.9.7.8 1.7 1.5 2.2 1.5.5 0 3.4 1.9 6.4 4.2 14 11 16.3 12.8 17 12.8.4 0 2.6 1.6 5 3.5 2.3 1.9 4.5 3.5 4.9 3.5.3 0 3.1 1.9 6 4.2 3 2.4 7.9 6.1 11 8.3 3.1 2.2 7.8 5.7 10.4 7.7 2.7 2.1 5.1 3.8 5.4 3.8.3 0 8.1 5.6 17.4 12.4 9.2 6.9 19.1 14.1 21.8 16.1 2.8 2 12.9 9.4 22.5 16.5 18.9 14 40.6 30 49.8 36.7 3.1 2.3 8.2 6.1 11.2 8.4 3 2.2 10.7 7.9 17 12.4 15.4 11.2 22 16.2 28.4 21.2 2.9 2.4 5.6 4.3 5.9 4.3.3 0 8.4 5.8 17.9 13 9.5 7.1 19.7 14.6 22.6 16.7 2.9 2.1 7.9 5.8 11.2 8.3 12.4 9.4 18.1 13.6 23.5 17.5 3.1 2.2 8.5 6.2 12.1 9 3.5 2.7 8.9 6.8 11.9 9 9.2 6.6 16.6 12.1 23 17 8.2 6.3 16.8 12.7 19.5 14.5 1.2.8 4.1 3 6.4 4.8 2.2 1.7 4.6 3.6 5.1 4 .6.4 3.9 3 7.5 5.7 3.6 2.8 7.2 5.4 8.1 6 .9.5 5.1 3.7 9.4 7 4.2 3.3 9.8 7.5 12.3 9.3 2.6 1.9 6.6 4.9 8.9 6.8 2.3 1.9 4.4 3.4 4.8 3.4.4 0 3.3 2.2 6.5 5 3.2 2.7 6.1 5 6.4 5 .3 0 3.1 1.9 6 4.2 3 2.4 8.5 6.5 12.1 9.3 3.7 2.7 9.1 6.9 12.1 9.2 2.9 2.4 5.6 4.3 5.9 4.3.4 0 3.1 2 5.9 4.5 2.9 2.5 5.6 4.5 6 4.5.4 0 3.6 2.4 7.1 5.2 3.5 2.9 8.9 7.1 12 9.3 3.1 2.2 8 5.8 10.8 8.1 8.7 6.9 18.8 14.4 19.3 14.4.3 0 3.1 2.1 6.4 4.7 5.5 4.5 9.6 7.6 24 18.3 3.3 2.5 8.9 6.7 12.4 9.5 3.6 2.7 9 6.8 12.1 9 3.1 2.2 8.2 6 11.3 8.5 3.1 2.5 9.1 7 13.2 10.1 4.1 3 11.6 8.6 16.5 12.3 5 3.8 13.6 10.3 19.3 14.5 5.7 4.2 13.2 9.8 16.7 12.6 3.5 2.7 8.9 6.8 12 9 3.1 2.2 7.1 5.2 8.8 6.6 5.8 4.7 20.7 15.9 21.2 15.9s6.7 4.7 17.3 13.2c2.9 2.3 6 4.7 7 5.2.9.5 3.8 2.6 6.3 4.8 2.6 2.1 5 3.8 5.4 3.8.4 0 2.8 1.7 5.4 3.9 6.1 5.1 18.1 14.1 18.7 14.1.3 0 3 1.9 5.9 4.2 10.2 8.1 26.1 20.1 30.5 23 1.4 1 7.2 5.3 13 9.7 5.8 4.4 12.9 9.7 15.8 11.8 2.9 2.1 8.2 6 11.7 8.8 3.5 2.7 8.9 6.8 12 9 9 6.5 16.6 12.1 23 17 3.3 2.5 13.7 10.3 23 17.2 9.4 6.9 18.1 13.4 19.5 14.5 1.4 1 4.8 3.7 7.7 5.8 2.9 2.2 5.5 4 5.8 4 .4 0 3 1.9 6 4.2 6.1 5 24.5 18.6 28 20.8 1.3.8 7.2 5.2 13.2 9.7 5.9 4.5 13.2 9.9 16.1 12 2.9 2.1 8 5.8 11.2 8.3 3.3 2.5 8.7 6.5 12 9 3.4 2.5 8.3 6.2 11 8.2 2.7 2.1 5.2 3.8 5.5 3.8.3 0 3.2 2.1 6.5 4.7 6.7 5.4 14.5 11.3 16.9 12.8 3.4 2.1 20.9 15.5 22.1 17 .7.8 1.7 1.5 2.2 1.5.5 0 2.8 1.5 5.1 3.3 2.3 1.8 5.2 4 6.4 4.8 1.1.8 9.4 6.9 18.3 13.6 8.8 6.8 16.4 12.3 16.7 12.3.3 0 2.9 1.9 5.7 4.3 2.8 2.4 7.3 5.9 9.9 7.8 7.9 5.6 10.9 7.8 16.7 12.2 7 5.4 7.4 5.7 14.2 11.1 3.1 2.5 5.9 4.6 6.2 4.6.7 0 17.4 12.6 20.7 15.6 1.4 1.3 2.9 2.4 3.3 2.4.5 0 2.9 1.7 5.5 3.8 2.5 2.1 5.6 4.4 6.8 5.2 1.1.8 6.5 4.9 11.8 9 5.4 4.1 10.8 8.2 12 9 1.3.8 5.8 4.2 10 7.5s9.7 7.5 12.2 9.2c2.5 1.8 6.8 5.1 9.6 7.3 2.9 2.1 8 6.1 11.5 8.7 3.4 2.6 8.7 6.7 11.7 9 3 2.4 5.8 4.3 6.2 4.3.3 0 3.2 2.2 6.4 5 3.2 2.7 6 5 6.3 5 .4 0 3.1 1.9 6.1 4.2 3 2.4 8.6 6.8 12.6 9.8 3.9 3 9.4 7.3 12.3 9.5 2.8 2.2 6.2 4.8 7.6 5.7 1.4.8 5.1 3.8 8.2 6.4 3.1 2.7 8.5 6.9 11.8 9.4 3.4 2.5 8.1 6.1 10.3 8.1 2.3 2 6.2 5.1 8.7 7 11 8.3 23.6 19.6 38.9 34.9 16.7 16.6 23.3 24.2 29.2 33.5 1.7 2.7 3.9 6.1 4.9 7.5 3 4.5 10.8 20.7 11.5 24.1.4 1.9 1.1 3.8 1.5 4.4.8 1 2.2 8.2 3.7 19 .9 7.1.9 28.4 0 37-.4 3.3-1.2 10.9-1.8 17-.6 6-1.4 11.4-1.7 11.9-.3.6-1.1 4.2-1.8 8-1.2 6.6-2.1 10.8-5.9 25.6-.7 3-1.9 7.7-2.5 10.5-.6 2.7-1.5 5.9-1.9 7-.4 1.1-2.5 7.4-4.7 14-2.1 6.6-4.2 12.4-4.6 13-.4.5-.8 1.6-.8 2.5 0 .8-.6 2.7-1.4 4.2-.8 1.5-1.7 4.2-2.1 6-.4 1.8-1.1 3.7-1.5 4.3-.4.5-3.1 6.6-5.9 13.5-5.7 13.8-5.3 13-21.2 46-6.2 12.9-13.7 28-16.7 33.5-7.5 13.7-12.1 23-18.2 36.5-6.7 14.8-12.8 28-14.1 30.2-2.9 5.5-7.8 15.6-16.4 33.8-5.3 11.3-11.2 23.6-13 27.5-1.8 3.8-4.6 9.9-6.3 13.5-1.6 3.6-4.1 9.2-5.7 12.5-4.8 10.7-6.2 13.8-11 24.5-2.5 5.8-5.7 12.7-7 15.5-1.3 2.7-4 8.8-6 13.5-5.2 12.1-5.1 11.8-8.4 19.3-1.7 3.8-3.1 7.1-3.1 7.4 0 .3-.6 1.9-1.4 3.6-2.2 4.8-12.7 30.8-16.1 39.7-.8 1.9-3 7.6-4.9 12.6-1.9 5-5.5 15.3-8.1 23-2.5 7.6-5 14.8-5.5 15.9-.5 1.1-1.8 5.1-3 9-1.2 3.8-2.5 7.7-3 8.5-.4.9-1.1 3.1-1.5 5-.4 1.9-1.1 3.9-1.5 4.5-.4.5-1.1 2.6-1.5 4.5-.4 1.9-1.1 4.1-1.5 5-.5.8-1.8 4.6-3 8.5-1.2 3.8-2.5 7.9-3 9-.8 1.7-3.5 8.5-6 15-.4 1.1-1.3 3.3-2 5-2.4 6-12 35.5-12 37 0 .8-.4 2.3-.9 3.3-.6.9-2.6 7.3-4.5 14.2-2 6.9-4.2 14.7-5 17.5-1.5 4.9-3.3 11.6-6.3 22.5-.8 3-2.1 7.5-2.8 10-.7 2.5-1.7 6.3-2.1 8.5-.3 2.2-1 4.4-1.4 5-.4.5-1.1 3.2-1.5 6-.4 2.7-1 5.4-1.5 6-.4.5-1.1 3.2-1.5 6-.4 2.7-1 5.4-1.3 6-.4.5-1.2 3.5-1.9 6.5-.6 3-1.9 8.6-2.8 12.5-.9 3.8-2.2 9.7-2.9 13-.7 3.3-1.5 6.7-1.9 7.5-.5 1.4-1.4 5.5-4 20-.7 3.6-1.5 6.9-1.8 7.5-.4.5-1 3.9-1.4 7.5-.4 3.5-1.1 7.1-1.6 8-.4.8-1.3 4.6-1.9 8.5-.6 3.8-1.8 10.8-2.6 15.5-2.3 12.9-4.4 25.5-5.8 35.5-.8 4.9-1.5 9-1.6 9-.1 0-.9 4.7-1.7 10.5-.7 5.8-2 15.4-2.9 21.5-2.6 19.2-4.3 32.7-5.4 44-.6 6-1.5 13.2-2 16-.6 2.7-1.7 14.4-2.6 26-.8 11.5-2.2 29.8-3 40.5-.8 10.7-1.9 31.4-2.4 46-.6 14.6-1.5 28.5-2 31s-1.2 20.9-1.5 41c-.3 20.1-1 45.3-1.6 56.1-.9 17.4-.9 20 .5 22.8 2.1 4 5 5.7 10.8 6.5 3.9.6 5.3.3 8.3-1.6 2-1.3 3.8-3.4 4.1-4.8.3-1.4.9-3.4 1.4-4.5.5-1.1 1.2-3.6 1.5-5.5.4-1.9 1.1-4.9 1.5-6.5.5-1.7 1.6-5.5 2.4-8.5 2-7.3 5.4-19.8 6.5-23.5.5-1.7 1.9-6.4 3.1-10.5 1.1-4.1 2.5-8.2 2.9-9 .5-.9 1.2-3.1 1.6-5 .4-1.9 1.1-4 1.5-4.5.4-.6 1.1-2.6 1.5-4.5.4-1.9 1.1-4 1.5-4.5.4-.6 1.1-2.6 1.5-4.5.4-1.9 1.1-4.1 1.5-5 .5-.8 1.6-3.8 2.5-6.5 1-2.8 4.2-11.3 7.2-19 3-7.7 6.6-16.9 8-20.5 2.9-7.7 5.1-13.4 6.8-17.5.7-1.7 2.3-5.7 3.5-9 1.3-3.3 3.3-8.4 4.6-11.2 1.3-2.9 2.6-6.5 3-8 .4-1.6 1-3.3 1.3-3.8.4-.6 1.7-3.7 3-7 1.2-3.3 2.7-6.9 3.1-8 .5-1.1 1.9-4.5 3-7.5 1.2-3 2.6-6.4 3-7.5.5-1.1 1.9-4.5 3-7.5 1.2-3 2.6-6.4 3-7.5.5-1.1 1.9-4.5 3.1-7.5 1.2-3 3.2-7.9 4.5-10.8 1.3-2.9 2.4-5.5 2.4-5.8 0-.4 1.8-4.6 5-11.9.5-1.1 1.9-4.5 3.1-7.5 1.2-3 3.2-7.8 4.4-10.5 1.3-2.8 3.3-7.5 4.5-10.5 1.3-3 3.3-7.8 4.5-10.5 1.3-2.8 3.7-8.4 5.5-12.5 1.7-4.1 4-9.3 4.9-11.5 6.6-14.8 9.6-21.6 11.6-26 1.3-2.8 3.5-7.6 4.9-10.7 5.6-12.4 7.9-17.5 10.6-23.3 1.6-3.3 5.4-11.6 8.5-18.5 3.2-6.9 8.3-17.9 11.5-24.5 3.1-6.6 10.1-21.4 15.6-32.9 11.7-24.8 56.4-114 68.9-137.6 4.8-9.1 11.1-21 14-26.5 2.8-5.5 7.7-14.5 10.7-20 3.1-5.5 7.2-13.2 9.3-17 2.1-3.9 6.3-11.5 9.3-17 3-5.5 7.2-13.4 9.4-17.5s6-10.9 8.3-15c5.9-10.6 9.3-16.7 12.8-23 1.7-3 3.8-6.7 4.9-8.2 1-1.4 1.8-2.9 1.8-3.2 0-.6 30-52.9 41.4-72.2 1.5-2.7 4-6.9 5.4-9.4 3.5-6.2 22.7-38.6 33-55.5 7.5-12.3 11-18.1 14.7-24.3.6-1 2.8-4.6 5-8.2 2.2-3.6 4.5-7.3 5-8.2 2-3.4 10.8-17.4 12.4-19.8 1-1.4 2-3.2 2.4-4 .4-.8 2.4-4.1 4.5-7.2 3-4.8 9.3-14.4 23.2-36.3.8-1.3 3.7-5.9 6.5-10.2 2.7-4.3 8.3-13 12.5-19.3 4.1-6.3 7.7-12 8-12.5 1.2-2.4 34.7-52.8 42.1-63.3 2.4-3.5 5.1-7.4 5.9-8.7.8-1.3 3.8-5.6 6.5-9.5 2.8-3.9 5.5-7.9 6-8.8.6-.9 2.4-3.6 4.1-5.9 1.7-2.3 3.7-6.4 4.4-9 .6-2.6 2.1-7.9 3.2-11.6 2.3-7.7 2-13.5-1.1-22.5-2.1-6.2-4.6-9.8-15.6-22.8-4.4-5.3-11.5-13.7-15.8-18.7-4.2-5.1-11.4-13.6-16-19-4.5-5.3-12.2-14.4-17.2-20.2-4.9-5.7-13.3-15.4-18.5-21.5-16-18.7-47.2-54.2-64-73-6.3-7-14.2-15.8-17.5-19.6-3.3-3.7-9.4-10.5-13.5-15s-11.1-12.1-15.5-17c-18.3-20-44.2-47.9-63-67.7-11-11.5-22-23.3-24.4-26.1-18.2-21.4-194.1-197.1-230.4-230.1-3.6-3.3-15.1-14-25.4-23.7-22.6-21.2-51.1-47.7-61.8-57.3-4.3-3.9-11.5-10.3-15.9-14.4-15.5-14.1-42.8-38.4-59.1-52.6-6.9-6.1-17.8-15.5-24-21-6.3-5.5-16.2-14.1-22.1-19-5.8-5-15-12.8-20.5-17.5-5.4-4.7-13.9-11.9-18.9-16-5-4.1-13.3-11.1-18.5-15.5-5.2-4.4-13.2-11-17.7-14.8-4.6-3.7-12-9.8-16.5-13.5-17.5-14.4-32.5-26.5-47.8-38.7-4.1-3.3-11.1-8.9-15.5-12.5-4.4-3.6-11.1-9-15-12-12-9.4-20.7-16.3-27.2-21.5-3.4-2.8-7.4-5.8-8.9-6.7-1.6-1-10.6-9.3-20.1-18.6-9.5-9.3-19.3-18.6-21.8-20.7-2.5-2.1-14.2-13.1-26.1-24.6-11.9-11.5-23.5-22.4-25.7-24.2-2.2-1.7-11.1-10-19.7-18.2-8.7-8.3-17.8-16.8-20.3-19-2.5-2.2-11.1-10.1-19.1-17.5-8-7.4-15.1-13.9-15.8-14.5-1.1-.9-11.2-10-16.8-15-1.2-1.1-5.3-4.9-9.1-8.5-3.9-3.6-10.1-9.2-13.9-12.5-3.8-3.3-10.3-9.2-14.5-13-4.2-3.9-10.4-9.5-13.9-12.5s-9.9-8.7-14.1-12.5c-4.2-3.9-10.3-9.3-13.4-12-3.2-2.8-9-7.9-13-11.5-3.9-3.6-9.5-8.6-12.3-11.2-2.9-2.5-6.1-5.2-7.2-6-1.1-.8-6.3-5.4-11.6-10.3-5.4-4.9-10.5-9.4-11.5-10-1-.5-6.3-5.1-11.8-10-5.5-5-15.3-13.6-21.8-19.2-21.6-18.6-30.9-26.7-41.9-36.3-6-5.2-11.4-9.7-12.1-10-.6-.3-5.3-4.3-10.4-9-5.1-4.7-9.7-8.7-10.4-8.9-.6-.2-5-3.8-9.7-8-4.8-4.2-13.5-11.7-19.4-16.6-5.8-5-14.4-12.2-19-16-4.6-3.9-9.2-7.7-10.3-8.5-2.1-1.6-14.7-12.6-16.8-14.8-.7-.6-1.6-1.2-1.9-1.2-.4 0-4.4-3.4-9-7.5-4.5-4.1-8.6-7.5-8.9-7.5-.4 0-4.5-3.3-9.2-7.3-6.8-5.8-20.3-17.1-26.6-22.2-.7-.6-4.5-3.7-8.5-7-3.9-3.3-11-9.2-15.8-13-4.8-3.9-12.2-9.9-16.6-13.5-4.3-3.6-11.6-9.5-16.1-13.2-4.6-3.7-11.2-9.1-14.8-12.1-3.6-2.9-8.5-6.8-11-8.7-2.5-1.9-6.1-4.8-8-6.5-2-1.6-5.3-4.4-7.4-6-2.2-1.7-5.8-4.6-8.1-6.5-4-3.302-17.1-13.802-25.6-20.502-2.1-1.7-8.4-6.6-14.1-11.1-5.7-4.4-10.9-8.8-11.7-9.7-.7-1-1.8-1.7-2.3-1.7-.5 0-4-2.601-7.7-5.8-8.5-7.1-18.7-15.2-21.6-17.2-1.2-.8-5.8-4.3-10.1-7.8s-10.3-8.2-13.2-10.5c-2.9-2.3-7.3-5.9-9.9-8-2.5-2.1-5.8-4.6-7.2-5.5-1.4-.9-5.6-4.1-9.2-7.2-7.8-6.4-17.5-14.101-19.8-15.5-.9-.601-4.4-3.3-7.8-6-3.4-2.8-9.3-7.4-13-10.3-3.7-2.9-9.2-7.2-12.2-9.5-2.9-2.3-6.1-4.7-7-5.2-1-.601-4.2-3-7.2-5.601-2.9-2.5-6.4-5.2-7.5-6-1.2-.7-6.7-5-12.4-9.399-5.6-4.4-12.6-9.8-15.5-12-16.5-12.5-20.1-15.3-21.4-16.8-.7-.9-1.8-1.7-2.3-1.7-.5 0-3.4-2-6.2-4.5-2.9-2.5-5.7-4.5-6.1-4.5-.4 0-2.4-1.5-4.5-3.3-2-1.7-8.7-7-14.9-11.7-6.2-4.701-13.9-10.5-17.1-13-3.1-2.5-8.7-6.8-12.4-9.5-3.6-2.8-9.4-7.101-12.9-9.701-3.4-2.6-7.8-6-9.7-7.6-1.9-1.6-4.8-3.7-6.5-4.8-1.6-1-4.6-3.2-6.6-4.899-1.9-1.601-5.5-4.4-8-6.201-2.4-1.7-16.8-12.299-31.9-23.7-38.9-29-38.4-28.7-44.3-33.4-3-2.3-5.7-4.2-6.1-4.2-.4 0-3.2-2-6-4.5-2.9-2.5-5.6-4.5-6-4.5-.4 0-3.1-1.9-6.1-4.3-2.9-2.3-10.4-7.9-16.7-12.5-11-8-14.1-10.3-25.7-18.9-3.1-2.299-6.7-5-8.1-6-1.4-1-9.2-6.7-17.5-12.799-8.2-6.101-18.7-13.701-23.3-17-4.5-3.3-10.7-7.8-13.7-10-2.9-2.201-7.8-5.701-10.7-7.8-2.9-2.1-10.1-7.4-16-11.8-5.9-4.3-11-7.9-11.4-7.9-.3 0-2.5-1.6-4.8-3.5-2.4-1.9-4.7-3.5-5.2-3.5s-3.2-1.9-5.9-4.3c-2.8-2.4-5.7-4.6-6.5-5-.8-.4-4-2.5-7-4.7-3-2.3-8.4-6.1-12-8.6-3.6-2.5-10.5-7.4-15.5-10.9-4.9-3.5-12-8.5-15.6-11-3.7-2.5-7.2-5.2-7.9-6-.7-.8-1.7-1.5-2.2-1.5-.6 0-2.7-1.4-4.8-3-2.1-1.7-4.1-3-4.5-3-.3 0-2.7-1.7-5.3-3.9-2.6-2.1-5.4-4.1-6.2-4.4-.8-.4-4.9-3.2-9-6.2s-8.2-5.8-9-6.2c-.8-.4-3.3-2.1-5.5-3.9-2.2-1.8-7.4-5.5-11.5-8.3-7-4.7-14.9-10.2-30-20.9-3.3-2.3-6.4-4.2-6.9-4.2-.4 0-1.6-.9-2.5-1.9-1.5-1.6-20.2-14.8-26.5-18.6-.9-.6-3.2-2.2-5.1-3.6-1.9-1.4-7.3-5.2-12-8.4s-11.1-7.7-14.3-9.9c-3.2-2.3-6.9-4.8-8.2-5.6-1.3-.8-5.6-3.8-9.5-6.5-3.9-2.8-7.9-5.5-8.8-6-1-.6-5.4-3.6-9.9-6.8-4.4-3.1-8.4-5.7-8.8-5.7-.5 0-2.6-1.5-4.9-3.3-4.1-3.3-10.7-7.9-15.1-10.7-1.3-.8-5.6-3.8-9.5-6.5-3.9-2.8-7.9-5.5-8.8-6-.9-.6-5.2-3.5-9.6-6.5-4.4-3-8.8-6-9.8-6.5-.9-.6-4.9-3.3-8.8-6-3.9-2.8-10.2-7-13.9-9.5-8.2-5.4-20-13.5-26.1-17.9-2.5-1.7-6.3-4.3-8.5-5.7-2.2-1.5-6.7-4.4-10-6.7-11.6-7.8-48.1-32.4-53.5-36-3-2-8.9-6-13-8.9-4.1-2.9-7.9-5.5-8.5-5.8-.5-.3-4.3-2.8-8.4-5.5-4.1-2.8-8.1-5.5-9-6-.9-.6-4.3-2.8-7.6-5.1-3.3-2.2-9.1-6.2-13-8.7-10.4-6.9-16.1-10.8-21-14.5-2.4-1.7-4.6-3.2-5-3.2-1 0-14.2-9-15.5-10.5-.7-.8-1.7-1.5-2.2-1.5-.6 0-2.7-1.201-4.7-2.8-2-1.5-4.4-3.2-5.3-3.7-.9-.601-9.7-6.5-19.7-13.201-9.9-6.7-19.2-12.9-20.8-13.799-1.5-.8-4.6-2.701-6.8-4-4-2.5-17.2-9.201-21-10.601-21.8-8-27.2-9.7-35.5-11-10.7-1.6-27-2-30.2-.6v.003z" style="stroke:none;fill:#004aad"/><path d="M177.2 447.9c-2.3 1.7-4.4 4.2-4.8 5.7-.9 3.5.7 13.8 9.1 58.1.8 4.3 2.3 12.7 3.5 18.8 3.6 19.6 7.2 36.7 9.4 44.5 2.8 10 4.7 17.4 5.7 22 .6 2.5 1.4 5.4 1.9 6.5.8 1.9 1.5 4.5 4.5 16.5.8 3 2.1 8.2 3 11.5.9 3.3 2.1 8 2.6 10.5.6 2.5 1.4 5.4 1.9 6.5.5 1.1 1.3 4 1.9 6.5 1.7 8 3.2 13.5 4 15 .5.9 1.2 3.6 1.6 6 .4 2.4 1.1 5.1 1.6 6 .4.8 1.3 3.5 1.8 6 1.7 7.7 3.2 13.4 4 15 .5.9 1.2 3.6 1.6 6 .4 2.4 1.1 5.1 1.6 6 .4.8 1.3 3.5 1.9 6 .6 2.5 1.8 6.7 2.5 9.5.8 2.7 2.1 7.5 2.9 10.5.8 3 2.2 8 3.1 11 1.8 6.1 3.8 13.2 5.5 20 .6 2.5 1.5 5.4 2 6.5.4 1.1 1.7 5.8 3 10.5 1.2 4.7 2.8 10.3 3.5 12.5.7 2.2 1.7 5.6 2.1 7.5.3 1.9 1 4.1 1.5 5 .4.8 1.3 3.5 1.9 6 .6 2.5 1.7 6.7 2.5 9.5 2.7 9.9 4.4 16.1 5.5 20.5.7 2.5 1.6 5.4 2.1 6.5.5 1.1 1.3 3.8 1.8 6s1.7 6.4 2.5 9.2c.9 2.9 2.3 7.7 3.1 10.5.9 2.9 2.3 7.5 3.1 10.3.8 2.7 1.9 6.8 2.5 9 .5 2.2 1.3 4.9 1.8 6 .5 1.1 1.4 3.9 2 6.2.6 2.4 1.6 6.2 2.2 8.5.6 2.4 1.5 5.2 1.9 6.3.5 1.1 1.8 5.4 3 9.5s2.5 8.4 3 9.5c.4 1.1 1.5 4.2 2.3 7 2.5 8.5 11.8 37.9 12.7 40 .5 1.1 2.1 5.8 3.5 10.5 1.5 4.7 3.1 9.3 3.6 10.2.5 1 .9 2.4.9 3.1 0 2.2 14.2 46.8 16.9 53.2.5 1.1 1.7 4.2 2.6 7 1 2.7 2.3 6.3 3 8 .8 1.6 3 7.3 5 12.5 3.3 8.6 4.8 12.4 7.5 18.5.5 1.1 2.1 4.8 3.5 8.2 1.4 3.5 3.6 8.7 5 11.7s2.5 5.7 2.5 5.9c0 2 29 60.5 37.5 75.7 3.5 6.3 7 12.6 7.7 14 .7 1.4 3.9 6.9 7 12.2 3.2 5.3 5.8 9.9 5.8 10.2 0 .2 2.2 3.7 4.8 7.8 2.7 4 5.6 8.6 6.6 10.3 2.5 4.6 3.9 6.7 6.9 10.6 1.5 2 2.7 4 2.7 4.4 0 .4 1.4 2.4 3 4.5 1.7 2.1 3 4.1 3 4.5 0 .4 1.4 2.4 3 4.5s3 4.1 3 4.5c0 .5 1.6 2.7 3.5 5.1 1.9 2.3 3.5 4.5 3.5 4.9 0 .4 1.8 2.9 4 5.5s4 5.1 4 5.5c0 .4 2 3.2 4.5 6.1 2.5 2.8 4.5 5.5 4.5 5.9 0 .3 2.7 3.8 6 7.8 3.2 4 9.2 11.2 13.2 16 12.2 14.8 32.3 36.1 47.1 50 7.7 7.3 16.2 15.2 18.8 17.7 2.6 2.5 7.8 6.9 11.5 9.8 3.8 2.9 9.5 7.3 12.6 9.7 3.1 2.5 6 4.5 6.3 4.5.4 0 3.5 2.4 7 5.2 10 8.3 17.8 14.3 18.9 14.7.6.2 3.7 2.5 6.8 5 10.1 8.2 16 12.6 17.2 13.1 1.5.6 9.6 6.7 18.1 13.7 3.5 2.9 6.7 5.3 7 5.3.4 0 2.9 1.7 5.6 3.7 2.6 2.1 7.3 5.6 10.4 7.8 3 2.2 8.4 6.2 12 9 6.8 5.3 13.7 10.3 16.5 12 1.9 1.2 8.5 6 16.9 12.5 3.3 2.5 11.6 8.5 18.6 13.5 6.9 4.9 17.3 12.5 23.1 16.7 5.7 4.3 10.7 7.8 11.1 7.8.4 0 1.6.8 2.7 1.9 1.2 1 4.5 3.5 7.4 5.5 5.2 3.6 11 7.7 21.2 14.9 3 2.1 8.2 5.8 11.5 8.3 3.3 2.4 6.7 4.7 7.5 5.1.8.3 2.4 1.4 3.5 2.3 1.1 1 8.3 6 16 11.2 13.2 9 20.6 13.9 44 30 14.2 9.7 77.2 52.1 79.3 53.3 2 1.2 41.7 27.3 48 31.6 2.3 1.6 4.5 2.9 4.8 2.9.4 0 2.3 1.2 4.3 2.7 2 1.6 4.5 3.3 5.6 4 2.8 1.7 29.2 18.5 31.9 20.3 1.9 1.3 7.5 4.7 15.1 9.3 1.1.7 3.6 2.4 5.6 3.9 2 1.6 4 2.8 4.4 2.8.4 0 2.1 1 3.8 2.2 1.7 1.3 3.9 2.7 4.8 3.3 2.3 1.4 12.6 7.6 15.5 9.5 1.3.8 5.9 3.7 10.1 6.4 10.1 6.3 18.1 11.5 21.5 13.8 1.5 1 3 1.8 3.3 1.8.4 0 2.1 1 3.8 2.3 1.8 1.2 4.1 2.7 5.2 3.4 1.1.7 7.6 4.6 14.5 8.8 6.9 4.2 13.4 8.1 14.5 8.8 1.1.7 3.4 2.1 5 3.3 1.7 1.1 3.7 2.3 4.5 2.7.8.4 3.1 1.7 5.1 2.9 6.5 4.1 22.9 14.3 24.7 15.3.9.5 4.6 2.8 8.2 5 3.6 2.2 7.3 4.4 8.2 5 1.4.8 63 38 69.3 41.8 1 .7 4.9 3.1 8.6 5.4 3.6 2.4 6.9 4.3 7.2 4.3.3 0 5.6 3.1 11.9 6.8 9.4 5.7 31.9 19.1 39.3 23.5 1.1.7 3.4 2.2 5.2 3.4 1.7 1.3 3.5 2.3 3.8 2.3.3 0 4.5 2.3 9.3 5.1 4.8 2.9 10.2 6 12 7 6 3.5 9.6 5.6 24.7 14.4 8.3 4.8 16.6 9.7 18.5 10.7 1.9 1.1 7.6 4.4 12.7 7.4s9.6 5.4 10.1 5.4 1.5.6 2.1 1.4c.7.8 3.1 2.4 5.4 3.5 2.3 1.2 4.9 2.6 5.7 3.1 3.1 2 28.1 16 28.6 16 .3 0 2 1 3.7 2.2 3 2.1 6 3.8 19.7 11.1 5.9 3.1 13.2 7.2 24.5 13.7 2.2 1.2 9.6 5.3 16.5 9s14.3 7.8 16.5 9.1c2.2 1.2 9 4.9 15 8.2 6.1 3.2 13.7 7.4 17 9.2 13.3 7.3 31.7 17.1 43.5 23.2 6.9 3.6 13 6.8 13.5 7.3 1.1.8 22.8 12.1 44.5 23.2 8 4.1 15.6 8.1 17 9 5.9 3.7 113.5 57.9 153.5 77.3 60.2 29.2 72.6 35.2 90.5 43.5 7.4 3.4 16.7 7.7 20.5 9.5 3.9 1.8 12.6 5.8 19.5 9 6.9 3.1 15.2 7 18.5 8.5 6.9 3.2 27.5 12.6 32 14.5 14.7 6.4 22.6 9.9 26 11.5 3.3 1.6 10.7 4.8 23 10 1.1.5 5.5 2.5 9.7 4.4 4.2 2 8.3 3.6 9 3.6.8 0 1.8.4 2.4.9.5.5 5 2.5 9.9 4.5 5 2 9.9 4.1 10.9 4.7 1 .6 4.6 2.1 8 3.4 6.5 2.5 17 7 19.8 8.5 1 .6 2.3 1 2.9 1 .7 0 3 .9 5.3 1.9 8.1 3.8 11.4 5.1 12.8 5.1.8 0 1.8.4 2.4 1 .5.5 3.9 2 7.6 3.4 3.7 1.4 8.7 3.4 11 4.5 2.4 1.1 6.1 2.7 8.3 3.4 2.2.8 6.5 2.5 9.5 3.7 3 1.3 7.8 3.1 10.5 4.2 2.8 1 5.9 2.3 7 2.8 2.1.9 16.3 6.4 25 9.6 2.8 1 6.1 2.4 7.5 3.1 1.4.7 3.2 1.3 4.1 1.3.8 0 1.9.4 2.5.9.5.5 3.7 1.8 7.2 3 3.4 1.2 7 2.5 8 3 .9.5 8.2 3.3 16.2 6.1 8 2.9 15.4 5.5 16.5 6 5.2 2 13.8 5.1 22 8 5 1.8 9.9 3.6 11 4 1.1.5 4.9 1.9 8.5 3.1 3.6 1.2 13.5 4.6 22 7.6 8.5 2.9 20.9 7.2 27.5 9.4 6.6 2.2 12.9 4.3 14 4.8 1.1.4 5.2 1.8 9 3 3.9 1.1 11.5 3.5 17 5.2 5.5 1.7 10.7 3.4 11.5 3.9.9.4 3.1 1.1 5 1.5 1.9.4 4.1 1.1 5 1.6.8.4 6.9 2.4 13.5 4.4 6.6 2 12.7 4 13.5 4.4.9.5 3.1 1.2 5 1.5 1.9.4 4.4 1.1 5.5 1.6 2.2.9 11.8 3.9 21 6.5 3.3.9 6.9 2 8 2.5 1.1.5 3.8 1.3 6 1.9 2.2.5 6.3 1.7 9 2.5 27.3 8.2 59.5 17.1 91 25.3 6.9 1.8 27.9 2.9 30.9 1.6 1.2-.5 5.3-2.5 9.1-4.4 7-3.4 7-3.5 11.5-12.4 8.6-16.9 22.7-47.2 26.5-56.5 1-2.5 2.8-6.8 4.1-9.5 1.2-2.8 2.6-6.4 3-8 .4-1.7 1-3.5 1.4-4 .4-.6 1.1-2.6 1.5-4.5.4-1.9 1.1-4 1.5-4.5.4-.6 1.1-2.6 1.4-4.5.4-1.9 1.1-4.4 1.6-5.5 1.3-3 5.4-21.4 7.4-33.5.7-4.1 1.6-8.3 2.1-9.3.4-1.1.8-9.2.9-18.1l.1-16.2-5-5.9c-6.3-7.7-21.5-23.1-25.3-25.9-1.7-1.1-7.1-5.7-12-10.1-4.9-4.4-12.3-10.6-16.3-13.8-13.4-10.4-20.6-16.1-27-21.2-3.4-2.8-7.2-5.7-8.5-6.5-1.2-.8-5.7-4.2-10-7.6-4.4-3.3-14.3-10.8-22-16.7-7.8-5.9-14.7-11.4-15.4-12.2-.7-.8-1.7-1.5-2.2-1.5-.5 0-3.4-1.9-6.3-4.3-3-2.3-8.4-6.5-12.1-9.2-3.7-2.8-9.3-7-12.5-9.5-3.3-2.5-8.6-6.5-12-9-3.3-2.5-8.7-6.6-11.9-9.3-3.3-2.6-6.2-4.7-6.5-4.7-.6 0-6.7-4.6-17.5-13.3-3.2-2.6-6.2-4.7-6.5-4.7-.4 0-3.1-1.9-6-4.3-3-2.3-8.2-6.2-11.5-8.7-3.3-2.5-8.7-6.5-12-9-3.3-2.5-8.7-6.5-12-9-3.4-2.5-7.3-5.4-8.8-6.6-7.7-5.9-24-18.2-26.2-19.6-1.4-1-7.2-5.3-13-9.7-5.8-4.4-12.9-9.7-15.8-11.8-2.9-2.1-8-5.9-11.2-8.6-3.3-2.6-6.2-4.7-6.5-4.7-.4 0-3-1.9-6-4.3-3-2.3-8.4-6.4-12.2-9.2-3.7-2.7-9.1-6.8-12-9-2.9-2.2-7.7-5.8-10.8-8-3.1-2.2-8.3-6-11.5-8.5-3.3-2.5-8-6.1-10.5-8-2.6-1.9-5.7-4.2-7-5-1.3-.8-4.4-3.1-7-5-12.6-9.6-16.9-12.8-22-16.5-3.1-2.2-8.1-5.9-11.3-8.2-3.1-2.3-8.3-6.2-11.5-8.5-3.2-2.4-8.3-6.2-11.2-8.6-3-2.3-5.7-4.2-5.9-4.2-.3 0-8-5.6-17.1-12.5-9.2-6.9-16.9-12.5-17.1-12.5-.3 0-2.9-1.8-5.7-4.1-2.9-2.3-14.2-10.8-25.2-18.9-25.1-18.6-30.2-22.5-36.9-27.8-3-2.3-5.8-4.2-6.1-4.2-.4 0-3.1-2-5.9-4.5-2.9-2.5-5.6-4.5-6-4.5-.5 0-3.2-2-6-4.5-2.9-2.5-5.6-4.5-6-4.5-.7 0-6.4-4.3-17.6-13.3-3.2-2.6-6.2-4.7-6.5-4.7-.3 0-3-1.8-5.8-4.1-2.9-2.2-13.3-10.1-23.2-17.4-9.9-7.4-20.7-15.5-24-18-3.3-2.6-13-9.8-21.5-16.2-8.5-6.4-16.7-12.5-18.2-13.7-1.5-1.1-5.2-3.9-8.3-6.1-3.1-2.2-8.3-6.1-11.5-8.8-3.3-2.6-6.2-4.7-6.5-4.7-.4 0-3.1-2-5.9-4.5-2.9-2.5-5.6-4.5-6.1-4.5-.4 0-3.2-2-6.3-4.5-12.2-9.8-17.1-13.5-17.8-13.5-.4 0-1.4-.7-2.3-1.5-2.7-2.5-7.6-6.3-23.4-18.1-8.4-6.2-17.9-13.3-21.2-15.9-6.4-4.9-14.7-11.2-24.5-18.5-3.3-2.5-8.7-6.5-12-9-3.2-2.5-8.6-6.5-12-9-3.3-2.5-8.7-6.6-11.9-9.3-3.3-2.6-6.2-4.7-6.6-4.7-.4 0-3-1.9-5.8-4.3-2.9-2.4-6.2-5-7.4-5.8-1.2-.7-11.9-8.8-23.8-17.9-11.9-9.1-22.6-17.2-23.9-18-1.2-.8-6.6-4.9-12-9s-10.8-8.2-11.9-9c-1.2-.8-4.2-3-6.7-5s-5.5-4.2-6.7-5c-1.1-.8-20.9-15.7-43.8-33s-42.7-32.2-44-33c-2.3-1.5-5.1-3.5-17.4-13-3.2-2.5-10.4-7.9-16-12s-12.7-9.4-15.9-11.8c-3.1-2.3-7.3-5.3-9.2-6.7-10.8-7.7-13.9-10-18.2-13.6-2.6-2.1-4.9-3.9-5.3-3.9-.3 0-3.1-1.9-6-4.3-3-2.3-7.9-6-11-8.2-3.1-2.2-8.3-6-11.5-8.5-6.3-4.8-13.4-10-22.5-16.5-3.1-2.2-8.3-6.1-11.5-8.8-3.3-2.6-6.1-4.7-6.4-4.7-.3 0-5.3-3.6-11.1-8s-10.8-8-11.1-8c-.3 0-3-1.9-6-4.3-7-5.5-13.2-10.1-33.9-25.2-9.3-6.9-17.9-13.2-19-14-2.8-2.1-23.9-17.6-30.3-22.2-2.9-2.1-7.7-5.7-10.7-8.1-2.9-2.3-5.6-4.2-5.9-4.2-.3 0-5.3-3.6-11.1-8s-10.8-8-11.1-8c-.2 0-2.7-1.7-5.4-3.8-2.7-2-7.4-5.5-10.5-7.7-3.1-2.2-8-5.9-11-8.3-2.9-2.3-5.6-4.2-5.8-4.2-.3 0-5.4-3.6-11.4-8-5.9-4.3-13.1-9.6-16-11.7-2.8-2.1-10.1-7.4-16.2-11.8s-15.9-11.5-21.7-15.8c-5.8-4.2-10.9-7.7-11.4-7.7-.4 0-1.3-.7-2-1.5-.6-.8-5.2-4.3-10.2-7.7-4.9-3.5-11.4-8.1-14.4-10.3-3-2.2-7.9-5.8-10.9-8-3.1-2.2-8-5.8-11-8s-8.6-6.3-12.5-9c-3.9-2.8-9.5-6.8-12.5-9-2.9-2.2-7.9-5.8-10.9-8-3.1-2.2-8-5.8-11-8s-10.3-7.4-16.1-11.5c-5.9-4.1-13.1-9.4-16-11.8-3-2.3-5.6-4.2-6-4.2-.3 0-2.8-1.7-5.5-3.8-2.7-2-7.4-5.5-10.5-7.7-3-2.2-8-5.8-11-8-8.6-6.3-13.5-9.9-16-11.5-4.4-2.9-21.8-15.5-27.1-19.8-3-2.3-5.7-4.2-6-4.2-.4 0-2.6-1.6-5-3.5-2.3-1.9-4.5-3.5-4.9-3.5-.3 0-2.8-1.8-5.4-4-2.6-2.2-5-4-5.4-4-.3 0-5.4-3.6-11.2-8-5.8-4.4-10.8-8-11.2-8-.3 0-2.7-1.7-5.4-3.8-12-9.2-14.8-11.2-15.4-11.2-.3 0-3-1.9-6-4.3-2.9-2.3-9.4-7.1-14.501-10.7-5-3.6-11.7-8.4-14.8-10.7-3.1-2.3-7.9-5.8-10.7-7.8-2.7-1.9-8.4-6-12.5-9.002-4.1-3-9.8-7.1-12.7-9-2.8-2-5.7-4.2-6.3-5-.7-.8-1.7-1.5-2.2-1.5-.6 0-3.2-1.7-5.9-3.8-2.7-2-7.2-5.4-10.1-7.5-12.2-8.8-27.5-19.7-37.4-26.7-5.8-4.1-13-9.4-16-11.8-2.9-2.3-5.7-4.2-6-4.2-.4 0-2.6-1.6-5-3.5-2.3-1.9-4.5-3.5-4.8-3.5-.4 0-2.9-1.7-5.6-3.8-5.2-3.9-8.9-6.6-26.5-19.2-6-4.3-13.2-9.5-16-11.5-2.7-2-8.8-6.4-13.5-9.7-4.7-3.3-9.4-6.8-10.6-7.9-1.1-1-2.4-1.9-2.8-1.9-.5 0-3-1.7-5.7-3.8-2.6-2-7.1-5.3-9.9-7.2-2.8-1.9-8.4-6-12.5-9s-12.1-8.9-18-13c-10.5-7.5-27.3-19.5-37.3-26.7-2.9-2.1-7.5-5.4-10-7.4-2.6-2-5.2-3.8-5.7-4-1.1-.4-7.3-4.9-15.5-11.2-2.7-2-5.2-3.7-5.5-3.7-.3 0-2.8-1.701-5.5-3.8-5.2-3.9-8.9-6.6-26.5-19.2-17.6-12.601-21.3-15.3-26.5-19.3-2.7-2-5.2-3.7-5.6-3.7-.3 0-2.8-1.701-5.5-3.8-2.7-2-7.2-5.4-9.9-7.5-2.7-2-5.2-3.7-5.5-3.7-.3 0-2.8-1.701-5.5-3.8-2.7-2-7.4-5.5-10.5-7.7-3-2.201-8-5.8-11-8-2.9-2.201-9.5-6.9-14.5-10.5-8.6-6.101-12.4-8.9-24.6-17.8-2.9-2-9.3-6.6-14.3-10.2-5.1-3.601-11.7-8.3-14.6-10.5-3-2.201-8-5.8-11-8-3.1-2.201-7.8-5.701-10.5-7.8-2.7-2-5.2-3.7-5.5-3.7-.3 0-2.8-1.701-5.5-3.8-5-3.8-8-6-26.2-19-5.9-4.2-15.1-10.9-20.4-14.7-5.3-3.9-10.6-7.701-11.9-8.5-2.5-1.601-7.4-5.201-16-11.5-3-2.201-8-5.8-11-8-3.1-2.201-7.8-5.701-10.5-7.8-2.7-2-5.2-3.7-5.6-3.7-.3 0-2.8-1.8-5.4-4-2.6-2.201-5.1-4-5.5-4-.4 0-2.9-1.701-5.6-3.8-2.7-2-7.2-5.4-10.1-7.5-2.9-2-11.1-8-18.1-13.2-7-5.201-13-9.5-13.2-9.5-.3 0-2.4-1.5-4.8-3.3-2.4-1.7-7.2-5.2-10.5-7.7-3.4-2.5-8.6-6.3-11.6-8.5-3-2.201-10.4-7.601-16.6-12-6.1-4.4-13.5-9.9-16.5-12.3-2.9-2.3-5.7-4.2-6-4.2-.4 0-2.8-1.701-5.4-3.8-8-6.5-10.7-8-19.8-11.6-13.1-5.1-13.2-5.201-18.1-1.701l.001.003zM4916.5 1168.1c-8.2.4-17.9 1-21.5 1.3-3.6.4-13.5 1.1-22 1.6-20.6 1.3-23.1 1.6-39.5 3.4-7.7.9-19.2 2-25.5 2.6-6.3.6-12.2 1.4-13 1.8-.8.3-6 1.2-11.5 1.9-20 2.5-46.2 6.7-73.5 11.8-4.7.9-11.4 2-15 2.6-3.6.6-7.2 1.3-8 1.7-.8.3-4.4 1.1-8 1.8-6.1 1.2-11.5 2.3-27.7 5.9-13.3 2.8-18.8 4.1-20.3 4.7-.8.4-4 1.1-7 1.8-9.5 2-16.4 3.6-18 4.3-.8.3-3.7 1.1-6.5 1.7-2.7.6-7 1.6-9.5 2.1-2.5.6-5.4 1.4-6.5 1.9-1.1.5-4 1.3-6.5 1.9-5.2 1.2-13.2 3.3-21 5.6-3 .9-7.3 2.1-9.5 2.6-14.5 3.5-97.6 30.4-102 33.1-.5.3-2.5.9-4.3 1.3-1.8.4-4.5 1.3-6 2.1s-3.3 1.4-4 1.4c-.7 0-2 .4-3 .9-.9.5-3.9 1.7-6.7 2.6-2.7 1-6.3 2.3-8 3-3.4 1.4-6.9 2.8-20.5 8-16.6 6.4-17.4 6.7-20.5 8.1-1.6.7-9.7 4-18 7.4-22 8.9-40.4 17.6-56 26.3-3.3 1.8-10.5 5.8-16 8.9-5.5 3-12 6.6-14.5 8-2.5 1.4-8.3 4.7-13 7.3-19.9 11.2-29.8 16.8-34 19.2-1.9 1.1-7.5 4.4-12.5 7.2-4.9 2.8-9.7 5.5-10.5 6.1-3.4 2.1-14.7 8.7-19.3 11.2-1.2.7-14.9 8.9-30.5 18.3l-30 18c-1.6.9-38.4 24.1-43.7 27.5-1.2.8-4.9 3.1-8 5-3.1 1.9-6.8 4.2-8 5-1.3.8-5.9 3.7-10.2 6.4-4.3 2.7-9.4 6.2-11.3 7.6-1.9 1.5-3.9 2.9-4.5 3.1-3.3 1.3-63.2 41.5-83.8 56.2-2.8 2-7.4 5.3-10.2 7.2-10.9 7.6-14.4 10.1-18.2 13.5-2.2 1.9-6.4 5.5-9.3 8-3 2.5-10.7 9.4-17.3 15.5-6.5 6-13.2 11.9-14.7 13.1-1.6 1.1-15.9 14.6-31.9 30-16 15.3-32.2 30.8-36.1 34.3l-7 6.3v8.7c0 5 .5 9.5 1.3 10.7.6 1.2 2.2 3.9 3.4 6.1 1.4 2.5 4 5.2 7 6.9 2.6 1.6 5.6 3.3 6.5 3.9 8.2 5 31.5 17 54.8 28.4 9.1 4.4 19.9 9.9 24 12.2 19.4 10.8 18 10.4 33.5 10.7 7.7.2 16.5-.1 19.5-.7 12.5-2.3 16.3-3.3 19.3-5.1 1.8-1.1 4.8-2.9 6.7-4 1.9-1.1 5.1-3 7.2-4.2 5.3-3.4 14.9-8.9 18.3-10.8 1.7-.9 7.3-4 12.5-7 5.2-2.9 11.5-6.4 14-7.8 2.5-1.3 7.7-4.1 11.5-6.2 24.3-13.2 99.1-49.8 130.5-64 6.3-2.9 14.2-6.5 17.5-8 3.3-1.5 9.8-4.4 14.5-6.4 4.7-2.1 10.8-4.8 13.5-6.1 2.8-1.2 17.4-7.5 32.5-13.9 30.1-12.8 29.5-12.6 36-15.2 2.5-.9 6.3-2.5 8.5-3.4 2.2-.9 6-2.5 8.5-3.4 2.5-1 5.4-2.2 6.5-2.7 1.1-.4 4.5-1.8 7.5-2.9 3-1.2 6.4-2.6 7.5-3.1 2.4-1.1 25-9.7 28.5-10.9 1.4-.5 5-1.8 8-3s10.7-4 17-6.2c6.3-2.2 12-4.4 12.5-4.8.6-.4 2.5-1.1 4.3-1.5 1.8-.4 4.5-1.3 6-2.1s3.5-1.4 4.4-1.4c.9 0 1.9-.4 2.2-.9.4-.5 2.4-1.2 4.6-1.6 2.2-.4 4.2-1 4.5-1.5.3-.4 2.1-1.1 4.1-1.5 2-.3 4.4-1 5.3-1.5.9-.5 4.5-1.8 8.1-3 3.6-1.2 7.4-2.6 8.5-3 1.1-.5 9.4-3.1 18.5-6 9.1-2.8 17.2-5.5 18.1-6 .9-.5 3.4-1.2 5.5-1.6 2.2-.3 4.4-1 4.9-1.4.6-.4 2.6-1.1 4.5-1.5 1.9-.4 4.1-1.1 5-1.6.8-.4 3.3-1.2 5.5-1.8 6.4-1.6 21.8-6.1 24-7.1 1.1-.4 4-1.3 6.5-2 2.5-.6 6.3-1.6 8.5-2.1 2.2-.6 4.9-1.4 6-1.9 1.1-.5 4-1.4 6.5-2 8.3-2.1 19.5-5.1 25-6.6 3-.8 7.3-1.9 9.5-2.5 2.2-.5 4.9-1.4 6-1.9 1.1-.5 4-1.3 6.5-1.9 2.5-.5 7.2-1.7 10.5-2.6 3.3-.9 8-2.1 10.5-2.6 2.5-.6 5.4-1.4 6.5-1.9 1.1-.5 3.7-1.1 5.9-1.5 2.1-.3 4.6-1 5.5-1.5.9-.5 3.9-1.4 6.6-2 12-2.6 14.1-3.2 16-4 1.1-.5 4.3-1.4 7-2 4.7-1 9.9-2.3 22.5-5.6 10.2-2.6 18.5-4.6 24-5.7 3-.7 6-1.5 6.5-1.9.6-.3 3.3-.9 6-1.3 2.8-.4 5.5-1 6-1.4 1-.6 9-2.4 18.5-4.2 3-.5 6.2-1.4 7-1.8.9-.5 4-1.2 7-1.6 3-.4 6.1-1.1 7-1.6.8-.4 4.2-1.3 7.5-1.9 3.3-.6 9.2-1.8 13-2.6 3.9-.8 9.9-2.1 13.5-2.8 3.6-.7 7.2-1.5 8-1.9.8-.3 4.4-1.1 8-1.7 7.1-1.1 8.9-1.4 17-3.1 3-.6 6.2-1.1 7-1.1.8 0 2.4-.3 3.5-.8s5.2-1.4 9-1.9c3.9-.6 10.4-1.5 14.5-2.1 4.1-.6 8.2-1.4 9-1.7 1.5-.6 8.8-1.9 27.5-4.7 5-.7 9-1.5 9-1.6 0-.1 4.3-.9 9.5-1.6 5.2-.8 13.9-2.1 19.3-2.9 5.3-.8 14.1-2.2 19.5-3 5.3-.8 11.1-1.7 12.7-2 1.7-.3 7.3-1 12.5-1.5 10.3-.9 16.4-2.1 25-4.6 6.7-2 18.9-7.6 19-8.7 0-.5 1.1-2.3 2.4-4 6.8-9.1 9.4-15.8 12.1-31.2.8-4.4 2.1-11.4 2.9-15.5.8-4.1 2.2-11.3 3.1-16 .9-4.7 2.2-11.7 3-15.5.7-3.9 2-10.6 2.9-15 .8-4.4 1.8-9.1 2.1-10.5.3-1.4 1.3-5.9 2.1-10 1.5-7.8 3.3-16.3 5.8-27.8 3.9-18 4.6-21.1 5.6-26.7.6-3.3 1.6-7 2.2-8.2.6-1.2.8-3.2.5-4.5-.3-1.3-1.2-5-2-8.3-2.4-9.8-4.6-13.6-11.9-20.8-7.4-7.3-10.5-9.1-18.1-10.2-2.7-.3-5.9-.9-7-1.2-7.2-1.8-20.5-2.2-65.2-2.1-27.5.1-56.7.5-65 .9zM5214.5 1189.7c-1.6.2-3.9.8-5 1.3s-4.1 1.7-6.6 2.8c-4.7 2-5.7 3.3-12.5 15.7-3.3 6-5.7 15.1-9.4 35-.6 3.3-1.4 6.7-1.8 7.5-.3.8-1.1 4.4-1.8 8-.7 3.6-2 9.8-2.8 13.7-3 13.8-4.7 21.8-6.1 29.1-.8 3.9-2.2 10.7-3 15-.9 4.2-2 10.6-2.6 14.2-.6 3.6-1.3 7.2-1.7 8-.3.8-1.2 4.9-1.9 9-2.5 14.1-4.2 23.5-5.8 32-2.1 11.4-4.3 23.7-6 34-.8 4.7-2.2 12.5-3 17.5-2.9 16.6-6.3 37.3-9 54.5-2.2 14.6-2.3 15.3-4 26.5-.8 5.5-2.1 14.7-3 20.5-6.1 40.9-15 108.6-17.2 130.9-.3 3 0 6.3.6 7.5.6 1.1 1.5 3.3 2 4.7.6 1.6 3 3.7 7.1 5.8 6.1 3.3 6.4 3.3 14.8 2.7l8.6-.7 22.3-22c12.3-12 24.1-23.1 26.1-24.6s7.6-6.2 12.4-10.3c4.8-4.1 11.9-10 15.8-13 3.8-3 9.7-7.6 12.9-10.3 3.2-2.6 6.2-4.7 6.5-4.7.4 0 3-1.9 6-4.3 5.9-4.6 24.4-17.9 26-18.7.6-.3 4.3-2.6 8.2-5.3 3.9-2.6 7.5-4.7 7.9-4.7.4 0 1.9-.8 3.3-1.9 2.7-1.9 48.6-25.1 49.6-25.1.3 0 5.9-2.5 12.3-5.6 25.3-12.1 28.1-13.4 28.9-13.4.4 0 3.5-1.3 6.8-2.9 9-4.2 13.3-6.1 14-6.1.3 0 2.9-1.1 5.8-2.4 4.9-2.3 25.2-10.2 37.8-14.8 3-1.1 6.3-2.4 7.2-2.9 1-.5 2.3-.9 3-.9.7 0 2.5-.6 4-1.4 1.5-.8 4.2-1.7 6-2.1 1.8-.4 3.8-1.1 4.3-1.5.6-.4 2.6-1.1 4.5-1.5 1.9-.4 4.1-1.1 5-1.6 2.3-1.2 19-6.6 23-7.4 1.9-.4 4-1.1 4.5-1.5.6-.4 3-1.2 5.5-1.8 2.5-.6 7-1.8 10-2.7 3-.9 7.3-2.1 9.5-2.6 2.2-.6 4.8-1.4 5.7-1.9.9-.6 3.6-1.3 6-1.6 2.4-.4 4.8-1 5.3-1.4.6-.5 2.8-1.1 5-1.5 2.2-.4 4.5-1 5-1.4.6-.3 3.5-1.1 6.5-1.8 6.8-1.4 13.9-3.3 16.5-4.4 1.1-.4 3.6-1.1 5.5-1.5 1.9-.3 4-1 4.5-1.4.6-.4 3-1.1 5.5-1.5 5-.8 10.1-3.8 17.6-10.1 4-3.3 5.3-5.3 5.9-8.1.4-2.1 1.2-4.4 1.8-5.2 1.5-1.8 1.5-15.4 0-17.2-.5-.8-1.3-2.8-1.7-4.4-.4-1.7-1.3-4.4-2-6-7.3-15.8-7.4-15.9-18.4-26.5-13.6-13-34-31.4-35.5-31.9-.7-.2-4.2-3-7.8-6.3-3.6-3.2-6.9-5.8-7.3-5.8-.4 0-3.2-1.9-6.1-4.3-7.1-5.5-14.4-10.9-16.6-12.2-1-.5-5.1-3.3-9.1-6-4-2.8-7.7-5.2-8.3-5.4-.5-.2-2.6-1.6-4.5-3-1.9-1.5-4.6-3.2-6-3.9-1.4-.7-4.5-2.6-7-4.2s-5.8-3.6-7.5-4.5c-1.6-.9-6.4-3.5-10.5-5.9-11.4-6.6-63.7-32.6-65.6-32.6-.3 0-2.4-.8-4.7-1.8-2.3-1-6.2-2.7-8.7-3.6-2.5-1-5.8-2.4-7.5-3.1-1.6-.7-4.8-2-7-2.8-10-3.6-16.2-5.9-18-6.7-2.2-.9-17.6-6.3-24-8.5-2.2-.7-7.4-2.3-11.5-3.5-4.1-1.1-8.2-2.5-9.1-3-.9-.5-3.4-1.2-5.5-1.6-2.2-.3-4.3-1-4.9-1.4-.5-.4-3-1.2-5.5-1.8-9.1-2.1-13.5-3.4-15-4.1-.9-.5-3.9-1.2-6.8-1.6-2.9-.4-5.4-1.1-5.7-1.5-.3-.4-2.9-1.1-5.8-1.5-2.8-.4-5.6-1-6.2-1.4-.5-.3-3.7-1.2-7-1.9-8.5-1.8-18.2-3.9-23.5-5.1-4.4-1-13.5-1.2-19.5-.4zM3726 1282.1c-2.5.5-14.4 1.3-26.5 1.8-34.9 1.6-80.9 6-119.5 11.5-20.6 3-48.5 7.2-52.5 8.1-1.1.2-6 1.1-11 2-12.8 2.2-22.8 4.1-31.5 6-4.1.9-10.4 2.2-14 2.9-3.6.7-7.2 1.5-8 1.8-.8.4-4 1.1-7 1.7-3 .5-8.2 1.7-11.5 2.5-3.3.8-8.2 2-11 2.6-2.7.6-5.8 1.5-6.7 2-1 .6-2.3 1-3 1-1.1 0-8 2.5-14.3 5.1-1.1.5-4.5 1.8-7.5 2.9-3 1.1-6.4 2.4-7.5 2.9-16.7 7.2-33.5 15.7-41.4 20.9-3 2.1-6.5 4.3-7.8 5-1.2.7-2.3 2.1-2.3 3.1 0 .9-.4 2.1-1 2.7-.5.5-1.2 4.1-1.5 7.9l-.5 7 4.7 3.8c2.7 2.1 7.3 5.8 10.3 8.4 3.1 2.5 12.3 7.9 21 12.2 15.7 7.8 18.5 9 34.5 15.7 5 2 9.5 4.1 10 4.5.6.4 4.9 2.1 9.7 3.7 7.7 2.7 16.7 7.2 37.8 18.6 6.5 3.6 17.9 9.2 25.5 12.6 2.2 1 8.3 3.7 13.5 6 5.2 2.3 11.8 5.2 14.5 6.5 2.8 1.2 8.8 3.9 13.5 6 4.7 2 10.8 4.7 13.5 6 2.8 1.2 8.8 3.9 13.5 6 13.8 6 14.2 6.2 22.2 9.9 4.2 2 7.9 3.6 8.2 3.6.3 0 3.8 1.5 7.8 3.4 15 6.9 18.7 8.6 19.2 8.6.3 0 4 1.6 8.3 3.6 9.4 4.4 14.2 6.5 20.8 9.4 5 2.1 9 4 21.7 9.9 3.7 1.7 7 3.1 7.4 3.1.4 0 3.6 1.4 7.3 3.1 3.6 1.7 8 3.7 9.6 4.4 1.7.8 7.1 3.3 12 5.6 5 2.3 12.2 4.8 16 5.5 3.9.7 9.7 1.8 12.9 2.5 8.5 1.7 14-.5 22.8-8.7 3.7-3.5 8-7.1 9.5-8.1 1.6-1 5.7-4.3 9.3-7.5 3.6-3.2 6.9-5.8 7.4-5.8s4.2-2.8 8.2-6.3c9.1-7.7 18.1-14.7 18.9-14.7.3 0 3.7-2.6 7.5-5.8 3.8-3.1 9.4-7.5 12.5-9.7 5.9-4.2 13.4-9.7 22.5-16.6 10.9-8.1 26-18.9 26.6-18.9.3 0 2.8-1.7 5.5-3.8 2.6-2 8-6 11.9-8.7 3.9-2.8 9.3-6.7 11.9-8.8 2.7-2 5.2-3.7 5.6-3.7.4 0 2.4-1.4 4.5-3 2.1-1.7 4.1-3 4.5-3 .4 0 2.4-1.4 4.5-3 2.1-1.7 4.1-3 4.5-3 .4 0 2.4-1.4 4.5-3 2.1-1.7 4.1-3 4.5-3 .4 0 2.4-1.4 4.5-3 2.1-1.7 4.1-3 4.5-3 .4 0 2.4-1.4 4.5-3 2.1-1.7 4.1-3 4.5-3 .4 0 2.4-1.2 4.4-2.8 2-1.5 4.5-3.2 5.6-3.9 1.1-.7 6.4-4.1 11.8-7.5 5.4-3.5 10.6-6.8 11.5-7.3 2.1-1.3 10.7-6.9 23.4-15.2 5.4-3.4 10-6.3 10.3-6.3.4 0 2.2-1.2 4.1-2.6 1.9-1.5 4.8-3.4 6.5-4.3 3.7-2 25.3-15.5 35.2-21.9 4.2-2.8 7.7-9.5 7.7-14.6 0-3.5-4.1-10.6-8.3-14.5-2.8-2.5-3.6-2.7-24.7-6.2-25.1-4.2-47.7-7.4-64-9.3-6.3-.7-11.5-1.5-11.5-1.6 0-.2-6.3-.9-14-1.7-30.2-3-48.8-4.4-68.5-5.3-11.3-.6-23.5-1.4-27.3-2-8.2-1.2-130.1-1.1-136.7.1z" style="stroke:none;fill:#004aad"/><path d="M311.1 1367.6c-5 4.5-5.1 4.7-5.1 10.2.1 3.2.5 7.5 1 9.7.5 2.2 1.6 7 2.5 10.7.8 3.8 2.2 9.8 3.1 13.5.9 3.8 2.2 9.9 2.9 13.8.8 3.8 1.7 8.1 2 9.5.3 1.4 1.3 6.3 2.1 11s2.1 12.3 3 17c.8 4.7 2.1 12.3 2.9 17 .8 4.7 2.1 12.5 3 17.5.9 4.9 2 12.4 2.6 16.5.6 4.1 1.3 8.2 1.7 9 .3.8 1.1 5.1 1.8 9.5 2.5 15.1 4.2 25 4.4 25 .1 0 .8 3.4 1.5 7.5 3.1 17.1 4.4 23.4 9 44.7.8 3.8 1.9 9.5 2.5 12.8.6 3.3 1.4 6.7 1.8 7.5.3.8 1.1 4 1.8 7s2 8.3 2.8 11.7c.9 3.5 2.2 8.9 3 12 .8 3.2 2.2 8.5 3.1 11.8.9 3.3 2.1 8 2.6 10.5.6 2.5 1.4 5.4 1.9 6.5.4 1.1 1.3 3.9 1.9 6.2.6 2.4 1.6 6.2 2.2 8.5.6 2.4 1.5 5.2 2 6.3.5 1.1 1.3 3.8 1.8 6s1.6 6.2 2.5 9c.8 2.7 2.4 7.9 3.4 11.5 1.1 3.6 3.2 10.3 4.7 15 2.6 8 4.3 13.2 11.5 34.5 1.6 4.9 3.4 9.7 3.9 10.5.5.9 1.2 3.1 1.6 5 .4 1.9 1.1 3.9 1.5 4.5.4.5 1.8 4.1 3.1 8 1.3 3.8 2.9 8.1 3.6 9.5.7 1.4 1.3 3.1 1.3 3.8 0 .7.4 2 .9 3 .6.9 2.2 4.8 3.6 8.7 6.3 16.4 7.7 20.1 8.5 22 .5 1.1 1.9 4.5 3 7.5 1.2 3 2.6 6.4 3 7.5.5 1.1 1.8 4.2 2.8 7 6.2 15.8 24 57.3 31.6 73.8 2 4.3 3.6 8 3.6 8.4 0 .6 1.7 4.2 11.9 25.5 3.4 7 6.1 13 6.1 13.3 0 .5 2.3 5.4 11.4 24.8 2.5 5.3 4.6 9.9 4.6 10.2 0 .8 26.9 54.6 27.9 55.9.4.6 2.9 4.9 5.4 9.6 6.9 13.1 12 22.2 15.5 27.5.6 1.1 1.8 3.1 2.4 4.5.7 1.4 2.3 3.9 3.5 5.6 1.3 1.7 2.3 3.4 2.3 3.8 0 .4 2.3 4.1 5 8.3 2.8 4.2 5 7.8 5 8 0 .7 17.9 27.3 21.2 31.4 1.5 2 2.8 4 2.8 4.4 0 .3 1.9 3.1 4.3 6 2.3 3 6.7 8.7 9.7 12.6 5 6.5 9.2 11.5 24.4 29.4 6.6 7.9 51.3 52.5 59.5 59.5 3.5 3 8.8 7.5 11.6 10 7.3 6.3 23.4 19 24.1 19 .3 0 3 2 5.8 4.5 2.9 2.5 5.7 4.5 6.1 4.5.4 0 2.6 1.5 4.9 3.3 4.3 3.4 29 19.9 31.6 21 .8.4 4.4 2.5 8 4.8 6.1 3.9 14.4 8.7 30 17.3 7.7 4.3 57 28.9 65.5 32.8 3.3 1.4 11.6 5.2 18.5 8.3 15.8 7.2 19 8.6 27 12 3.6 1.5 13.3 6.1 21.5 10.3 17.4 8.7 24.1 12.1 69.7 34.6 18.6 9.1 34 16.6 34.2 16.6.3 0 10.3 4.8 22.3 10.6 27 13.1 31.7 15.3 52.3 24.9 9.1 4.2 19.7 9.1 23.5 10.9 3.9 1.8 11.3 5.2 16.5 7.6 5.2 2.3 12.2 5.5 15.5 7 9.7 4.5 23.1 10.4 37.5 16.5 7.4 3.2 14 6.1 14.5 6.5.6.4 4.2 2 8 3.5 3.9 1.5 9.3 3.8 12 5 2.8 1.3 7.5 3.3 10.5 4.5 3 1.2 7.3 3.1 9.5 4.1 2.2.9 8.5 3.6 14 5.9 5.5 2.2 12.5 5.1 15.5 6.4 3 1.3 8.9 3.8 13 5.4 4.1 1.7 11.6 4.7 16.5 6.7 5 2 9.9 4 11 4.5 1.1.4 4.5 1.8 7.5 3 8.4 3.4 9.1 3.7 15 6 9.9 3.9 10.5 4.2 13.3 5.6 1.6.8 3.3 1.4 3.9 1.4.5 0 2.4.6 4.1 1.4 1.8.7 7.7 3 13.2 5.1 5.5 2.1 11.4 4.3 13 5 1.7.7 5.3 2 8 3 2.8 1 6.4 2.4 8.2 3.1 1.7.8 3.6 1.4 4.2 1.4.6 0 1.9.4 2.9.9 4.6 2.2 8.9 4 11.2 4.6 1.4.3 3.4 1 4.5 1.5s3.4 1.3 5 1.8c1.7.6 7.5 2.7 13 4.7s12.7 4.5 16 5.6c5.7 2 14.8 5.3 19 7 2 .8 8.4 3 23.5 8.1 4.7 1.5 9.4 3.2 10.5 3.7 1.1.5 4.9 1.9 8.5 3.1 3.6 1.2 7.2 2.5 8 3 .9.4 3.1 1.1 5 1.5 1.9.4 4 1.1 4.5 1.5.6.4 2.6 1.1 4.5 1.5 1.9.4 4.1 1.1 5 1.5.8.5 4.4 1.8 8 3 3.6 1.2 7.4 2.6 8.5 3 3.3 1.3 17.7 6.1 21.5 7.1 1.9.6 4.4 1.4 5.5 1.9 1.1.4 9.4 3.2 18.5 6s17.2 5.5 18 6c.9.4 3.1 1.1 5 1.5 1.9.4 4.1 1.1 5 1.6.8.4 6.9 2.4 13.5 4.4 6.6 2 17.9 5.6 25 8 7.2 2.3 16.4 5.3 20.5 6.5 4.1 1.2 8.4 2.5 9.5 3 1.1.5 3.6 1.2 5.5 1.6 1.9.3 4.1 1 5 1.5 2.1 1.1 15 4.9 16.7 4.9.7 0 2.1.4 3.1.9.9.6 5.1 2 9.2 3.1 4.1 1.2 8.6 2.5 10 3 1.4.5 4.1 1.2 6 1.6 1.9.3 4 1 4.5 1.4.6.4 2.9 1.1 5.2 1.5 2.4.4 4.5 1 4.8 1.5.3.4 2.8 1.1 5.5 1.5 2.7.4 5.2 1.1 5.5 1.5.3.5 2.4 1.1 4.8 1.5 2.3.4 4.7 1.1 5.2 1.5.6.4 3 1.2 5.5 1.8 8.5 2 13.5 3.4 15.5 4.3 1.1.5 3.8 1.3 6 1.8s6.5 1.7 9.5 2.6c5.3 1.6 10.1 2.9 21.2 6 2.9.7 7.8 2.1 10.8 3 3 .9 6.2 1.7 7 1.9.8.2 4.2 1.2 7.5 2.1 3.3.9 7.9 2.1 10.3 2.6 2.4.5 4.8 1.2 5.4 1.5 1 .7 4.6 1.6 17.3 4.4 2.8.6 5.7 1.4 6.5 1.7.8.4 3.8 1.2 6.5 1.9 2.8.7 7.9 2 11.5 2.9 3.6.9 9 2.1 12 2.8 3 .7 6 1.5 6.5 1.8.6.4 3.3 1 6 1.4 2.8.4 5.5 1 6 1.5.6.4 3.3 1.1 6 1.5 2.8.4 5.5 1 6 1.5.6.4 3.3 1.1 6 1.5 2.8.4 5.5 1 6 1.3 1 .7 6.1 1.9 17.5 4.2 3 .6 6.2 1.4 7 1.7.8.4 4 1.2 7 1.9s8.4 2 12 2.8c10.2 2.4 20 4.6 26 5.9 3 .7 6 1.5 6.5 1.8.6.4 3.7 1 6.9 1.4 3.3.4 6.6 1.1 7.5 1.5.9.5 4.3 1.4 7.6 2 3.3.6 9 1.7 12.8 2.5 17.2 3.8 21.7 4.7 28.7 6 4.1.7 8.2 1.6 9 1.9.8.3 5.8 1.3 11 2.1 5.2.9 13.1 2.2 17.5 3.1 16.4 3 54.2 9.1 73.5 11.8 5.2.7 9.5 1.5 9.5 1.6 0 .2 5 .9 11 1.7 6.1.7 16.3 2 22.8 2.8 45.6 5.8 58.9 7.4 75.7 9 8 .8 16.8 1.7 19.5 2 5.9.7 30.7 2.1 68.5 3.9 15.1.7 27.5 1.4 27.5 1.6 0 .2 9.5.9 21 1.7 11.6.7 24.7 1.6 29.3 1.9 4.7.3 8.8.1 9.5-.4.7-.5 2.8-1.3 4.7-1.7 4.9-.9 16-6.3 19.3-9.3 1.5-1.4 2.7-3.4 2.7-4.3 0-1 .5-2.1 1-2.4.5-.3 1-1.4 1-2.3.1-.9.9-3.5 2-5.7s1.9-4.6 2-5.3c0-.7.4-2 1-3 .5-.9 2.5-6 4.5-11.2 6.5-17.3 9.7-25.5 11-28.5.7-1.7 2.1-5.3 3-8 1-2.8 2.1-5.5 2.5-6 .4-.6 1.5-3.3 2.5-6 1.9-5.5 7.9-20.3 10-25 .7-1.7 3-6.8 5-11.5 11.1-25.9 12.8-29.7 15.5-35.5 4.4-9.4 9-19.6 9-20 0-.2 1.7-4.1 3.9-8.7 2.1-4.6 5.1-11 6.6-14.3 1.5-3.3 4.3-9.3 6.1-13.3 2.6-5.7 3.4-8.6 3.4-13.2 0-3.2-.4-6.2-1-6.5-.5-.3-1-1.8-1-3.2 0-6.9-10.9-16.6-21-18.8-1.9-.4-4.8-1.8-6.5-3-1.6-1.2-5-2.7-7.5-3.3-10-2.4-13.6-3.4-15.1-4.2-.9-.5-3.7-1.1-6.3-1.5-2.5-.4-4.8-1.1-5.1-1.5-.3-.5-2.4-1.1-4.8-1.5-2.3-.4-4.6-1.1-5.2-1.5-.5-.4-2.6-1.1-4.5-1.5-1.9-.3-5.3-1.3-7.5-2s-6.7-2.1-10-3c-3.3-.9-6.8-2-7.7-2.6-1-.5-2.5-.9-3.3-.9-.8 0-4.1-.9-7.2-1.9-3.2-1-10.5-3.3-16.3-5.1-5.8-1.7-11.4-3.6-12.5-4-1.1-.4-5.4-1.8-9.5-3s-11.3-3.5-16-5c-4.7-1.5-15.9-5.1-25-8-9.1-2.8-17.4-5.6-18.5-6-1.1-.5-7.2-2.5-13.5-4.5-6.3-2.1-12.4-4.1-13.5-4.6-2.1-.9-12-4.3-24.5-8.5-4.1-1.4-8.3-2.9-9.2-3.4-1-.6-2.3-1-3-1-.7 0-2.5-.6-4-1.4-1.5-.8-4.1-1.7-5.9-2.1-1.9-.4-4-1.1-4.9-1.5-.8-.5-6.2-2.5-12-4.5-5.8-2.1-11.9-4.4-13.7-5.1-1.7-.8-3.6-1.4-4.2-1.4-.6 0-1.9-.4-2.9-.9-.9-.5-4.2-1.8-7.2-2.9-3-1.1-11.8-4.4-19.5-7.2-7.7-2.9-15.8-5.9-18-6.7-2.2-.7-5.4-2-7.2-2.8-1.7-.8-3.7-1.5-4.5-1.5-.8 0-1.8-.4-2.3-.8-.6-.5-3.2-1.7-6-2.7-2.7-.9-6.3-2.3-8-3-1.6-.7-5.7-2.3-9-3.6-3.3-1.3-6.4-2.7-7-3.1-.5-.4-1.5-.8-2.3-.8-1.3 0-8.9-3.1-12.4-5-1-.6-2.3-1-2.8-1-.6 0-3.2-.9-5.8-2.1-6.5-2.8-7.9-3.4-14.2-5.9-3-1.1-6.4-2.5-7.5-3-1.1-.5-6-2.5-11-4.5-4.9-2-9.9-4-11-4.5-1.1-.5-6-2.5-11-4.5-7.7-3.2-17.5-7.3-25-10.5-1.1-.5-6.5-2.8-11.9-5-5.4-2.3-10.6-4.6-11.5-5-.9-.5-5.6-2.5-10.6-4.6-4.9-2-9.7-4.1-10.5-4.5-.8-.4-5.3-2.4-10-4.5-4.7-2-10.8-4.7-13.7-6-2.8-1.3-5.4-2.4-5.6-2.4-.5 0-9.7-4.1-21.2-9.5-2.7-1.3-9.7-4.5-15.5-7-5.8-2.6-13.2-6-16.5-7.5-3.3-1.6-11.2-5.2-17.5-8-6.3-2.9-14.6-6.7-18.5-8.5-3.8-1.8-14.4-6.8-23.5-11s-22.3-10.5-29.5-14c-7.1-3.5-18.2-8.8-24.5-11.8-49.6-23.7-151.4-74.6-195-97.5-5.8-3-16.8-8.8-24.5-12.7-7.7-4-21.4-11.2-30.5-16-9.1-4.9-20.5-10.9-25.5-13.5-4.9-2.6-15.1-8-22.5-12s-16.6-9-20.5-11c-3.8-2-11.9-6.4-18-9.7-6-3.3-13.5-7.4-16.5-9-3-1.7-9.8-5.4-15-8.3-5.2-3-12-6.7-15-8.3-3-1.6-10.1-5.6-15.7-8.8-5.7-3.3-10.5-5.9-10.7-5.9-.4 0-26-14.3-28.6-15.9-.8-.6-4.9-2.9-9-5.2-4.1-2.3-8.8-5-10.5-5.9-9.3-5.3-17.8-10.2-20.7-11.8-3.1-1.8-31.9-18.4-38.3-22.2-21.9-12.8-33.5-19.6-36-21.1-1.6-1-5-3-7.5-4.4-2.5-1.4-5.8-3.4-7.5-4.4-1.6-1-4.7-2.8-6.7-3.9-5.5-3.1-90-53.7-98.8-59.1-4.1-2.5-8.2-5.1-9.2-5.6-.9-.6-4.3-2.6-7.5-4.5s-6.2-3.7-6.8-4c-.5-.3-2.3-1.4-4-2.4-1.6-1.1-4.6-2.9-6.5-4.1-4.9-3.1-40.1-24.6-42.5-25.9-1.1-.6-3.1-1.9-4.5-2.7-7.9-5-32.9-20.5-35-21.6-1.4-.8-5.2-3.2-8.5-5.3-3.3-2.2-7.6-4.9-9.5-6-1.9-1.1-4.7-2.8-6.1-3.8-1.5-.9-5.1-3.2-8-5-3-1.8-7.4-4.6-9.9-6.2-2.5-1.7-5.2-3.3-6-3.7-.8-.4-3.6-2.2-6.2-4-2.6-1.8-5-3.3-5.3-3.3-.3 0-1.8-.8-3.3-1.9-1.5-1-6.2-4.1-10.5-6.7-4.3-2.7-8.9-5.6-10.2-6.4-5.3-3.4-30.8-19.6-32.3-20.5-3.1-1.9-13.6-8.7-23.7-15.4-5.5-3.6-10.4-6.8-11-7.1-3.7-1.8-112.4-74.6-144.1-96.5-5.5-3.8-13.9-9.6-18.9-13-4.9-3.3-11.4-7.8-14.2-9.8-19.9-14-27.2-19.1-29.7-20.7-3.4-2.1-9.9-6.9-15.7-11.3-2.6-2-5.1-3.7-5.4-3.7-.3 0-2.8-1.7-5.4-3.8-6.4-4.8-12.8-9.4-15-10.7-1-.6-3.9-2.6-6.5-4.5-8.7-6.5-15.5-11.5-26.7-19.5-6.1-4.4-19.4-14.2-29.6-21.8-10.2-7.5-18.7-13.7-19-13.7-.2 0-2.9-1.9-5.8-4.3-3-2.3-8.2-6.2-11.5-8.7-3.3-2.5-8.7-6.5-12-9-3.3-2.5-8.7-6.5-12.1-9-3.3-2.5-8.7-6.5-12-9-3.2-2.5-8.6-6.5-12-9-3.3-2.5-8.9-6.8-12.4-9.5-3.6-2.8-9.2-7-12.5-9.5-3.3-2.5-8.9-6.8-12.4-9.5-3.6-2.8-9.5-7.3-13.1-10-3.7-2.8-9.6-7.3-13.1-10-3.5-2.8-8.7-6.8-11.5-9-2.8-2.2-6.1-4.7-7.4-5.5-1.3-.8-5-3.6-8.2-6.2-3.2-2.6-8.7-7-12.3-9.7-3.6-2.8-9.6-7.5-13.5-10.5-7.3-5.7-16.1-12.7-27.8-21.8-3.7-2.9-10.2-8.1-14.5-11.5-4.2-3.5-8.8-7.1-10-8-1.3-1-4.3-3.4-6.6-5.3-4.7-3.8-8-6.5-17.1-13.7-3.3-2.7-6.9-5.6-8-6.6-1.1-1-5.4-4.5-9.5-7.7-4.1-3.3-9.4-7.6-11.8-9.6-4-3.4-12.9-9.9-25.5-18.6-2.6-1.8-6.9-4.9-9.5-6.9-6.4-4.9-10.8-6.9-15.2-6.9-3.1 0-4.7.9-8.9 4.6zM4984.6 1510.7c-.4.4-5.3 1.3-10.9 2-17.2 2.3-29.2 4-29.2 4.3 0 .1-4 .8-9 1.6-13.9 2-34.7 5.6-52.2 8.9-4.6.8-11.8 2.2-16 3-4.3.7-11.4 2.1-15.8 3-4.4.9-10.7 2-14 2.6-3.3.5-6.7 1.3-7.5 1.6-.8.4-4.4 1.2-8 1.9-7.2 1.4-16.8 3.5-27.5 5.9-3.8.9-9.5 2.1-12.5 2.6-3 .6-6.2 1.3-7 1.7-.8.3-4 1.1-7 1.8s-8.4 1.9-12 2.8c-3.6.8-9.4 2.2-13 3-3.6.8-9.2 2.2-12.5 3-3.3.8-8.9 2.2-12.5 3-3.6.9-12.8 3.2-20.5 5.2-7.7 1.9-16 4-18.5 4.5-2.5.6-5.2 1.3-6 1.6-.8.4-3.7 1.2-6.5 1.9-2.7.7-7.7 2-11 2.9-14.6 4-17.3 4.7-21.5 5.6-2.5.6-5.4 1.4-6.5 1.9-1.1.5-3.9 1.4-6.2 2-2.4.5-6.2 1.5-8.5 2-2.4.6-5.2 1.4-6.3 1.9-1.9.9-6.2 2.1-15 4.2-2.2.5-4.9 1.3-6 1.8-2 .9-7 2.3-15.5 4.3-2.5.6-4.9 1.4-5.5 1.8-.5.4-2.6 1.1-4.5 1.4-1.9.4-4.4 1.1-5.5 1.6-3.1 1.3-15.7 5-17.2 5-.7 0-2.1.4-3.1.9-2.8 1.6-14 5.1-16.1 5.1-1.1 0-2.2.4-2.5.9-.4.5-2.4 1.2-4.6 1.6-2.2.4-4.2 1-4.5 1.5-.3.4-2.1 1.1-4.1 1.5-2 .3-4.4 1-5.3 1.5-.9.5-9.2 3.3-18.6 6.4-22.6 7.4-25.7 8.5-27.5 9.5-.9.5-3.1 1.2-5 1.6-1.9.4-3.9 1-4.5 1.4-1.2.7-3.9 1.7-15 5.6-4.4 1.5-8.4 3.1-9 3.5-.5.4-2.6 1.1-4.5 1.5-1.9.4-3.9 1.1-4.5 1.5-.5.3-3.9 1.7-7.5 3s-6.9 2.7-7.5 3.2c-.5.4-1.6.8-2.5.8-.8.1-3.3.9-5.5 2s-4.7 1.9-5.5 2c-.9 0-2 .4-2.5.8-.6.4-3.7 1.8-7 3.1-3.3 1.2-6.9 2.7-8 3.2-1.1.4-4.5 1.8-7.5 2.9-3 1.1-6.4 2.5-7.5 3-1.1.5-4.5 1.9-7.5 3-3 1.2-6.4 2.6-7.5 3-15.3 6.4-36.4 15.3-38 16-1.1.5-5.8 2.5-10.5 4.5s-9.8 4.3-11.5 5c-1.6.7-6.8 3-11.5 5-4.7 2.1-12.3 5.5-16.8 7.6-4.6 2.2-8.6 3.9-8.7 3.9-.2 0-4.3 1.8-9.2 4.1-4.8 2.2-11.5 5.3-14.8 6.9-3.3 1.5-11.8 5.5-19 8.9-7.1 3.5-15.2 7.2-18 8.4-5.4 2.3-64 31.7-82 41.1-13.9 7.3-15.5 9-15.5 16.2 0 5.2 1.5 10.1 5.8 19.4 1.7 3.8 7 10 8.5 10 .5 0 5.4 2.7 10.8 5.9 5.4 3.3 14 7.4 19.1 9.1 5.1 1.8 11.1 4 13.3 4.9 2.2 1 6 2.6 8.5 3.5 2.5 1 6.8 2.9 9.5 4.1 2.8 1.3 9.7 4.4 15.5 7 5.8 2.6 13.2 6 16.5 7.5 3.3 1.5 11.6 5.4 18.5 8.5 29.3 13.4 89.5 43.4 117.5 58.7 6.6 3.6 14.5 7.9 17.5 9.5 3 1.6 8.6 4.7 12.4 6.9 13 7.4 14.1 8.1 20.1 11.3 3.3 1.8 6.5 3.7 7 4.1.6.4 3.5 2.1 6.5 3.7 5 2.8 8.2 4.6 18.6 10.8 1.8 1.1 5.9 3.5 9.1 5.4 3.2 1.8 15.6 9.2 27.6 16.5 12.1 7.2 22.6 13.5 23.6 14.1 2.2 1.3 21.6 13.6 24.9 15.7 1.5 1 3.8 2.3 5.2 3 1.4.7 4.1 2.5 6.1 4s4 2.8 4.4 2.8c.3 0 2.1 1 3.8 2.3 1.8 1.2 4.1 2.7 5.2 3.4 1.1.7 6.3 4 11.5 7.3s10.4 6.6 11.5 7.3c1.1.7 3.6 2.4 5.6 3.9 2 1.6 4 2.8 4.4 2.8.4 0 2.4 1.3 4.5 3 2.1 1.6 4.1 3 4.5 3 .4 0 2.4 1.3 4.5 3 2.1 1.6 4.1 3 4.5 3 .4 0 2.4 1.3 4.5 3 2.1 1.6 4.1 3 4.5 3 .4 0 2.4 1.3 4.5 3 2.1 1.6 4.1 3 4.5 3 .4 0 2.4 1.3 4.4 2.8 2 1.6 4.3 3.2 5.1 3.5.8.4 4.7 3 8.5 5.8 3.9 2.8 9.3 6.6 12 8.4 2.8 1.8 9 6.3 13.8 9.9 4.9 3.6 9.1 6.6 9.3 6.6.3 0 2.7 1.7 5.4 3.7 2.6 2.1 7.2 5.4 10 7.3 6.4 4.4 14.9 10.6 21.7 15.9 2.8 2.3 5.5 4.1 5.8 4.1.4 0 2.8 1.8 5.4 4 2.6 2.2 5.1 4 5.5 4 .4 0 3.2 1.9 6.2 4.2 12.1 9.6 18.6 14.5 23.9 18.3 3.1 2.2 8.7 6.5 12.5 9.5 3.8 3 9.7 7.5 13 10 3.4 2.5 9.4 7.2 13.5 10.5s14 11.2 22.1 17.5c8 6.3 18.1 14.4 22.4 18 4.4 3.6 11.5 9.4 16 13 4.4 3.6 11.3 9.4 15.2 12.9 4 3.5 8.4 7 9.8 7.9 1.4.9 6.1 4.8 10.6 8.7 23.1 20.1 27.9 24.2 30.3 25.9 1.4 1.1 7.6 6.5 13.7 12 6.2 5.6 13.8 12.3 17 15.1 3.2 2.7 9 7.9 13 11.5 26.1 23.6 28.2 25.3 36 28.4 5.7 2.3 7.7 2.7 12.1 2.1 2.9-.3 5.5-1 5.8-1.5.3-.4 2.4-1.1 4.7-1.5 5.3-.9 11.9-7.4 17.1-16.7 3.2-5.7 3.7-7.5 3.7-13.1 0-3.6-.5-8.7-1-11.4-.9-4.2-2-24-3.6-65.8-.3-6.6-.9-26-1.4-43-.5-17.1-1.4-34.8-1.9-39.5-.6-4.7-1.3-15.5-1.6-24-.4-8.5-1-17.5-1.6-20-.5-2.5-1.3-18.2-1.8-35s-1.2-32.8-1.6-35.5c-1.3-9-1.1-213.8.3-226 .6-6.1 1.7-22.9 2.2-37.5 1.1-27.1 2.6-51.8 5.4-85.5.9-10.5 1.7-21.5 2-24.5.3-5.2 1.9-21.4 5.1-51.5 2.4-23.1 5.6-49.6 9-75.5.9-6.3 2.2-16.5 3-22.5.8-6.1 2.2-16 3.1-22 .8-6.1 1.6-12.8 1.7-15 .1-5.8-2.5-13.8-5.9-17.8-1.6-2-3.7-4.6-4.6-6-1.8-2.6-11.3-9.4-16.1-11.5-3-1.3-11.9-1.6-13.1-.5zM4154.5 1987.7c-2.2.2-4.4.8-5 1.3-.5.4-2.9 1.1-5.2 1.5-3.4.5-4.9 1.6-8 5.3l-3.8 4.7.3 64.5c.2 36.9.7 67.9 1.3 72.5.6 4.7.9 20.3.6 38-.4 29.7-.8 34.4-5.1 57-.8 4.4-2 10.9-2.6 14.5-.6 3.6-1.5 7.4-2 8.5-.5 1.1-1.3 4.5-1.9 7.5-1.4 7.7-3.6 17.2-4.4 19-.3.8-1 3.5-1.6 6-2.2 9.7-3.6 14.9-4.4 15.6-.4.4-.7 1.5-.7 2.4 0 1.7-3.4 13.8-5 17.5-.4 1.1-2.5 6.7-4.5 12.5-2.1 5.8-4.4 11.9-5.1 13.7-.8 1.7-1.4 3.6-1.4 4.1 0 .6-.6 2.3-1.4 3.9-1.6 3.2-2.7 5.7-5.4 12.8-2.5 6.3-8.9 22.1-10.7 26-.7 1.6-2.7 6.4-4.5 10.5-1.7 4.1-3.8 8.9-4.5 10.5-.7 1.7-2.2 5-3.3 7.5-3.3 7.7-7.2 16-12.8 27.8-3 6.2-5.4 11.4-5.4 11.7 0 .2-2.7 6.2-6.1 13.2-7.4 15.4-10.2 21.5-16.4 35.3-2.6 5.8-5.8 12.7-7 15.5-5.2 11.2-9.8 22.3-11.8 28-2.6 7.3-2.8 19.2-.4 24.5 1.8 4 20.2 22 22.6 22 .5 0 1.4.7 2.1 1.5 1.6 1.9 17.1 9.2 22.3 10.6 2.3.6 6.9 1.6 10.2 2.4 12.8 2.7 30.2 6.6 34.5 7.7 2.5.6 7.7 1.7 11.5 2.4 16.2 3 19 3.7 19.9 4.5.6.5 1.9.9 2.9.9s3.3.6 5 1.4c5.1 2.3 26.1 8.6 28.6 8.6.9 0 2.1.4 2.6.9.6.5 3 1.4 5.5 1.9 8.9 2.1 13.5 3.3 15 4.1.9.5 3.1 1.2 5 1.6 1.9.4 4 1.1 4.5 1.5.6.4 2.7 1.1 4.9 1.4 2.1.4 4.6 1.1 5.5 1.6 2.2 1.1 15.3 5 16.7 5 .7 0 2.5.7 4 1.5 1.6.8 3.9 1.5 5.1 1.5 1.2 0 2.4.4 2.7.9.4.5 2.4 1.2 4.6 1.6 2.2.4 4.2 1 4.5 1.5.3.4 2.1 1.1 4.1 1.5 2 .3 4.4 1 5.3 1.5.9.4 10.8 3.8 22.1 7.5 11.3 3.6 21.4 7 22.5 7.5 1.1.4 5.4 2 9.5 3.3 11.4 3.9 33.3 11.6 35.5 12.6 1.1.5 4.9 1.9 8.5 3.1 3.6 1.2 7.9 2.8 9.5 3.5 1.7.7 8.9 3.4 16 6 7.2 2.7 13.4 5.2 14 5.7.5.4 1.5.8 2.3.8.8 0 2.8.6 4.5 1.4 1.8.8 16.9 6.9 33.7 13.6 16.8 6.7 31.9 12.7 33.5 13.4 1.7.7 5.5 2.3 8.5 3.6 3 1.2 6.9 2.8 8.5 3.5 1.7.7 11.8 5 22.5 9.5 10.7 4.6 19.9 8.6 20.5 9.1.5.5 1.4.9 2.1.9.7 0 4.7 1.6 9.1 3.6 12.4 5.7 19.1 8.6 27.9 12.4 2.3 1 6.5 2.9 9.5 4.3s10.1 4.6 15.9 7.2c5.8 2.6 14.2 6.5 18.8 8.6 4.5 2.2 8.4 3.9 8.6 3.9.2 0 6.1 2.8 13.2 6.1 7.1 3.4 17.6 8.4 23.4 11.1 52 24.6 148.5 73.2 195 98.3 6.9 3.7 16.3 8.8 21 11.2 4.7 2.5 13.9 7.5 20.5 11.1 6.6 3.6 13.8 7.5 16 8.7 2.2 1.2 8.3 4.6 13.5 7.5 5.2 2.9 11.3 6.3 13.5 7.6 5 2.7 16.9 9.4 21.5 12.1 3.2 1.8 9 5.1 24.8 14 12.9 7.3 14.8 8.4 16.2 9.3 1.2.8 7.9 4.7 21.5 12.4 2 1.2 11.6 6.9 14.5 8.6.8.5 6 3.5 11.5 6.7s10.7 6.2 11.6 6.8c7.6 4.7 10 5.5 16.8 5.5 6.6 0 9.9-.9 17.1-4.5 3.1-1.6 7.8-10.5 11.6-21.9 1.3-3.9 1.4-5.7.5-8.5-.6-2-1.5-5.9-2-8.6-.6-2.8-1.7-7.9-2.5-11.5-.8-3.6-2-8.8-2.6-11.5-.6-2.8-1.5-5.8-2-6.7-.6-1-1-2.7-1-3.8 0-1-.6-3.9-1.4-6.2-.8-2.4-2.4-7.7-3.5-11.8-1.2-4.1-2.6-8.2-3-9-.5-.9-1.2-4-1.5-7-.4-3-1.1-6.4-1.6-7.5-.5-1.1-1.4-4.7-1.9-8-1.9-11-3.6-19-4.2-20-.4-.6-1-3.9-1.4-7.5-.4-3.5-1.1-7.1-1.6-8-.4-.8-1.3-4.4-1.8-8-.5-3.6-1.9-11.5-3.1-17.5-1.1-6.1-2.7-14.8-3.6-19.5-.8-4.7-2.2-12.1-3-16.5-1.8-9.7-4-22-5.9-33.5-.8-4.7-2.1-12.6-3-17.5-3.7-21.2-9.8-60.9-11.8-76.5-.7-5.2-1.5-10-1.8-10.5-.4-.6-1-5.3-1.4-10.5-.4-5.2-1.1-10-1.5-10.5-.4-.6-1-3.7-1.3-7-.3-3.3-1.2-7.4-2.1-9-.9-1.7-1.6-3.5-1.6-4.2 0-.6-.6-2.4-1.4-4-2.2-4.2-6.6-14.3-6.6-15 0-.3-1.3-3.4-3-6.9-1.6-3.5-4.4-9.4-6.2-13.2-2.7-5.7-11-20.9-15.1-27.6-.7-1.1-2.6-4.3-4.4-7.1-2.7-4.4-33.5-35.8-48.7-49.6-2.6-2.4-9.2-8.5-14.5-13.5-22.6-21.3-30.1-28.2-36-33.3-3.5-3-11.1-10-17-15.5-5.9-5.6-13.3-12.4-16.6-15.1-3.2-2.8-8.6-7.5-12-10.5-3.4-3-8.6-7.6-11.6-10.2-3-2.6-9.2-8-13.8-12-4.5-4-9.6-8.2-11.1-9.3-1.5-1.1-6.4-5.2-10.8-9-13-11.2-33.1-28-51.7-43-4.8-3.9-11.7-9.5-15.4-12.5-3.7-3-7.4-6-8.3-6.5-.8-.6-4.3-3.3-7.7-6-8.9-7.3-19.2-15.4-26.1-20.5-3.4-2.5-9-6.9-12.5-9.8-3.5-2.8-6.6-5.2-7-5.2-.3 0-3.1-1.9-6-4.3-3-2.3-10.6-8-17-12.7-6.4-4.7-14-10.3-17-12.5-3-2.2-8-5.8-11-8-3.1-2.2-7.8-5.7-10.4-7.8-2.7-2-5.2-3.7-5.6-3.7-.4 0-2.9-1.8-5.5-4s-5.1-4-5.5-4c-.4 0-2.6-1.5-4.8-3.3-2.3-1.7-4.9-3.7-5.9-4.2-1-.6-9.1-6.2-18-12.5-9-6.3-27.8-19.2-41.8-28.5-21.9-14.7-30.2-20.1-43.5-28.5-1.4-.8-8.8-5.6-16.5-10.5-7.8-5-14.9-9.5-15.8-10-.9-.6-4.6-2.8-8.2-5-3.6-2.2-7.3-4.5-8.2-5-1-.6-7.6-4.6-14.8-9-7.1-4.4-13.8-8.5-14.8-9-2.8-1.6-9.4-5.6-13.2-8-5.6-3.5-39.9-23.5-40.3-23.5-.3 0-4.7-2.5-9.8-5.6-5.2-3.1-10.1-5.9-10.9-6.2-.8-.3-2.6-1.3-4-2.2-1.4-.9-5-3-8-4.7-6.8-3.7-13.9-7.7-20.5-11.3-26.1-14.6-61.3-32.4-116-58.6-10.3-4.9-15.7-5.9-26-4.7z" style="stroke:none;fill:#004aad"/><path d="M443.4 2287.3c-2.8 2.5-2.9 2.7-2.9 12 .1 5.2.6 10.1 1.2 10.9.6.7 1.4 3.1 1.7 5.3.4 2.2 1.4 6 2.1 8.5.7 2.5 2 7 2.8 10 4.1 15 10.4 36.9 14.3 49.5.8 2.7 2 6.8 2.5 9 .6 2.2 1.4 4.9 1.8 6 1.5 3.9 3.9 12.1 4.6 15.5.4 1.9 1.1 3.9 1.5 4.5.5.5 1.1 3.1 1.5 5.8.4 2.6 1.1 5 1.6 5.3.5.3.9 1.4.9 2.5 0 2.6 3.6 13 7.2 20.9 1.6 3.6 3.4 7.4 3.9 8.5.5 1.1 2.7 6 4.9 11 2.3 4.9 5.1 11.2 6.3 14 2.9 6.5 36.9 74.4 40.8 81.5 1.6 3 4.4 8 6.1 11 1.8 3 3.9 6.8 4.8 8.5 6.3 11.6 20.5 36.1 30.2 52 7.8 12.9 18.8 30.4 31.6 50.2 3.5 5.4 6.8 10.7 7.5 11.8.7 1.1 2.4 3.6 4 5.6 1.5 2 2.7 4 2.7 4.4 0 .4 1.4 2.4 3 4.5 1.7 2.1 3 4.1 3 4.5 0 .4 1.4 2.4 3 4.5 1.7 2.1 3 4 3 4.3 0 .6 10.9 16.1 17.2 24.7 1.8 2.4 3.5 4.9 3.7 5.5.2.5 1.9 2.9 3.7 5.2 1.9 2.3 3.4 4.4 3.4 4.8 0 .3 1.8 2.8 4 5.4 2.2 2.6 4 5.1 4 5.6 0 .4 2 3.2 4.5 6.1 2.5 2.8 4.5 5.5 4.5 5.9 0 .3 1.9 3.1 4.3 6.1 4.4 5.7 10.6 13.6 19.7 25.5 14.2 18.4 26.9 33.7 39.5 48 4.4 5 8.7 10.1 9.5 11.3 4.5 6.9 53.5 58.3 67.1 70.5 5.3 4.7 15.5 14 22.6 20.6 16.5 15.2 38.7 34 57 48.3 19.9 15.5 25.6 19.8 37.6 28.5 3.2 2.3 8 5.9 10.7 7.9 2.7 2.1 5.3 3.8 5.8 3.8s1.5.6 2.1 1.4c1 1.2 9.7 7.5 17.5 12.6 1.3.8 5.6 3.7 9.5 6.5 4 2.7 8 5.4 8.9 6 .9.5 3.3 2.2 5.3 3.7 2 1.6 4 2.8 4.3 2.8.5 0 21.6 13.5 29.6 18.9 1.4 1 3.2 2 4 2.4.8.4 4.2 2.5 7.5 4.6 3.3 2.2 15.2 9.5 26.5 16.3 11.3 6.7 21.2 12.7 22.1 13.3.9.5 3.8 2.2 6.5 3.8 2.7 1.5 5.6 3.1 6.4 3.6 4.2 2.6 19.2 11.3 24.5 14.2 12.4 6.7 14.1 7.7 19.5 10.9 3 1.8 9.3 5.3 14 7.7 4.7 2.5 9 4.9 9.5 5.3.6.4 5.3 3 10.5 5.8 5.2 2.7 16.5 8.6 25 13.1 23.3 12.4 96.5 48.1 98.4 48.1.3 0 5.9 2.5 12.3 5.6 6.5 3.1 13.6 6.4 15.8 7.4 3.5 1.5 12 5.2 25 11 2.2 1 6.9 3 10.5 4.4 3.6 1.5 7.4 3.1 8.5 3.6 1.1.5 7.6 3.2 14.5 6s13.4 5.5 14.5 6c1.1.4 4.7 1.9 8 3.1 3.3 1.3 6.4 2.7 7 3.1.5.4 1.6.8 2.5.8.8.1 3.3.9 5.5 2s4.7 1.9 5.6 2c.8 0 1.9.4 2.5.8.5.5 5.6 2.6 11.4 4.6 5.8 2.1 11.4 4.2 12.5 4.7 2.2 1 15.5 5.8 25 9 3.3 1.1 6.9 2.4 8 2.9 6 2.5 36.7 12.8 47.5 16 4.1 1.2 8.4 2.5 9.5 3 1.1.5 4.5 1.3 7.5 1.9 9.9 1.9 17.5 3.6 18.5 4.2.6.4 3.5 1 6.5 1.4 3 .4 6 1 6.5 1.4.6.3 3.5 1.1 6.5 1.8 3 .6 8.7 1.9 12.5 2.8 3.9.9 9.7 2.2 13 2.9 3.3.7 6.7 1.5 7.5 1.9 1.4.6 4.7 1.3 18 3.9 3 .6 6 1.4 6.5 1.8.6.4 3.5 1.1 6.5 1.5 3 .4 6.1 1.1 7 1.6.8.4 4 1.3 7 1.8 3 .6 8.4 1.7 12 2.5 14 3.3 20.7 4.8 26 5.7 3 .6 6.2 1.3 7 1.7.8.3 4.4 1.1 8 1.8 3.6.7 9.7 2 13.5 2.8 3.9.9 9.7 2 13 2.6 3.3.6 6.9 1.5 8 2 1.1.5 5.2 1.3 9 1.9 3.9.6 12 2 18 3.1 31.7 5.9 88.4 14.4 123.5 18.6 65.7 7.8 105.9 11.5 229 20.9 28.3 2.2 54 4.3 74.5 6 94.3 8.1 175.6 13.7 198.5 13.8 18.6.1 29.5-3.4 41.4-13 10-8.2 11.4-10.8 12.5-24.8 1.8-20.9 4.3-44 8.5-78.5.7-6.3 1.5-11.5 1.6-11.5.1 0 .8-4.7 1.6-10.5 1.3-10.4 2.9-21.4 5.9-40 .8-5.2 2.1-13.8 2.9-19 .8-5.2 1.7-10.9 2-12.5.4-1.7 1.4-6.8 2.2-11.5.9-4.7 2.2-11.9 3-16 .8-4.1 1.9-10.2 2.5-13.5.5-3.3 1.3-6.7 1.6-7.5.4-.8 1.2-4.4 1.9-8 .7-3.6 2-9.4 2.8-13 .8-3.6 2.2-9.4 3-13 4.2-18.3 4.4-19.3 9-37.8 3.4-13.4 4.6-18 5.6-22.7.6-2.8 1.4-5.7 1.7-6.5.4-.8 1.2-3.8 1.9-6.5.7-2.8 1.9-7.5 2.8-10.5 2.2-8 4.3-15.9 5.6-21 .6-2.5 1.5-5.2 1.9-6 .5-.9 1.2-3.6 1.6-6 .4-2.5 1.2-5.3 1.7-6.3s1-5.4 1-9.8c.1-7.1-.1-8.2-2.3-10.6-3.4-3.7-11.6-7.3-16.8-7.3-2.4 0-6-.4-8-1-2-.5-13.3-1.5-25.1-2-66.6-3.4-107.3-5.9-117.5-7.3-1.6-.3-9.3-1-17-1.6-7.7-.7-14.7-1.5-15.5-1.8-.8-.3-7.1-1.2-14-2-25-2.8-41.8-5-66.5-8.7-5.5-.8-14.5-2.2-20-3-5.5-.8-14.2-2.2-19.2-3.1-22.8-3.7-27.3-4.5-35.3-5.9-4.7-.8-11.6-2-15.5-2.6-3.8-.6-7.9-1.5-9-2-1.1-.5-4.9-1.3-8.5-1.9-8.7-1.4-21.5-3.8-21.5-4.1 0-.1-3.1-.8-7-1.6-12.1-2.3-19.9-4-21.5-4.7-.8-.3-4.1-1-7.2-1.6-3.2-.6-8.4-1.6-11.5-2.2-3.2-.5-6.7-1.4-7.8-1.9-1.1-.5-4.5-1.3-7.5-1.9-3-.6-8.6-1.7-12.5-2.6-3.8-.9-9.5-2.2-12.5-2.8-3-.7-5.9-1.5-6.5-1.9-.5-.3-3.2-.9-6-1.3-2.7-.4-5.4-1-6-1.4-.5-.3-3.5-1.1-6.5-1.8-3-.6-9.5-2.1-14.5-3.3-4.9-1.2-11.7-2.8-15-3.6-3.3-.8-8.7-2.1-12-3-3.3-.8-8.2-1.9-11-2.5-2.7-.5-5.9-1.4-7-1.9-1.1-.5-4-1.2-6.5-1.6-2.5-.3-4.9-.9-5.5-1.3-.5-.3-3.2-1.1-6-1.8-7.3-1.7-16.2-3.9-23-5.8-3.3-.9-8-2-10.5-2.6-2.5-.5-5.2-1.4-6-1.8-.9-.5-3.6-1.2-6-1.6-2.4-.4-5.1-1.1-6-1.6-.8-.4-3.5-1.3-6-1.9-2.5-.6-6.9-1.8-9.7-2.6-2.9-.7-7.7-2.1-10.5-2.8-2.9-.8-7.3-2-9.8-2.6-2.5-.7-5.4-1.6-6.5-2.1-1.1-.5-3.8-1.3-6-1.8-8.8-2.1-13.1-3.3-15-4.2-1.1-.5-3.8-1.3-6-1.8-2.2-.6-6.2-1.7-9-2.5-4.8-1.4-16.9-4.9-28.5-8.2-3-.9-6.6-1.9-8-2.4-1.4-.5-5.9-1.8-10-3-9.5-2.6-20.8-5.9-24-7-1.4-.5-5.9-1.8-10-3s-10.6-3.3-14.5-4.5c-3.8-1.3-10.4-3.3-14.5-4.5-4.1-1.2-8.4-2.5-9.5-3-1.1-.5-7.4-2.5-14-4.5s-12.7-4-13.5-4.4c-.9-.5-3.1-1.2-5-1.6-1.9-.4-4.1-1.1-5-1.6-.8-.4-8.9-3.1-18-6-19.9-6.2-33.8-10.8-36.5-11.9-1.1-.4-9.6-3.3-19-6.4-9.3-3-23.5-7.8-31.5-10.6s-18.3-6.3-23-8c-4.7-1.6-13-4.5-18.5-6.5-5.5-1.9-12.7-4.5-16-5.6-3.3-1.1-6.9-2.4-8-2.9-1.1-.4-4.9-1.8-8.5-3-3.6-1.2-7.4-2.5-8.5-3-5-1.9-13.7-5.1-22-8-11.1-3.9-12.1-4.3-16.8-6.4-2.1-.9-4.2-1.6-4.8-1.6-.6 0-2.5-.6-4.2-1.4-1.8-.7-5.9-2.3-9.2-3.5-5.6-2.1-11.4-4.3-16-6.1-1.1-.5-4.7-1.8-8-3-7.9-2.9-13.3-5-17-6.5-1.6-.7-4.8-2-7-2.9-24.4-9.4-38.2-14.9-38.9-15.7-.6-.5-1.6-.9-2.4-.9-1.1 0-5.5-1.7-12.7-5-1.1-.5-4.5-1.9-7.5-3s-6.4-2.5-7.5-3c-5.4-2.4-11.4-5-11.9-5-.3 0-2.9-1.1-5.8-2.4-2.9-1.4-12.5-5.5-21.3-9.1-8.8-3.7-17.3-7.3-19-8-1.6-.8-6.4-2.8-10.5-4.5-4.1-1.8-8.2-3.6-9.1-4-.9-.5-6-2.7-11.4-5-10.8-4.6-17.7-7.7-27.2-12.1-3.5-1.6-6.5-2.9-6.9-2.9-.5 0-5.5-2.3-20.9-9.5-2.7-1.3-7.2-3.3-10-4.5-4.9-2.2-10.8-4.9-27.6-12.8-4.7-2.3-11.9-5.6-16-7.5-10-4.6-25.8-12.2-47.4-22.7-9.9-4.8-22.3-10.7-27.5-13.1-11.3-5.2-137.1-68.2-145-72.6-3-1.7-10.4-5.6-16.5-8.8-27.9-14.6-48.1-25.4-62.5-33.5-5.2-2.9-12.1-6.7-15.3-8.4-7.6-4.1-10.3-5.6-15.7-8.7-4.3-2.6-11.3-6.4-21-11.7-2.5-1.3-5-2.8-5.7-3.4-.7-.5-2.7-1.7-4.5-2.7-5.7-3-14.1-7.7-19.8-11.1-3-1.8-7.7-4.5-10.5-6-4.4-2.4-13.6-7.8-43.5-25.3-4.7-2.7-9.8-5.7-11.5-6.7-1.6-.9-10.2-6-19-11.2-15.9-9.4-27.1-16.1-31-18.2-3.2-1.8-13.3-7.9-17.3-10.4-2.1-1.2-5.3-3.1-7.2-4.2-1.9-1.2-5.2-3.1-7.2-4.3-2-1.2-6.7-4-10.5-6.1-5.8-3.4-57.4-34.5-65.8-39.7-1.6-1-4.6-2.8-6.5-3.9-3.8-2.2-6.7-3.9-19.5-11.7-7.1-4.3-9.7-5.4-14.9-5.9-5.7-.6-6.5-.4-9.2 1.9zM4021.7 2713.6c-.4.5-3.6 1.1-7 1.5-6.1.6-11.6 3.3-23.8 11.6-4.5 3-8.8 11.7-10.7 21.8-1.8 9.1-2.6 24.3-1.4 25.8.5.7 1.3 2.8 1.7 4.7.4 1.9 1.1 3.9 1.5 4.5.4.5 1.1 2.6 1.5 4.5.4 1.9 1.1 3.9 1.5 4.5.4.5 1.1 2.6 1.5 4.5.4 1.9 1.1 3.9 1.5 4.5.4.5 1.1 2.6 1.5 4.5.4 1.9 1.1 4.1 1.5 5 .5.8 1.6 3.7 2.5 6.5 1 2.7 2.3 6.3 3 8 .7 1.6 2.5 6.4 4 10.5s3.9 10.4 5.3 14c1.3 3.6 3.5 9.2 4.7 12.5 3.8 10.3 13.6 35.9 15 39 .7 1.6 2.1 5.2 3 8 1 2.7 2.1 5.4 2.5 6 .4.5 1.7 3.9 3 7.5s2.6 6.9 3 7.5c.4.5 1.7 3.9 3 7.5s2.6 6.9 3 7.5c.4.5 1.7 3.9 3 7.5s2.6 6.9 3 7.5c.4.5 1.7 3.9 3 7.5s2.6 6.9 3 7.5c.4.5 1.5 3.2 2.5 6 1 2.7 2.5 6.8 3.5 9 .9 2.2 2.5 6 3.4 8.5 1 2.5 2.5 5.8 3.2 7.5 1.3 2.9 5.4 13 15 36.7 2.5 6.2 5.1 12.6 5.9 14.3.8 1.6 2.3 5.5 3.5 8.5 1.2 3 2.5 6.2 3 7.1.5.9 2.5 5.6 4.4 10.5 2 4.9 4.1 9.8 4.6 10.9 5.4 12.1 7 15.7 7 16.2 0 .3.6 1.9 1.4 3.6.8 1.8 2.8 6.3 4.5 10 1.7 3.8 3.1 7.1 3.1 7.3 0 .4 1.8 4.6 5 11.9.5 1.1 1.9 4.2 3 7 1.2 2.7 3.2 7.2 4.5 10 1.2 2.7 3.3 7.5 4.5 10.5 2.6 6.3 4.4 10.5 9.3 21 1.9 4.1 5.3 11.8 7.5 17 2.2 5.2 4.8 10.8 5.6 12.5.9 1.6 1.6 3.3 1.6 3.7 0 .7 4.3 10.1 11.1 24.5 2.1 4.4 3.9 8.4 3.9 8.7 0 .3 2.1 5 4.6 10.3 2.5 5.4 5.8 12.5 7.4 15.8 1.5 3.3 6.3 13.4 10.5 22.5s8.9 19.2 10.5 22.5c1.6 3.3 4.9 10.3 7.3 15.5 21.7 46.4 80.8 165 108.2 217 5.9 11.3 12.9 24.5 15.5 29.5 2.6 4.9 8 15.1 12 22.5s9.2 17.1 11.5 21.5c6.4 12 10.4 19.5 13.5 25 1.6 2.7 3.9 7 5.2 9.5 6.5 12 10.3 18.8 12.5 22.2 1.2 2.1 2.3 4 2.3 4.3 0 .5 15.2 27.8 17 30.5.5.8 2.3 4 4 7 1.6 3 4.3 7.7 5.8 10.5 1.6 2.7 4.2 7.2 5.7 10 3.3 5.9 6.5 11.3 8.3 14 .7 1.1 1.8 3.1 2.5 4.5.6 1.4 3.8 6.9 7 12.2 3.1 5.3 5.7 10 5.7 10.4 0 .4.6 1.5 1.4 2.3.8.9 2.4 3.4 3.7 5.6 1.2 2.2 2.7 4.9 3.3 6 1.8 3.1 7.8 13.3 10.4 17.3 1.2 2.1 3.1 5.3 4.2 7.2 1.1 1.9 3.2 5.3 4.5 7.5 1.4 2.2 3.4 5.6 4.5 7.5 1.2 1.9 3.2 5.3 4.5 7.5 1.3 2.2 3.3 5.6 4.5 7.5 1.1 1.9 4.3 7.1 7.1 11.5 2.7 4.4 6.4 10.4 8.2 13.3 1.8 3 4 6.6 4.9 8 1 1.5 2.7 4.3 3.8 6.2 1.1 1.9 3.8 6.2 6 9.5s4.3 6.7 4.7 7.6c.6 1.2 24.1 38.7 30.3 48.4 5.2 8.1 14.7 22.9 15.5 24.3 2.1 3.5 15.4 23.7 34.4 52 10.8 16.2 20.1 30.1 20.6 31 .6.9 2.2 3.3 3.8 5.3 1.5 2 2.7 4 2.7 4.4 0 .4 1.2 2.4 2.8 4.4 1.5 2 3.2 4.4 3.7 5.3.6.9 3 4.5 5.4 8 2.4 3.5 7.3 10.6 10.9 15.8 3.5 5.2 7.1 10.3 8 11.3.8.9 2 2.6 2.6 3.7.6 1.1 2.9 4.5 5.2 7.7 10.8 15.5 15.9 22.8 22.1 31.5 3.8 5.5 4.8 6.9 11.3 15.5 2.2 2.9 4 5.6 4 6 0 .3 1.8 2.8 4 5.4 2.2 2.6 4 5.1 4 5.5 0 .4 1.6 2.6 3.5 5 1.9 2.3 3.5 4.6 3.5 5 0 .4 1.8 3 4 5.8 4.8 6 10.4 13.6 18 24.1 3 4.2 7.8 10.5 10.5 14 2.8 3.5 6.8 8.9 9 11.9 2.2 3.1 6.3 8.5 9 12.1 2.8 3.5 7.2 9.3 9.8 12.7 20.9 27.4 24.6 32.2 30.2 39 2.8 3.3 5.7 7.1 6.5 8.3 2.4 3.7 9.1 12.1 15.8 19.9 3.4 4 6.2 7.8 6.2 8.3 0 1.7 5.5 6.1 8.5 6.9 1.7.4 3.5 1 4 1.4.6.5 2.8 1.1 5 1.5 2.2.4 4.5 1.2 5.2 1.7.6.5 4.9 1.1 9.5 1.5 8 .5 8.5.4 14.8-2.8 7.1-3.6 19-12.7 21.3-16.2 1.2-1.9 9-20.9 11.9-29.2.6-1.7 1.7-4.4 2.3-6 2.9-7.1 17.1-46 18-49.5.3-1.4 1-3.4 1.5-4.5.4-1.1 2.5-6.7 4.5-12.5s4-11.2 4.5-12c.4-.9 1.1-3.1 1.5-5 .4-1.9 1.1-4 1.5-4.5.4-.6 1.1-2.6 1.5-4.5.4-1.9 1.1-4 1.5-4.5.4-.6 1.1-2.6 1.5-4.5.4-1.9 1.1-4.1 1.6-5 .4-.8 1.8-4.9 3-9 1.1-4.1 4.1-13.5 6.5-20.7 2.4-7.3 4.4-14.1 4.4-15.2 0-1.1.4-2.2.9-2.5.5-.3 1.2-2.2 1.6-4.2.3-2 1-4.4 1.5-5.3.5-.9 1.3-3.4 1.9-5.6.6-2.2 1.7-6.3 2.5-9 .8-2.8 2.2-7.4 3.1-10.3.8-2.8 2.2-7.6 3.1-10.5.9-2.8 2.2-7.5 2.9-10.2.8-2.8 2.3-8.4 3.5-12.5 2.8-9.9 4.9-17.6 6.1-22.5.5-2.2 1.2-4.7 1.6-5.5.4-.8 1.2-3.8 1.9-6.5.7-2.8 2-7.7 2.9-11 .9-3.3 2.1-8 2.6-10.5.6-2.5 1.4-5.4 1.9-6.5.8-1.9 1.4-4.1 4-16.3.6-2.6 1.5-5.4 1.9-6.2.5-.9 1.2-3.9 1.6-6.8.4-2.9 1.1-5.4 1.5-5.7.4-.3 1.1-2.9 1.5-5.8.4-2.8 1-5.7 1.4-6.2.3-.6 1.2-3.6 1.9-6.8 2.3-10.9 3.8-17.2 4.4-18.7.4-.8 1.1-4 1.8-7 .6-3 1.7-8.2 2.5-11.5.8-3.3 2.1-9 3-12.8.8-3.7 2.2-9.7 3-13.5.9-3.7 2.2-9.7 3-13.5 3.7-16.7 4.5-20.7 6-27.7 2.1-10 4.9-23.8 8.9-44 4.2-21.2 12.3-65.5 16.1-88.3 12.3-73.1 19-119.9 27.1-190.2 1.9-17.1 4.2-39.3 5.8-58.5.7-8.5 1.5-15.5 1.6-15.5.5 0 2.9-35 4.1-58 .5-11 1.4-22.3 1.9-25 1.5-7.6 3.3-66.4 3.3-107 0-34.8-.9-49.5-3.3-51.9-.6-.6-1-2-1-3.1 0-2.1-3.3-14.1-5-18-3-7.1-8.4-19.5-9.6-22.2-.8-1.7-1.4-3.5-1.5-4-.1-1.8-12.9-16.1-18.4-20.5-4.7-3.8-22.3-15.1-33.3-21.3-2.9-1.6-9.5-5.6-13.2-8-3.8-2.4-22.3-13.5-25.5-15.3-1.1-.6-8.1-4.7-15.6-9.1-7.6-4.5-14.1-8.1-14.7-8.1-.5 0-1.5-.6-2.1-1.4-.7-.8-3.1-2.4-5.4-3.5-2.3-1.2-4.9-2.6-5.7-3.1-.8-.5-5.5-3.3-10.5-6.1-4.9-2.8-10.6-6.1-12.5-7.2-3.8-2.2-7.2-4.1-34-19.2-4.1-2.3-10-5.6-13-7.2-3-1.7-9.3-5.2-14-7.8-4.7-2.6-10.7-6-13.5-7.5-2.7-1.5-9.3-5.1-14.5-8-5.2-3-12.6-7-16.5-9-3.8-2.1-14.4-7.7-23.5-12.5s-21.7-11.4-28-14.7c-6.3-3.3-11.9-6.3-12.5-6.7-2.2-1.7-90.1-45.8-118.5-59.5-16.8-8.1-34.5-16.7-39.5-19.1-4.9-2.4-15.5-7.4-23.5-11-8-3.7-17.6-8.1-21.5-10-3.8-1.8-11.3-5.2-16.5-7.5-5.2-2.4-12.2-5.6-15.5-7.1-3.3-1.5-9.8-4.4-14.5-6.4-4.7-2-9.8-4.3-11.5-5-1.6-.7-6.8-3-11.5-5s-10.3-4.5-12.5-5.5c-3.8-1.7-9.4-4.2-17.5-7.6-1.9-.9-4.4-1.9-5.5-2.4-9.4-4.1-11.5-5-11.9-5-.3 0-2.9-1.1-5.8-2.4-2.9-1.3-7.8-3.3-10.8-4.5-3-1.2-6.4-2.6-7.5-3.1-8.2-3.7-11.5-5-12.4-5-.5 0-2.2-.6-3.8-1.4-3.2-1.6-5.6-2.6-13.3-5.6-6.5-2.6-17.2-6.9-27.2-10.9-4-1.6-10-3.9-13.3-5.1-3.3-1.1-6.9-2.4-8-2.9-2.5-1.1-8.1-3.2-16-6.2-3.3-1.2-7.3-2.8-9-3.5-1.6-.7-5.5-2-8.5-3s-6.6-2.4-8-3.1c-1.4-.7-3.1-1.3-3.8-1.3-.7 0-2-.4-3-.9-.9-.5-4.6-1.9-8.2-3.1-3.6-1.2-7.4-2.6-8.5-3-1.1-.5-6.9-2.5-13-4.5-6-2-11.9-4.1-13-4.5-1.1-.5-9-3.2-17.5-6s-16.4-5.5-17.5-5.9c-1.1-.5-5.4-1.9-9.5-3.1-4.1-1.2-11.3-3.5-16-5.1-4.7-1.6-12.3-3.9-17-5.3-4.7-1.4-12.5-3.7-17.5-5.1-4.9-1.5-9.9-3-11-3.5-1.1-.5-3.6-1.2-5.5-1.6-1.9-.3-4.1-1-5-1.5-.8-.4-3.5-1.3-6-1.9-4.3-1-6.7-1.7-20.2-5.4-3.2-.9-8.4-2.3-11.5-3.2-12.4-3.4-17-4.6-22.5-6-3.2-.8-8.6-2.1-12-3-3.5-.8-8.8-2.1-11.8-2.8-3-.7-6.2-1.5-7-1.8-.8-.4-4.2-1.2-7.5-1.8-3.3-.6-9.1-1.8-13-2.6-10.1-2.2-13.9-2.7-14.8-1.8zM3170 2721.1c-2.5 1.1-5.2 2.2-6 2.5-.8.3-3.1 3.1-5.1 6.2-2 3.2-7.2 11.1-11.5 17.7-4.4 6.6-8.1 12.4-8.4 13-.3.5-2.7 4.4-5.5 8.5-6.5 9.9-7.8 11.9-14.8 23.5-.7 1.1-2.4 3.6-3.9 5.6-1.6 2-2.8 4-2.8 4.4 0 .4-1 2.1-2.2 3.8-1.3 1.7-2.7 3.9-3.3 4.8-.5.9-2.6 4.2-4.5 7.3-1.9 3.2-4.2 6.8-5 8.1-.8 1.3-6 9.5-11.4 18.2s-11.8 18.7-14.1 22.3c-2.3 3.6-7.5 12-11.6 18.8-4.1 6.7-8.1 13.3-8.9 14.6-2.5 4-8.4 14-9.3 15.6-.4.8-2 3.4-3.5 5.7-2.2 3.5-25.4 42-31.8 53-1.1 1.7-3.5 5.7-5.4 9-1.9 3.2-3.7 6.2-4 6.8-.5.9-3.9 6.8-9.7 16.3-1.2 2.1-2.5 4.4-2.9 5.2-.4.8-1.7 3.1-2.9 5s-3.3 5.5-4.7 8c-4.6 8.2-6.4 11.4-13.8 24-4 6.9-8.7 15.2-10.5 18.5-1.8 3.3-5.1 9.4-7.5 13.5-5.6 9.9-7.9 14.1-12.5 22.5-2 3.8-4.5 8.3-5.5 10-2.4 4.1-7.5 13.5-12.3 22.5-2.2 4.1-6.8 12.7-10.3 19.2-3.5 6.4-8.9 16.5-12 22.5-3.1 5.9-6 11.2-6.4 11.8-.6.8-17.8 34.3-32.4 63-4.2 8.4-26.6 54.7-26.6 55.1 0 .2-2.3 5.2-5.1 11.1-12.5 26.3-13.9 29.4-13.9 29.9s-2.4 5.8-11.6 25c-1.9 3.9-3.4 7.4-3.4 7.8 0 .4-1.6 4.2-3.6 8.4-3.7 8-3.9 8.4-7.4 16.7-2 4.7-3.1 7.1-7.9 17.7-1.1 2.4-3.8 8.8-6.1 14.2-2.3 5.4-4.5 10.6-5 11.5-.4.9-1.6 3.6-2.6 6.1-1 2.5-2.9 7-4.2 10-1.3 3-3.5 8.3-4.8 11.7-1.3 3.5-2.8 7.1-3.3 8-.5 1-1.9 4.3-3.1 7.3-1.3 3-2.6 6.4-3.1 7.5-.4 1.1-1.8 4.5-2.9 7.5-1.2 3-2.6 6.4-3 7.5-.5 1.1-1.9 4.5-3 7.5-1.2 3-2.6 6.4-3 7.5-.5 1.1-1.9 4.5-3.1 7.5-1.2 3-2.7 6.8-3.4 8.5-.7 1.6-2.1 5.2-3 8-1 2.7-2.1 5.4-2.5 6-.4.5-1.7 3.9-3 7.5s-2.7 6.9-3 7.5c-.4.5-1.1 2.6-1.5 4.5-.4 1.9-1.1 3.9-1.5 4.5-.3.5-1.7 3.9-3 7.4-1.3 3.6-4.5 10.2-7.1 14.8-5.3 9.6-9.2 19.8-11.1 29.3-1.7 8.7-1.7 39.7.1 47.5 5.2 23.8 19.3 46.9 42 68.7 6.1 5.9 11.1 11.1 11.1 11.7 0 1.3 10.9 10.3 29 24.1 8.3 6.3 18 13.7 21.5 16.5 3.5 2.7 9.4 7.2 13 10 3.5 2.7 9.4 7.2 13 10 3.5 2.7 9.4 7.2 13 10 3.5 2.7 9.4 7.2 12.9 10 3.6 2.7 9.5 7.2 13.1 10 3.7 2.7 9.5 7.2 12.8 9.9 4.3 3.5 7.4 5.2 10.6 5.8 2.5.5 5.9 1.2 7.4 1.5 1.6.3 3.8.1 5-.5 1.2-.6 3.7-1.5 5.6-2.1 3.6-1.2 57.9-36.9 60.1-39.6.7-.8 1.7-1.5 2.2-1.5.6 0 2.7-1.4 4.8-3 2.1-1.7 4.1-3 4.5-3 .7 0 6.1-4 16-11.8 3-2.3 5.7-4.2 6.1-4.2.3 0 3.6-2.4 7.4-5.3 3.7-2.8 9.1-6.8 11.9-8.7 2.9-1.9 8-5.9 11.5-8.8 3.5-2.8 6.7-5.2 7.1-5.2.4 0 3.1-2 5.9-4.5 2.9-2.5 5.6-4.5 6-4.5.4 0 3.6-2.4 7.1-5.3 3.5-2.8 9.1-7.2 12.5-9.7 3.3-2.5 9.7-7.4 14-11 4.4-3.6 11.6-9.4 16-13 13.5-10.9 21.4-17.6 22.9-19.3.7-1 1.8-1.7 2.3-1.7.6 0 4.7-3.4 9.3-7.5 4.5-4.1 8.6-7.5 9-7.5.4 0 5.9-4.7 12.3-10.5 6.5-5.7 17.7-15.8 25-22.2 24.4-21.6 78.9-73.6 90.3-86 .9-1 2.3-2.5 3.2-3.3 11.9-11.3 69.9-73.6 75.7-81.2.8-1.1 4.7-5.6 8.5-10 3.9-4.4 7.9-9.3 9-10.8 1.1-1.6 4.6-5.7 7.8-9.3 3.1-3.5 5.7-6.7 5.7-7.1 0-.4 3-4.3 6.8-8.6 3.7-4.3 9-10.9 11.7-14.5 2.8-3.6 7.1-9.2 9.8-12.4 2.6-3.3 4.7-6.2 4.7-6.6 0-.4 2-3.1 4.5-5.9 2.5-2.9 4.5-5.6 4.5-6 0-.5 2-3.2 4.5-6 2.5-2.9 4.5-5.6 4.5-6 0-.4 1.7-2.9 3.8-5.6 2-2.7 5.2-7.1 7-9.7 1.8-2.6 7-10 11.6-16.3 4.5-6.4 8.5-12.2 8.9-13 .4-.8 2.3-3.7 4.2-6.4l3.6-4.9-.4-19.1c-.5-19-2.1-37.2-3.7-39.1-.4-.5-1.1-3.1-1.4-5.7-.4-2.6-1.1-5-1.5-5.3-.5-.2-1.2-2-1.5-3.9-.7-3.6-4.8-12-7.2-14.7-.8-.8-1.4-2-1.4-2.6 0-2.5-32.2-34.7-37.8-37.7-.9-.5-5.6-4.3-10.4-8.5-4.8-4.2-13.3-11.4-18.9-16.1-5.5-4.7-14.3-12.1-19.4-16.5-5.2-4.4-11.7-9.8-14.5-12-5.2-4-12.1-11.8-21.8-24.2-2.9-3.7-7.2-9.4-9.7-12.5-2.5-3.2-4.5-6.1-4.5-6.4 0-.4-1.6-2.6-3.5-5-1.9-2.3-3.5-4.5-3.5-4.9 0-.4-1.3-2.4-3-4.5-1.6-2.1-3-4.1-3-4.5 0-.4-1.2-2.4-2.7-4.4-1.6-2-3.3-4.5-4-5.6-4.7-8.1-13.9-23.4-15.2-25.5-6.3-10.3-20.8-39.5-28.7-58-.9-1.9-1.9-4.4-2.4-5.5-1.1-2.3-6.6-16.9-10.3-27-2.9-7.7-5.1-14.6-9.2-27.8-3.4-11.2-4.5-15.2-10.1-39.5-3.7-16.4-6.5-32.7-8.9-52.2-.7-6.3-1.6-12.4-1.9-13.5-.9-3.1-2.9-44.3-3-60 0-7.7.4-17.2.8-21.2.8-6.9.7-7.5-2.3-14-4.9-10.2-6.6-12.2-11.2-12.9-2.2-.4-4.2-1.1-4.5-1.5-.9-1.5-6.6-.8-11.4 1.2zM3851.5 2975.3c-6.2 6.4-7.3 8.1-9.3 14.7-1.3 4.1-2.7 8.2-3.2 9.1-.5.9-1.2 3.3-1.5 5.3-.4 2-1.1 3.8-1.5 4.1-.5.3-1.1 2.3-1.5 4.5-.4 2.2-1 4.2-1.5 4.5-.5.3-1.1 2.3-1.5 4.5-.4 2.2-1 4.2-1.5 4.5-.5.3-1.1 2.4-1.5 4.8-.4 2.3-1.1 4.6-1.5 5.2-.4.5-1.1 2.6-1.5 4.5-.4 1.9-1.1 4.1-1.5 5-.9 1.6-6.4 18.9-10 31-1.2 4.1-2.5 8.2-3 9-.4.9-1.1 3.1-1.5 5-.4 1.9-1.1 4.1-1.5 5-.4.8-1.5 4-2.3 7-.9 3-3.6 11.6-6 19s-5.4 16.9-6.6 21c-1.3 4.1-2.7 8.4-3.1 9.5-.5 1.1-1.8 5.4-3 9.5-1.1 4.1-2.5 8.2-2.9 9-.5.9-1.2 3.1-1.6 5-.4 1.9-1.1 4.1-1.6 5-.4.8-1.8 4.9-3 9-3.9 13.5-5.1 17.5-5.9 19.5-.5 1.1-1.8 5.4-3 9.5-1.1 4.1-2.5 8.2-2.9 9-.5.9-1.2 3.1-1.6 5-.4 1.9-1.1 4.1-1.6 5-.4.8-1.8 4.9-3 9-1.1 4.1-3.1 10.6-4.4 14.5-1.3 3.8-3.3 10.4-4.5 14.5-1.3 4.1-3.5 11.3-5 16-1.6 4.7-4.5 13.9-6.5 20.5s-4 12.9-4.5 14c-.5 1.1-1.8 5.4-3 9.5s-2.5 8.4-3 9.5c-.5 1.1-1.8 5.4-3 9.5-4.2 14.4-5.2 17.5-6 19.5-.5 1.1-1.8 5.4-3 9.5-1.1 4.1-2.5 8.2-2.9 9-.5.9-1.2 3.1-1.5 5-.4 1.9-1.1 4.4-1.5 5.5-.8 1.9-2.9 8.7-6.6 21.5-.9 3-2 6.2-2.4 7-.5.9-1.2 3.1-1.6 5-.4 1.9-2 7.4-3.6 12.3-1.6 4.8-2.9 9.4-2.9 10.2 0 .9-.4 2.3-1 3.3-.5.9-2.1 5.7-3.5 10.7-6.2 21.1-10.3 35.2-14.1 47.7-.8 2.9-2 7.1-2.6 9.3-.5 2.2-1.4 4.9-1.8 6-.5 1.1-1.8 5.4-3 9.5s-2.5 8.6-3 10c-.5 1.4-1.2 4.1-1.6 6-.3 1.9-1 3.9-1.4 4.5-.4.5-1.1 2.7-1.4 4.9-.4 2.1-1.1 4.6-1.6 5.5-.5.9-1.3 3.5-1.9 5.8-.6 2.4-1.6 6.2-2.2 8.5-.6 2.4-1.4 5-1.9 5.9-.5.9-1.2 3.4-1.6 5.5-.3 2.2-1 4.3-1.4 4.9-.4.5-1.1 2.7-1.4 4.9-.4 2.1-1.1 4.6-1.6 5.5-.5.9-1.4 3.6-2 6.1-1.7 6.6-3.7 13.8-5.5 20-2.4 7.8-6.3 22.1-8.5 31-.7 2.5-1.5 5.4-2 6.5-.9 2.2-2.6 8.4-4.1 15.5-.6 2.5-1.4 5.4-1.9 6.5-.4 1.1-1.3 4-2 6.5-1.6 6.5-7.8 30.5-9.6 37-.8 3-2.1 8-2.9 11-.7 3-2.1 8.2-3 11.5-2.3 8.7-4.2 16.3-5.5 22-.6 2.7-1.5 5.7-2 6.6-.4.9-1.2 3.8-1.5 6.5-.4 2.7-1 5.3-1.4 5.9-.3.5-1.1 3.5-1.8 6.5-.6 3-1.9 8.4-2.8 12-.9 3.6-2.1 8.7-2.6 11.5-.5 2.7-1.3 5.7-1.6 6.5-.8 1.8-3 11.3-4.4 19-.5 3-1.4 6.2-1.8 7-.5.9-1.2 4-1.6 7-.4 3-1.1 6.1-1.6 7-.4.8-1.3 4-1.8 7-.6 3-1.7 8.6-2.6 12.5-.9 3.8-2.3 10-3.1 13.7-.8 3.8-2.1 10.1-3 14-.8 4-2.1 10.2-2.8 13.8-.7 3.6-1.5 7.2-1.8 8-.4.8-1.1 4.4-1.7 8-.5 3.6-1.7 9.9-2.6 14-2.4 11.9-4.5 22.6-6.6 35-1.1 6.3-2.6 15.3-3.5 20-3.3 18.9-6.8 40.4-8.8 55-.7 5.2-1.5 9.5-1.6 9.5-.1 0-.9 4.7-1.6 10.5-.8 5.8-2.1 15.4-2.9 21.5-6.2 45.2-11.5 91.8-15 131.5-.8 9.1-1.7 18.5-2 21-1 7.8-2.5 38.4-3.5 69-.6 16.2-1.5 39.8-2.1 52.5-.6 12.6-.9 32.7-.7 44.5 1.5 66.8 2.9 112.3 3.8 118 .5 3.6 1.4 16.6 2 29 1.1 24.9 3.5 63.5 4 63.5.2 0 .9 7.9 1.6 17.5 3.4 44.9 9.1 99.4 17.9 169.5 2 16.1 4.2 34 5.9 48.2.8 6.5 2.1 16.7 3 22.8.8 6 2.4 18 3.5 26.5 3.4 25.9 9.9 64.4 11.8 70 1.3 3.9 7.5 11.6 10.3 12.8 1.4.6 3.9 1.4 5.5 1.8 1.7.4 3.6 1.2 4.4 1.8 2 1.5 20.9 1.2 26.7-.5 3.5-1.1 5.8-2.7 9.3-6.7 2.5-2.9 9.1-10.3 14.6-16.4 5.5-6.1 11.4-12.9 13.1-15.2 1.8-2.2 18.4-19.1 37-37.3 37.2-36.5 42.1-41.4 58.8-58.3 13.9-14.1 31.4-29.5 63-55.5 4.7-3.9 9.2-7.5 9.9-8.2.8-.6 5.4-4.3 10.3-8.2 15-11.8 18.4-14.5 20.7-16.4 8.8-7 13.7-10.7 14.3-10.7.5 0 2.2-1.3 3.9-2.9 3.4-3.3 20.3-16.1 21.1-16.1.3 0 3.4-2.4 6.9-5.3 3.5-2.8 8.9-7 12-9.2 3-2.2 8-5.9 11-8.3 2.9-2.3 5.6-4.2 6-4.2.3 0 3.2-2.1 6.5-4.8 9-7.2 16.2-12.6 17.6-13.2 1.3-.5 7.3-5.1 17.4-13.3 3.3-2.6 6.2-4.7 6.6-4.7.4 0 2.6-1.6 5-3.5 2.3-1.9 4.6-3.5 5-3.5.4 0 1.9-1.1 3.3-2.4 3.1-2.8 20-15.6 20.6-15.6.3 0 3-1.9 6-4.3 11.6-9 15.8-12.2 17.4-13.2.9-.6 3.6-2.6 6.1-4.6 2.5-2 5.4-4.1 6.6-4.7 2.1-1.1 11.4-16.1 11.4-18.5 0-.7.4-1.7 1-2.3.5-.5 1.3-5.2 1.6-10.2.4-5.1 1.1-9.5 1.6-9.8 1.1-.7 1-24-.1-26.2-1.6-3-11.1-28.1-11.1-29.2 0-.6-.4-1.8-.9-2.8-2-3.7-4.1-8.6-4.1-9.6 0-.6-.6-2.3-1.4-3.8-.8-1.5-1.7-4.2-2.1-6-.4-1.8-1.1-3.8-1.5-4.3-.3-.6-1.7-3.9-2.9-7.5-1.3-3.6-2.6-7.2-3.1-8-.4-.9-1.1-3.1-1.5-5-.4-1.9-1-4-1.4-4.5-.4-.6-1.7-4.4-3-8.5s-2.9-8.9-3.7-10.7c-.8-1.7-1.4-3.6-1.4-4.2 0-.5-2.6-9-5.8-18.8-5.5-16.7-7.7-23.9-11.8-37.3-.9-3-2.3-7.4-3-9.8-.8-2.3-1.4-5.1-1.4-6.1s-.3-2.1-.7-2.5c-.7-.7-1.4-3.1-4.4-15.1-.5-2.2-1.3-4.9-1.8-6-1-2.1-2.6-7.9-4.2-15.5-.6-2.5-1.3-5.2-1.6-6-.7-1.6-2.4-8.3-4.3-16.5-.6-2.8-1.5-5.9-2-7-.5-1.1-1.4-4.5-2-7.5-2.3-11.2-3.5-16.5-4.2-17.5-.3-.6-.9-3.3-1.3-6-.4-2.8-1.1-5.5-1.5-6-.4-.6-1.1-3.5-1.5-6.5-.4-3-1.1-6.1-1.6-7-.4-.8-1.3-4.2-1.9-7.5-1.8-9.8-3.6-17.9-4.3-19.5-.3-.8-1.1-4.2-1.6-7.5-.6-3.3-1.8-9.6-2.6-14-.9-4.4-2.3-11.4-3.1-15.5-.8-4.1-2.4-12.7-3.5-19-1.1-6.3-2.7-15.1-3.5-19.5-.8-4.4-2-11.4-2.5-15.5-.6-4.1-1.3-8.2-1.7-9-.3-.8-1.2-5.6-1.9-10.5-.7-5-2-13.5-2.8-19-3.9-25.6-4.7-30.7-6.1-41-2.6-19.7-5-39.2-9-74.5-.8-7.4-2-19.8-2.5-27.5-.6-7.7-1.4-14.7-1.7-15.5-.3-.8-1.2-8.9-1.9-18s-2-24.6-2.8-34.5c-2.7-31.5-4.5-58.4-5.6-80.5-.5-11.8-1.4-22.9-1.9-24.5-.5-1.7-1.2-14.5-1.6-28.5-.3-14-1-26.2-1.4-27-.5-.8-1.1-15.9-1.5-33.5-.4-17.6-1.1-32.9-1.5-34.1-.5-1.1-1.1-20-1.5-42-.4-21.9-1.1-40.8-1.5-42-.5-1.1-1.1-27.2-1.4-58-.4-30.7-1.1-59.3-1.6-63.4-.6-4.1-1.5-48.2-2.1-98-.5-49.8-1.4-117.3-1.8-150-.5-32.7-.9-105.6-1-162-.1-95.6-.2-102.8-1.9-107-4.7-11.9-7.5-14-18.9-14h-6.8l-7 7.3zM3984.3 3089.4c-3.9 1.4-7 4.2-9 8.1-1.4 2.6-1.5 14.1-.9 104 .4 55.5 1.1 111.1 1.6 123.5.5 12.4 1.2 53.5 1.5 91.5.3 37.9 1 79.1 1.5 91.5.6 12.4 1.5 43.4 2 69 1.7 81.8 3 121.3 4 129.5.5 4.4 1.4 21 2 37 3.3 94.1 12.2 210.1 23.5 306.5.9 7.4 1.8 15.1 2 17 2 19 8.5 63.5 13.9 95.5.9 4.9 2.1 12.6 2.8 17 .7 4.4 1.6 8.4 1.9 9 .4.5 1 3.9 1.3 7.5.4 3.6 1.1 7.4 1.6 8.5.5 1.1 1.3 4.9 1.9 8.5.5 3.6 1.7 10.1 2.6 14.5.9 4.4 2.1 10.9 2.8 14.5.7 3.6 1.5 6.9 1.8 7.5.4.5 1 3.8 1.4 7.3.4 3.4 1.1 6.4 1.5 6.7.4.3 1.1 3.2 1.5 6.5.4 3.3 1 6.2 1.5 6.5.4.3 1.1 3.1 1.5 6.2.4 3.2 1 6.2 1.3 6.8.4.5 1.3 3.7 2 7 2.2 10.3 3.8 16.9 4.4 18.5.4.8 1.1 3.7 1.6 6.5.6 2.7 1.8 7.7 2.7 11 .9 3.3 2.1 8 2.6 10.5.6 2.5 1.3 5.2 1.6 6 .4.8 1.2 3.7 1.9 6.5.7 2.7 1.9 7.5 2.8 10.5.8 3 2 7.5 2.6 10 .6 2.5 1.5 5.2 1.9 6 .5.9 1.2 3.1 1.5 5 .9 4.2 3.3 12.9 5.1 18.5.7 2.2 2.3 7.4 3.5 11.5 1.1 4.1 2.5 8.2 2.9 9 .5.9 1.2 3.1 1.5 5 .4 1.9 1.1 4.4 1.5 5.5.5 1.1 3.3 9.4 6.2 18.5 2.9 9.1 5.6 16.9 6 17.5.4.5 1 2.6 1.4 4.5.4 1.9 1.1 3.9 1.5 4.5.4.5 1.1 2.6 1.5 4.5.4 1.9 1.1 4.1 1.6 5 .4.8 1.7 4.4 2.9 8 1.1 3.6 2.4 7.4 2.9 8.5.5 1.1 1.8 4.7 3 8s2.6 6.7 3 7.5c.5.9 1.2 3 1.6 4.8.3 1.8 2.2 5.1 4.1 7.5 5.8 6.9 20.6 19.6 23.9 20.3 1.7.3 3.6 1.1 4.3 1.7.7.6 5.5 1.1 10.7 1.1 7.5.1 9.7-.3 11.2-1.7 1.1-.9 2.3-1.7 2.7-1.7.5 0 3.9-2.6 7.7-5.8 3.7-3.1 9.3-7.5 12.4-9.7 3.1-2.2 9-6.7 13-10 4.1-3.3 10.2-8 13.5-10.5 3.4-2.5 9-6.9 12.5-9.8 3.6-2.8 6.7-5.2 7.1-5.2.4 0 3.1-2 6-4.5 2.8-2.5 5.5-4.5 5.9-4.5.4 0 3.3-2.1 6.5-4.7 3.2-2.7 8.3-6.5 11.2-8.6 6.2-4.5 23.1-17.1 27-20.1 1.5-1.2 5.1-3.8 8-5.9 7.5-5.4 22.4-16.3 26.7-19.6 8-6.1 15.5-11.6 17.1-12.6 2.1-1.3 7.1-4.9 21-15.3 6.1-4.5 11.3-8.2 11.6-8.2.3 0 2.4-1.5 4.7-3.3 2.3-1.7 5-3.7 5.9-4.2 3-1.8 10.2-6.9 14.4-10.2 2.3-1.8 4.4-3.3 4.7-3.3.3 0 5-3.3 10.4-7.3 9.8-7.2 16.3-11.9 20.7-14.7 1.3-.8 4.2-2.9 6.5-4.5 2.3-1.7 6.5-4.7 9.4-6.7 10.3-7.3 15.9-11.4 20.7-15.1 2.7-2 5.2-3.7 5.6-3.7.4 0 2.5-1.5 4.8-3.3 2.3-1.8 7.3-5.4 11.1-8 8.4-5.7 14.2-9.9 21.2-15.2 2.9-2.2 7.7-5.8 10.8-8 3.1-2.2 7.9-5.8 10.7-8 2.8-2.2 6-4.7 7.2-5.5 4-2.7 16.9-13.4 30.3-24.8 12.9-11 13.4-11.6 17.3-20 2.6-5.5 4.3-10.8 4.7-14.4.7-6.5-1.1-16.4-3.6-20.1-4.7-7.2-15.8-23.4-22-32.2-3.9-5.5-7.4-10.7-7.8-11.5-.3-.8-1.9-3.1-3.5-5.1-1.5-2-2.8-4-2.8-4.4 0-.4-1.2-2.4-2.7-4.4-1.6-2-3.2-4.4-3.8-5.3-.5-.9-9.1-13.7-19-28.5-9.9-14.7-18.2-27.2-18.5-27.8-.3-.5-2.8-4.4-5.5-8.5s-5.2-8-5.5-8.5c-.3-.6-3.1-5.1-6.4-10-7.7-11.9-8.9-13.7-10.1-15.7-.5-.9-4-6.5-7.7-12.3-3.8-5.9-6.8-10.9-6.8-11.2 0-.3-1.3-2.2-3-4.3-1.6-2.1-3-4-3-4.3 0-.6-10.8-18.2-21.6-35.2-1-1.7-2.3-3.8-2.9-4.7-5.1-8.5-6.9-11.5-11.9-19.3-3.1-5-6.5-10.6-7.6-12.5-1.2-1.9-4.3-7.1-7-11.5s-6.7-11.2-9-15c-2.2-3.9-5.1-8.8-6.5-11-1.3-2.2-3.4-5.6-4.5-7.5-1.1-1.9-3.1-5.3-4.5-7.5-1.3-2.2-3.6-6-5-8.5s-3.7-6.3-5-8.5c-1.3-2.2-2.7-4.7-3.1-5.5-.9-1.7-7.9-13.7-9.4-16-.6-.8-1.6-2.6-2.3-4-.6-1.4-3.8-6.9-6.9-12.2-3.2-5.3-5.8-9.9-5.8-10.1 0-.3-1.7-3.4-3.8-6.8-2.1-3.5-5.6-9.6-7.7-13.4-2.1-3.9-5.6-9.9-7.6-13.5-7.2-12.4-18.3-32.5-21.5-39-1.6-3-3.3-6.2-4-7-.7-.8-2.8-4.4-4.7-8-1.9-3.6-5.3-10.1-7.7-14.5-2.3-4.4-4.6-8.5-5-9-.7-.9-3.5-6.1-12-22-2.1-3.9-7-13.1-11-20.5-4.1-7.4-9.4-17.6-11.8-22.5-2.5-5-5.3-10.1-6.2-11.5-4.9-7.3-77.9-150.5-94.3-185-3.8-8-10.4-21.7-14.7-30.5-4.3-8.8-11.7-24.3-16.5-34.5-4.8-10.2-10.9-23-13.5-28.5-11.5-24-14-29.4-14-30 0-.3-1.8-4.2-3.9-8.8-8-16.9-13.1-27.9-13.1-28.4 0-.3-1.3-3.3-2.9-6.7-5.1-10.5-17.8-38.8-20.6-45.6-2.8-6.8-5.8-13.5-10.6-23.5-1.6-3.3-2.9-6.4-2.9-6.8 0-.5-1.2-3.4-2.6-6.5-6.6-14.3-7.4-16.1-7.4-16.6 0-.2-1.4-3.5-3.1-7.3-1.7-3.7-3.7-8.2-4.5-10-.8-1.7-1.4-3.4-1.4-3.9 0-.4-1.4-3.7-3.1-7.3-4-8.5-3.7-8-11.4-26.6-3.6-8.8-7.2-17.4-8-19-.7-1.7-2.2-5-3.3-7.5-1.7-4.1-2.3-4.6-7.6-6.3-6.4-1.9-12.5-2-17.3-.3z" style="stroke:none;fill:#004aad"/><path d="M3572.5 3373.7c-2.2.3-4.4.9-4.9 1.4-.6.5-1.9.9-3 .9s-4.9 1-8.4 2.2c-4.9 1.6-8 3.6-12.6 7.8-3.4 3.2-7.1 6.2-8.2 6.8-1.2.7-4.4 4.4-7.1 8.4-2.8 4-8.8 12.9-13.5 19.8-4.6 6.9-10.1 14.9-12.1 17.7-2 2.9-5.4 7.7-7.4 10.5-2 2.9-4.6 6.7-5.8 8.4-1.1 1.6-3.7 5.2-5.8 8-2.1 2.7-5.8 7.6-8.2 10.9-8.8 12-13.1 17.7-18 23.9-2.7 3.5-7.5 9.6-10.5 13.6-3 3.9-8 10.1-11 13.8-3.1 3.7-6.2 7.7-7 8.8-3.2 4.6-30 35.7-45.2 52.4-6.5 7-11.8 13.2-11.8 13.6 0 2.3-100.3 103-121.9 122.4-4.6 4.1-14.3 13-21.6 19.7-7.3 6.8-13.6 12.3-14 12.3-.4 0-5.5 4.4-11.3 9.8-5.9 5.4-11.8 10.5-13.2 11.4-1.4.9-6 4.7-10.2 8.5-4.3 3.7-11.6 9.9-16.3 13.8-4.7 3.8-12.1 10-16.4 13.7-4.3 3.8-8.2 6.8-8.6 6.8-.4 0-4.1 2.8-8.1 6.2-10.5 8.9-19.1 15.8-19.9 15.8-.3 0-3.7 2.6-7.5 5.7-6.8 5.7-14.7 11.9-17.9 13.8-.9.5-4.2 3-7.3 5.5-3.1 2.5-8.2 6.3-11.3 8.5-3.1 2.2-7.8 5.7-10.4 7.7-2.7 2.1-5.3 3.8-5.8 3.8s-1.6.8-2.5 1.7c-.9 1-3.1 2.8-5 4.1-3.3 2.3-16.2 11.5-20.8 15-5.1 3.8-23.3 16.1-48.5 32.9-34.5 22.9-32 21.1-58.9 44-8.4 7.2-10.7 8.8-19.7 13.7-7.5 4.1-23 12.8-25 14.1-.9.5-3.8 2.3-6.5 3.8s-6.6 3.8-8.6 5c-2 1.2-7 4.1-11 6.5-4 2.4-9.2 5.5-11.5 7-2.4 1.5-7.5 4.7-11.5 7.1-7.2 4.3-21.6 13.6-33.2 21.2-3.2 2.2-6 3.9-6.3 3.9-.3 0-2.2 1.3-4.3 3-2.1 1.6-4.1 3-4.5 3-.4 0-2.4 1.2-4.4 2.7-2 1.6-4.4 3.2-5.3 3.8-3.4 2.1-21.6 14.6-30 20.7-4.8 3.5-13.5 9.7-19.3 13.8-5.9 4.1-13.3 9.5-16.5 12-3.3 2.5-8.7 6.5-12 9-3.4 2.5-8.8 6.6-12 9.2-3.3 2.7-6.2 4.8-6.5 4.8-.3 0-3.2 2.1-6.4 4.7-3.3 2.7-9.3 7.5-13.5 10.8-15 11.7-36 28.8-48 39-4.5 3.8-10.7 9-13.6 11.5-3 2.5-7.9 6.7-11 9.5-3.1 2.7-8.5 7.5-11.9 10.5-6.1 5.3-8.8 7.7-27 24-4.6 4.1-15.1 13.8-23.4 21.5l-14.9 14 .5 5.7c1.2 13.2 8.1 22.3 21.9 28.7 5.1 2.4 15.8 7.5 23.8 11.4 8 3.9 16.8 8 19.5 9.2 16.6 7.1 151 74.4 155 77.5.6.5 6.4 3.6 13 7 19.3 9.9 33.9 17.9 58.9 31.9 6 3.4 11 6.1 11.1 6.1.2 0 4.3 2.3 9.2 5.1 12.3 7.2 15.2 8.8 20.3 11.7 2.5 1.3 5 2.8 5.5 3.2.6.4 3 1.9 5.5 3.2 9.7 5.4 12.9 7.3 24.2 14.2 6.5 3.9 12.6 7.5 13.6 8.1.9.5 11.1 6.6 22.5 13.5s21.5 13 22.5 13.5c.9.6 2.8 1.8 4.2 2.6 15.2 9.8 20.1 12.9 20.6 12.9.3 0 2.3 1.3 4.3 2.8 2 1.6 5.6 4 8.1 5.5 7.4 4.5 8.3 5.1 12.1 7.9 2 1.6 4 2.8 4.4 2.8.4 0 2.4 1.3 4.4 2.9 2 1.5 4.1 3 4.6 3.2.6.2 8.4 5.3 17.3 11.4 9 6 17.4 11.7 18.7 12.5 2.8 1.8 10.4 7.1 20 14.1 8.4 6 17 12 19.3 13.4.9.5 3.8 2.7 6.3 4.7 2.6 2.1 5 3.8 5.4 3.8.3 0 3.1 1.9 6 4.2 3 2.4 8.2 6.3 11.5 8.8 3.3 2.5 8.3 6.2 11 8.2 2.7 2.1 5.2 3.8 5.5 3.8.4 0 3.5 2.4 7 5.2 3.5 2.9 9.4 7.5 13.1 10.3 3.6 2.7 8.9 7 11.8 9.4 2.8 2.4 6.4 5.2 8 6.2 1.7 1 5.9 4.3 9.5 7.4 6.5 5.5 11.1 9.3 24.6 20.2 3.9 3.1 9.5 7.9 12.5 10.5 3 2.7 6.2 5.5 7 6.2 13.9 11.8 23.3 19.9 25.3 21.8 1.3 1.3 3.5 3.2 4.8 4.3 1.3 1.1 9.2 8.3 17.4 16 8.3 7.7 16.1 15 17.5 16.2 2.8 2.4 64 63.4 67.5 67.3 1.2 1.4 8.1 9 15.3 17 7.3 8 14.9 16.5 17.1 19 2.2 2.5 6.6 7.5 9.8 11.1 6.2 7.1 20.1 23.7 25.5 30.6 1.8 2.4 7.4 9.5 12.3 15.8 5 6.4 11 14.2 13.5 17.3 2.5 3.2 5 6.6 5.6 7.6.6 1.1 1.9 2.4 2.9 3 1 .6 3.9 2.3 6.4 3.9 2.5 1.5 5.6 2.7 7 2.7 3.2 0 13.8-3.3 14.9-4.6 2.1-2.3 4.4-10.7 3.8-14.2-3.8-25.3-6.2-42.4-7.9-57.2-.7-5.8-1.5-11-1.8-11.5-.4-.6-1-6-1.4-12-.4-6.1-1-11.5-1.4-12-.3-.6-1.1-6.2-1.8-12.5s-1.9-17.1-2.8-24c-3.1-25.1-4.6-37.8-5.9-50.5-.7-7.2-1.5-13-1.6-13-.2 0-.9-6.3-1.7-14-.7-7.7-2-20.8-2.8-29-3.9-38.1-7.3-78.6-8.5-102-.6-9.9-1.5-20-2-22.5s-1.2-14.6-1.5-27c-.3-12.4-1-25.2-1.6-28.5-1-6.4-3.2-91.4-3.2-125 0-33.4 2.3-113.8 3.3-116.9.6-1.6 1-7.4 1.1-13 0-5.6.5-15.3 1-21.6 2.8-37.2 5.2-62.8 8.4-91 .8-7.4 2.1-19.4 2.8-26.5.8-7.2 1.5-13 1.7-13 .1 0 .9-5.2 1.6-11.5 3.4-29.7 3.9-33.6 4.5-34.5.4-.6 1-5.3 1.4-10.5.4-5.2 1-10 1.4-10.5.3-.6 1.1-5.1 1.8-10 2.5-18.6 8.3-53.5 14.8-88.5.9-4.7 2-11.4 2.6-15 .6-3.6 1.4-7.4 1.9-8.5.5-1.1 1.3-4.9 1.9-8.5 1.4-8.7 3.8-21.5 4.1-21.5.1 0 .8-3.2 1.6-7 .7-3.9 2-10.4 2.9-14.5.9-4.1 2.3-11.3 3.1-16 .8-4.7 1.9-9.4 2.4-10.5.4-1.1 1.4-4.7 2-8 1.2-6.1 2.7-12.9 5.4-24.5.8-3.6 2.1-9.4 3-13 .8-3.6 2.2-9.4 3.1-13 1.9-7.6 4.1-17.2 5.8-25 .7-3 1.5-6 1.8-6.5.4-.6 1-3 1.3-5.5.4-2.5 1.1-5.4 1.6-6.5.5-1.1 1.4-4.3 2-7 .6-2.8 1.7-7.5 2.5-10.5s1.9-7.8 2.5-10.5c.6-2.8 1.5-5.9 2-7 .5-1.1 1.4-4.1 1.9-6.8.6-2.6 1.6-6.8 2.2-9.5.5-2.6 1.4-5.6 1.9-6.7.5-1.1 1.3-4 1.9-6.5.5-2.5 1.7-7.2 2.6-10.5.9-3.3 2.1-8 2.6-10.5s1.4-5.2 1.8-6c.5-.9 1.2-3.6 1.6-6 .4-2.4 1.1-5.1 1.6-6 .4-.8 1.3-3.5 1.8-6 .6-2.5 1.7-7.2 2.6-10.5.9-3.3 2.3-8.3 3-11 .7-2.8 2.3-8.4 3.5-12.5 1.2-4.1 2.8-9.9 3.6-12.8 2.3-8.6 4.2-15.4 5.9-21.2.9-3 2.1-7.3 2.6-9.5s1.3-4.9 1.8-6c.5-1.1 1.4-3.9 2-6.3.6-2.3 1.6-6.1 2.2-8.5.6-2.3 1.4-5.1 1.9-6.2.5-1.1 1.3-3.8 1.8-6 .6-2.2 1.8-6.4 2.6-9.3.9-2.8 2.3-7.5 3.1-10.2.8-2.8 2.2-7.4 3.1-10.3.8-2.8 2-7 2.5-9.2.6-2.2 1.4-4.7 1.9-5.6.5-.9 1.2-3.4 1.6-5.5.3-2.2 1-4.4 1.4-4.9.4-.6 1.1-2.9 1.5-5.2.4-2.4 1-4.5 1.5-4.8.4-.3 1.1-2.5 1.4-5 .4-2.4 1.1-4.7 1.5-5 .5-.2 1.2-2.5 1.5-5 .4-2.4 1.1-4.7 1.5-5 .5-.2 1.2-2.2 1.5-4.2.4-2.1 1.1-4.9 1.6-6.3.5-1.4 1.8-5.9 3-10 1.1-4.1 2.5-8.3 3.1-9.2.5-1 .9-2.3.9-3 0-1.1 4.6-16.6 8.4-28.3 1.3-3.9 1.1-11-.4-13-.4-.6-1-2.5-1.4-4.3-1.5-8.3-12.1-22.6-19.6-26.6-9.8-5.2-12.7-6.6-14-6.4-.8.1-3.3.3-5.5.5zM1490.8 3439c-2.1 1.3-2.3 3.1-.6 6.3l1.8 3.6c1.4 3.2 40.5 22.8 69.5 34.8 10.2 4.3 58.5 20.6 76.5 25.8 3 .9 6.2 2 7 2.4.9.5 3.1 1.2 5 1.6 1.9.4 4 1.1 4.5 1.5.6.4 2.6 1.1 4.5 1.5 1.9.4 4 1.1 4.5 1.5.6.4 2.7 1.1 4.9 1.4 2.1.4 4.6 1.1 5.5 1.6 1.6.8 9.6 3.3 20.6 6.5 3.3.9 6.9 2 8 2.5 1.1.4 5.4 1.8 9.5 3s9.3 2.8 11.5 3.5c4.5 1.5 8.7 2.7 30.5 9 8.5 2.5 17.8 5.1 20.5 6 2.8.8 6.1 1.7 7.5 2 1.4.4 3.4 1 4.5 1.4 2 .8 7.3 2.3 15 4.2 2.2.5 4.9 1.3 6 1.8 2 .9 7 2.3 15.5 4.3 2.5.6 5 1.4 5.5 1.8.6.5 3.1 1.1 5.8 1.5 2.6.4 4.9 1.1 5.2 1.5.3.5 2.8 1.1 5.5 1.5 2.7.4 5.2 1.1 5.5 1.5.3.5 2.7 1.2 5.3 1.6 2.6.3 5.2 1 5.7 1.4.6.4 2.6 1.1 4.5 1.4 1.9.4 4.4 1.1 5.5 1.6 1.1.5 4 1.3 6.5 1.9 2.5.5 7 1.7 10 2.5s7.5 2 10 2.6c2.5.7 5.4 1.6 6.5 2 1.1.5 4 1.3 6.5 1.9 2.5.5 7.2 1.7 10.5 2.6 3.3.9 8.5 2.2 11.5 2.9 3 .7 6.2 1.5 7 1.9.8.4 4 1.1 7 1.6s8.7 1.7 12.5 2.6c10.8 2.4 20.3 4.5 27.5 5.9 3.6.7 7.2 1.5 8 1.9.8.4 4.2 1.1 7.5 1.7 3.3.6 6.9 1.2 8 1.5 1.1.2 5.6 1.1 10 2 4.4.9 11.4 2.3 15.5 3.1 4.1.8 10.7 2.1 14.5 2.8 3.9.8 7 1.5 7 1.6 0 .2 9.6 2.2 21.5 4.5 4.1.8 10.9 2.1 15 3 4.1.9 10.9 2.2 15 3 4.1.8 11.1 2.1 15.5 3 9.3 1.8 20.9 4 31.5 5.9 4.1.8 7.5 1.5 7.5 1.6 0 .1 3.6.8 8 1.6 4.4.7 11.6 2 16 2.9 9.2 1.8 20.9 3.9 31 5.5 3.9.6 7.9 1.5 9 2 1.1.5 5.4 1.3 9.5 1.9 4.1.6 11.6 1.7 16.5 2.6 5 .9 12.4 2.2 16.5 2.9 4.1.7 8.2 1.5 9 1.8.8.4 5.1 1.2 9.5 1.8 16.8 2.3 25.1 3.6 26.5 4.2.8.4 5.1 1.1 9.5 1.7 9.2 1.3 21.3 3.3 30 5.1 7.4 1.6 48.9 1.7 56 .2 13.6-2.9 14.6-3.2 25.8-8.7 5.8-2.8 8.1-4.5 8.8-6.4.5-1.4 1.4-3.5 2.1-4.6 1.4-2.4 2.4-12.1 3.8-36.8 1-16.4.9-19.2-.4-21.9-.9-1.7-1.6-3.5-1.6-4 0-3.1-20.7-26.8-23.3-26.8-.5 0-2.6-1.4-4.7-3-2.1-1.7-4.4-3-5.2-3-.8 0-1.9-.5-2.5-1.1-.7-.7-7.8-1.5-17.5-2.1-9-.5-19.2-1.1-22.8-1.4-3.6-.3-15.3-.9-26-1.5-40.5-2-83.5-4.7-120-7.4-16.4-1.3-34-2.7-37.5-3-2.2-.2-9.6-.9-16.5-1.4-6.9-.6-13.8-1.3-15.5-1.6-5.5-1-30.8-3.6-50-5-99.8-7.8-140.8-11.5-197-17.9-55.9-6.4-121.7-16.3-160.7-24.1-14.5-2.9-22.3-4.5-29.3-6-3.8-.8-10.4-2.2-14.5-3-4.1-.9-10.4-2.3-14-3-3.6-.8-10.8-2.4-16-3.4-9.2-1.9-15.6-3.4-29.8-6.6-3.7-.9-9.2-2-12.2-2.6-3-.6-6.4-1.4-7.5-1.9-1.1-.5-4.5-1.3-7.5-1.9-9.9-1.9-17.5-3.6-18.5-4.2-.5-.4-3.5-1-6.5-1.4-3-.4-5.9-1-6.5-1.4-1-.6-8.9-2.4-18.5-4.2-3-.5-6.2-1.4-7-1.8-.9-.5-4-1.2-7-1.6-3-.4-5.9-1.1-6.5-1.5-.5-.4-3.5-1.2-6.5-1.8-14.2-2.8-16.6-3.3-18.5-4.2-1.1-.5-4.2-1.2-6.9-1.5-2.7-.4-5.6-1.1-6.5-1.5-.9-.5-4.1-1.4-7.1-1.9s-6.6-1.2-8-1.6c-1.4-.3-3.3 0-4.2.5zM1753.5 3828.1c-17.8 1.2-32.8 2.8-36 3.8-1.6.5-6.6 1.3-11 1.7-4.4.3-8.4 1-9 1.4-.5.4-4.8 1.1-9.5 1.5-4.7.4-8.9 1-9.5 1.3-.5.4-4.1 1.2-8 1.9-10.9 1.9-20.9 3.9-22.5 4.5-.8.4-3.7 1.1-6.5 1.6-10 2.1-15 3.3-17 4.2-1.1.5-4.2 1.4-7 2-9.7 2.2-25.5 6.3-30 7.8-1.6.5-5.7 1.8-9 2.7-9 2.6-32.6 10.5-36.2 12.1-1.7.8-3.4 1.4-3.7 1.4-.8 0-22.4 9-31.1 13-22.9 10.6-32 15.5-58.4 31.5-.9.5-3.2 2.1-5.1 3.5-1.9 1.4-4.2 2.9-5.2 3.5-3.4 2-12.6 8.5-16.9 11.9-17.2 13.7-22.6 18.4-32.7 28.1-9.5 9.1-24.7 26.2-37.6 42-2.5 3.2-16.3 23.5-18.2 27-.6 1.1-2.5 4.5-4.3 7.5-3.7 6.4-13.4 25.9-17.2 34.5-2.5 5.7-3.7 8.8-7.5 18.7-.9 2.4-2.2 5.7-2.9 7.3-.7 1.7-1.6 4.6-2 6.5-.4 1.9-1.1 3.9-1.5 4.5-.4.5-1.2 3-1.8 5.5-1.8 7.7-3.4 13.4-4.3 15.5-2.1 5-7.7 31.8-10.4 50.5-.8 5.2-1.7 10.8-2 12.5-3.8 20-3.6 136.5.2 145.5.4.8 1.2 6 1.9 11.5 1.8 14.4 5.4 35.4 8.8 51 .8 3.8 2 9.7 2.6 13 .6 3.3 1.5 6.9 2 8 .5 1.1 1.3 4 1.9 6.5.5 2.5 1.7 7.2 2.6 10.5.9 3.3 2.1 8 2.7 10.5.5 2.5 1.4 4.9 1.9 5.4.5.6.9 1.7.9 2.5 0 1.8 7.6 26.5 9.2 29.8 1.4 3 .7 7.2-4.8 25.3-.9 3-2.4 8.6-3.3 12.5-.9 3.8-1.9 7.4-2.2 8-.4.5-1 3.2-1.4 6-.4 2.7-1 5.4-1.3 6-.4.5-1.2 3.5-1.9 6.5-.6 3-1.9 8.6-2.8 12.5-.9 3.8-2 9.5-2.6 12.5-.6 3-1.3 6.2-1.7 7-.5 1.4-1.1 4.1-4.8 23.5-4.1 21.5-7.1 40.2-8.7 54.5-.7 5.8-1.5 10.9-1.8 11.5-.4.5-1 6.4-1.4 13-.3 6.6-1.1 13.3-1.6 15-3.9 12.4-4.2 138.6-.4 165 .3 2.2 1.2 9.8 2 17 1.8 16.8 3.9 31.6 4.7 33.5.4.8 1.1 4.9 1.7 9 1.9 13.9 3.2 21.5 4.1 23.5.5 1.1 1.2 4.5 1.6 7.5.3 3 .9 5.9 1.3 6.5.3.5 1.1 3.5 1.8 6.5 1.3 6 3.3 14.4 5.7 23 .8 3 2 7.5 2.6 10 .6 2.5 1.5 5.2 1.9 6 .5.9 1.2 3.1 1.6 5 1.2 5.6 9.8 31.2 11.5 34.2.6 1 1 2.3 1 2.9 0 .6.7 2.7 1.6 4.7.8 2.1 2.1 5 2.8 6.7.8 1.6 2.2 5 3.1 7.5 1 2.5 3.1 7.3 4.7 10.8 1.5 3.5 2.8 6.6 2.8 6.9 0 1.6 24.4 48.9 29 56.3.6.8 2.8 4.9 5 9s5.5 10.2 7.4 13.5c2 3.3 4.7 8 6.1 10.5 1.4 2.5 3.1 5.4 3.8 6.4 4.1 6.6 10.3 16.4 11.2 17.8 2.6 4.4 10.8 15.8 12.1 16.9.8.6 1.4 1.6 1.4 2.2 0 .6 2.3 3.6 5 6.8 2.7 3.2 5 6.1 5 6.5 0 .4 2.6 3.7 5.8 7.3 3.1 3.6 7.5 8.8 9.7 11.6 10.5 13.2 43.8 45.5 62 60 4.8 3.8 10.1 8.2 11.8 9.6 7.2 5.8 32.4 24.9 34.9 26.4.9.5 7 4.6 13.4 9 6.5 4.4 12.3 8.2 12.8 8.5.6.3 4.3 2.6 8.2 5.1 3.9 2.6 8.4 5.4 10 6.3 1.6.9 4.3 2.5 5.9 3.5 10.9 6.6 31 17.2 49 26 26.3 12.8 27.3 13.3 43 19.6 5 1.9 9.9 4 11 4.4 1.1.5 4.7 1.9 8 3.1 3.3 1.2 6.7 2.6 7.5 3 .9.4 3.1 1.1 5 1.5 1.9.4 4 1.1 4.5 1.5.6.4 6.4 2.4 13 4.4 6.6 2.1 13.8 4.4 16 5.1 2.2.7 6.5 2 9.5 2.9 3 .8 7.8 2.2 10.5 3 2.8.8 6.6 1.8 8.5 2.1 1.9.4 4 1.1 4.5 1.5.6.4 3.3 1.1 6 1.5 2.8.4 5.5 1 6 1.3 1.1.8 9.3 2.8 17.5 4.3 3 .6 6.4 1.4 7.5 1.9 1.1.5 4.7 1.4 8 2 9.1 1.7 19.3 3.7 26 5.2l6 1.3-.3 51c-.1 28 .2 57.1.8 64.5 2.1 29.7 5.8 61.6 7.8 67.8 2.5 7.8 10.7 22.4 17.2 30.7 10.7 13.8 19.7 21.4 38.5 32.7 2.7 1.7 15.2 7.8 20 9.9 1.1.4 3.8 1.6 6 2.5 3.6 1.6 9.9 1.8 57.5 2.4 29.5.3 54 .9 54.5 1.2.6.3 105.6.9 233.5 1.2 127.9.4 238.6 1.1 246 1.6 7.4.5 117 1.2 243.5 1.5 126.5.3 237 1 245.5 1.5s110 1.2 225.5 1.5c277.5.7 286.1.7 292.5-.4 3-.6 8.4-1.5 11.9-2.1 4.7-.7 9.9-2.8 19-7.6 15.9-8.2 24.3-16.3 30.7-29.5 7.2-14.6 7.5-15.9 6.4-32.1-.8-12.9-2.6-24.7-4.3-28.8-.3-.8-1-4-1.6-7-.6-3-1.7-8.7-2.6-12.5-.9-3.9-2.1-9.5-2.7-12.5-.6-3-1.4-6-1.8-6.5-.5-.6-1.1-3.3-1.5-6-.4-2.8-1-5.5-1.4-6-.3-.6-1.1-3.5-1.8-6.5-.6-3-1.8-8.2-2.7-11.5-.8-3.3-2-8.3-2.6-11-.6-2.8-1.5-5.7-2-6.6-.4-.9-1.2-3.8-1.5-6.5-.4-2.7-1.1-5.4-1.5-5.9-.5-.6-1.1-3.3-1.5-6-.4-2.8-1.1-5.5-1.5-6-.7-1-1.6-4.2-4-15-.6-2.8-1.5-5.9-2-7-.5-1.1-1.4-3.8-1.9-6-2.1-8.6-3.3-13.1-4.1-15-.5-1.1-1.2-3.6-1.5-5.5-.3-1.9-1-4.6-1.5-6-.9-2.5-3.8-12.7-6.6-23-.8-3-1.9-6.3-2.5-7.2-.5-1-.9-2.5-.9-3.3 0-.8-.9-4.1-1.9-7.2-1-3.2-2.9-9.2-4.1-13.3-1.2-4.1-2.5-8.4-3-9.5-.4-1.1-2.9-8.6-5.5-16.8l-4.8-14.7-13.1-12.8c-16.3-15.9-23.5-21-42.6-30.3-5.8-2.8-11.4-5.5-12.5-6.2-2.7-1.4-17.9-2.5-55.5-3.7-17.3-.5-34.4-1.4-38-2-3.6-.5-16.2-1.4-28-2-41.1-2-113.8-7.5-166-12.5-41.6-4-99-10.4-134.5-15-6.6-.8-17.2-2.2-23.5-3-6.3-.8-16.7-2.1-23-3-6.3-.9-16-2.1-21.5-2.8-5.5-.7-10.4-1.5-11-1.8-.5-.4-5.4-1-10.8-1.4-5.3-.4-9.9-1.1-10.2-1.5-.3-.4-4.7-1.1-9.7-1.5-5.1-.4-9.7-1-10.3-1.4-.5-.3-5-1.1-10-1.8-4.9-.7-13.4-1.9-18.7-2.8-23.1-3.6-28.8-4.5-37.3-6-22-3.8-25.5-4.4-34-6-4.9-.9-12.6-2.2-17-3-4.4-.8-11.6-2.1-16-2.9-4.4-.9-11.6-2.3-16-3.1-27.3-5-55.6-10.6-81-16.1-3.8-.8-9.9-2.1-13.5-2.8-3.6-.7-7.2-1.5-8-1.8-.8-.4-4.2-1.2-7.5-1.8-7.6-1.4-25.4-5.2-39.7-8.5-3.8-.8-9.8-2.2-13.5-3-6.5-1.5-11.3-2.6-25.5-6-3.5-.8-8.8-2-11.8-2.6-3-.6-6.2-1.5-7.1-1.9-.9-.5-3.8-1.2-6.5-1.5-2.7-.4-5.3-1.1-5.9-1.5-.5-.5-3.2-1.1-6-1.5-2.7-.4-5.4-1.1-6-1.5-.5-.4-3.2-1.1-6-1.5-2.7-.4-5.4-1-6-1.3-.5-.4-3.5-1.2-6.5-1.9-3-.6-8.3-1.9-11.7-2.7-3.5-.9-8.9-2.3-12-3-12-3.1-19-4.8-24.3-6.1-9.8-2.4-18.4-4.5-22-5.5-6.1-1.7-23.3-6.1-28-7.1-2.5-.6-5.4-1.4-6.5-1.9-1.1-.5-4-1.2-6.5-1.6-2.5-.3-4.9-.9-5.5-1.3-.5-.3-3.2-1.1-6-1.8-2.7-.6-7.7-1.8-11-2.6-3.3-.9-8.7-2.2-12-3.1-3.3-.8-8.2-2-11-2.6-2.7-.6-5.9-1.5-7-2-1.1-.5-4.1-1.4-6.7-1.9-2.7-.6-6.9-1.6-9.5-2.2-2.7-.5-5.7-1.4-6.8-1.9-1.1-.5-4.2-1.4-7-2-12-2.8-15.1-3.5-16-4.1-.5-.4-3-1-5.5-1.4-2.5-.4-4.9-1.1-5.5-1.5-.5-.4-2.8-1.1-5-1.4-2.2-.4-6-1.4-8.5-2.1-2.5-.7-7.1-2-10.3-2.9-3.1-.9-8.2-2.2-11.2-3.1-5.7-1.5-14.9-4.1-20-5.6-1.6-.4-5.5-1.5-8.5-2.3-9-2.4-36.2-10.1-43.5-12.2-2.7-.8-7-2-9.5-2.6-2.5-.5-4.9-1.4-5.5-1.9-.5-.5-1.6-.9-2.5-.9-1.7 0-14-3.5-17.5-5-1.1-.5-5.4-1.8-9.5-3s-8.4-2.5-9.5-2.9c-1.1-.5-5.4-1.9-9.5-3.1-15.1-4.5-63-20.6-71.5-24-1.1-.4-8.5-3.1-16.5-6-8-2.8-15.4-5.7-16.5-6.3-3.9-2.2-41.1-4.7-44.9-2.9-1.1.5-4.5 2-7.5 3.3-3 1.3-7.2 3.6-9.3 5.2-2.1 1.5-4.2 2.7-4.7 2.7-1.4 0-14.1 13.1-15.9 16.5-1.8 3.3-2 3.9-8.2 20.5-2.3 6.3-4.8 12.9-5.6 14.7-.8 1.7-1.4 3.8-1.4 4.6 0 .9-.4 1.8-.9 2.1-.5.3-1.2 2.2-1.6 4.2-.3 2-1 4.4-1.5 5.3-1.3 2.4-6.3 17.1-10.5 30.6-2.1 6.6-4.1 12.9-4.5 14-.5 1.1-1.8 5.4-3 9.5-1.3 4.1-2.6 8.4-3.1 9.5-.7 1.9-3.2 10.3-4.9 17-.5 1.6-1.8 6.4-3 10.5s-2.8 9.7-3.5 12.5c-.7 2.7-2.7 10.4-4.5 17-1.7 6.6-3.7 14.7-4.5 18-.7 3.3-2.1 8.9-3 12.5-.9 3.6-2.3 9.6-3.1 13.5-.8 3.8-2.2 10.1-3 14-2.6 11.8-4.5 21.7-5.5 28.5-.5 3.6-1.4 7.2-1.8 8.1-.5.8-1.2 5-1.6 9.3-.5 5.4-1.2 7.9-2.2 8.3-1.6.6-8.6-.4-20.8-3.1-3.8-.8-9.7-2-13-2.6-3.3-.6-6.7-1.4-7.5-1.8-1.7-.6-9.7-2.5-18-4.2-3-.6-6.4-1.5-7.5-2-1.1-.5-3.6-1.2-5.5-1.5-1.9-.4-5.7-1.3-8.5-2.1-2.7-.8-6.3-1.9-8-2.4-14.2-4-18.3-5.3-20-6-1.1-.5-5.4-1.8-9.5-3-11-3.3-24.5-7.9-26.5-9.1-.5-.4-2.6-1-4.5-1.4-1.9-.4-4-1.1-4.5-1.6-.6-.4-3.3-1.5-6-2.4-2.8-1-6.8-2.5-9-3.4-2.2-1-6-2.6-8.5-3.5-2.5-1-6.2-2.6-8.4-3.5-5.1-2.1-40.4-19.6-43.6-21.5-1.4-.9-11.3-6.8-22-13.2-22.3-13.4-39.3-24.7-52.6-35.1-2.9-2.4-5.7-4.3-6.1-4.3-.5 0-4.1-2.8-8-6.3-4-3.4-9.4-7.9-12-10.1-7.5-6-35.7-34-46.8-46.3-11.7-13.1-25.8-30.7-30-37.5-.5-.9-4.6-7-9-13.5s-8.2-12.3-8.5-12.8c-.3-.6-2.1-3.6-4-6.8-11.5-19.1-28.4-52.8-36.5-72.7-1.4-3.6-3-7.4-3.4-8.5-1.4-3.4-4.8-12.8-6.6-18-.9-2.8-2-5.7-2.5-6.5-.4-.9-1.1-3.1-1.5-5-.4-1.9-1.1-4.1-1.6-5-1.1-2.1-4.9-15-4.9-16.7 0-.7-.4-2.1-1-3.1-.5-.9-1.4-3.7-1.9-6.2-1.1-5.3-5.8-24-7.2-29-.5-1.9-1.7-7.6-2.5-12.5-.9-5-2.2-12.8-3-17.5-.8-4.7-2.1-12.8-2.8-18-.6-5.2-1.5-10.2-1.9-11-.3-.8-1.1-7.6-1.7-15-.6-7.4-1.5-18.9-2.1-25.5-1.3-15.6-1.3-96.4 0-112.5 5.1-61.7 16.1-126.2 30.5-179 .8-3 2-7.5 2.6-10 .6-2.5 1.5-5.2 2-6.1.5-.9 1.2-3.4 1.6-5.5.3-2.2 1-4.4 1.4-4.9.4-.6 1.1-2.6 1.5-4.5.9-4.7 3.4-13.1 4.4-15 .5-.9 1.2-3.1 1.6-5 .4-1.9 1.1-4.1 1.6-5 .4-.8 2.4-6.7 4.4-13 1.9-6.3 4.6-14.4 5.9-18 1.3-3.6 3.8-10.6 5.6-15.5 4.8-13.3 15.9-42.2 19-49.5 1.1-2.5 3.8-9 6-14.5 2.3-5.5 4.9-11.8 5.9-14 1-2.2 3.1-6.9 4.6-10.5 1.5-3.6 3.9-9.2 5.4-12.4 3.3-7.4 29.4-60 31.9-64.1.9-1.7 3.6-6.4 6-10.5 2.3-4.1 5.2-9.1 6.5-11.2 4.2-6.8 9.2-15.3 9.7-16.4.3-.5 5.5-8.4 11.5-17.3 6.1-9 11.5-17 12-18 .6-.9 4.4-6 8.5-11.4 4.1-5.5 8.4-11.2 9.5-12.7 3-4.3 10.2-13.6 16.7-21.5 3.2-3.9 6.3-7.7 7-8.6.7-.8 3.6-4.2 6.4-7.5 2.8-3.2 6.9-8.4 9.1-11.4 4.1-5.6 34.6-35.9 52.9-52.6 5.4-5 13.5-12.4 17.9-16.5 4.4-4.1 10.5-9.4 13.5-11.9s7.7-6.5 10.5-9 6.7-5.7 8.6-7.2c1.8-1.5 6.7-5.3 10.6-8.5 12.9-10.4 22.1-17.7 30.3-24.3 4.5-3.6 11.5-9.2 15.5-12.5 4.1-3.3 10.9-8.7 15-12 4.2-3.3 11-8.8 15-12.3 4-3.4 7.7-6.2 8-6.2.4 0 3.8-2.7 7.5-6s7.1-6 7.4-6c.4 0 3.8-2.6 7.6-5.8 8.1-6.7 20.3-16.5 24.3-19.4 3.2-2.3 8.9-10.8 10.6-15.8.6-1.9 2.2-5.5 3.6-7.9 1.4-2.3 2.5-5.8 2.5-7.6 0-1.9 1.2-5 3-7.6 1.7-2.6 3-5.7 3-7.6 0-1.7.5-3.5 1-3.8.6-.3 1-4.1 1-8.3 0-7.6-.1-7.8-6-17.8-7.1-12.1-12.2-17-18.9-18-2.5-.4-5.1-1-5.6-1.5-1.9-1.4-30.7-5.5-48.5-6.9-13.2-.9-21-.9-36.5.1zM4672.9 4336.4c-.5.5-3.1 1-11.4 2.1-11.4 1.5-28.4 7.4-32.8 11.4-2.1 1.9-7.2 6-13.3 10.8-1.6 1.2-5.9 4.6-9.6 7.5-3.7 2.9-9.2 7.1-12.2 9.3-3.1 2.2-8.3 6-11.6 8.5-8.1 6.1-21.8 16-32 23-8 5.6-14.3 10-35.8 25.6-5.6 4.1-10.5 7.4-10.8 7.4-.3 0-2.5 1.6-4.8 3.5-2.4 1.9-4.6 3.5-5.1 3.5-.4 0-2.9 1.7-5.6 3.7-7.6 6-14.1 10.7-16 11.8-.9.5-3.6 2.3-5.8 4-6.2 4.5-13.4 9.6-19.1 13.5-6.1 4.2-25.6 18.4-32.2 23.4-2.5 2-4.9 3.6-5.2 3.6-.4 0-2.9 1.7-5.6 3.7-2.7 2.1-8.5 6.5-13 9.8-4.4 3.3-10.5 7.9-13.4 10.2-3 2.4-5.8 4.3-6.1 4.3-.4 0-2.9 1.7-5.6 3.7-2.7 2.1-7.6 5.8-10.9 8.3-3.3 2.5-8.5 6.4-11.5 8.7-2.9 2.4-5.7 4.3-6 4.3-.3 0-3.1 1.9-6 4.2-3 2.4-8.4 6.5-12 9.3-3.6 2.7-9 6.9-11.9 9.2-3 2.4-5.7 4.3-6.1 4.3-.3 0-3.4 2.4-7 5.2-3.5 2.9-9.1 7.3-12.5 9.8-3.3 2.5-8.9 6.8-12.3 9.5-3.4 2.8-7.5 5.9-9.2 7-4 2.5-28.3 27.6-30.2 31.2-3.1 5.6-3.8 6.9-5.9 9.8-2.1 2.9-3 4.8-9.5 19.3-2.8 6.2-2.9 6.9-2.9 22.5 0 11.3.4 17.6 1.4 20.7.8 2.5 2.6 8.4 4.1 13.2 1.5 4.8 3.5 9.8 4.6 11.2 1 1.3 1.9 2.7 1.9 3 0 .5 4.3 7.6 9.7 16.2.7 1 2.2 3.5 3.3 5.4 1.1 1.9 3.1 5.3 4.4 7.5 1.4 2.2 3.6 5.8 4.9 8 1.3 2.2 10.1 16.8 19.6 32.5 9.6 15.7 18.2 29.9 19.2 31.7 1 1.7 3 5 4.4 7.3 2.5 4 5.6 9.2 7.9 13.5.6 1.1 2 3.4 3.1 5 2.6 3.9 4 6.2 6.5 10.5 1.1 1.9 3 5.2 4.2 7.2 1.3 2.1 8.3 13.6 15.6 25.7 7.2 12 15 24.8 17.2 28.3 2.2 3.4 4.7 7.6 5.5 9.3.8 1.6 2.8 5 4.5 7.5 1.6 2.5 3.3 5.2 3.7 6 1 2 17.1 24.3 26.5 36.7 4.3 5.7 7.8 10.5 7.8 10.8 0 .3 2.4 3.8 5.3 7.8 6.4 8.6 31.7 46.5 31.7 47.3 0 .3 1 2 2.3 3.7 1.2 1.7 2.7 4 3.2 4.9.6 1 3.6 6.1 6.8 11.2 3.1 5.2 5.7 9.8 5.7 10.2 0 .4 1 2.1 2.3 3.8 1.2 1.7 3.3 5.2 4.7 7.8 1.3 2.7 2.7 4.8 3.1 4.8.3 0 2.4 1.4 4.5 3.1 2.2 1.7 6.5 4.4 9.6 6 4.8 2.4 6.9 2.9 13.4 2.9 7 0 8-.3 12.7-3.4 5.9-3.9 17.8-15.8 19.8-19.7 3-5.6 10.1-18.7 13.5-24.9 2-3.6 6.6-11.9 10.2-18.5 3.5-6.6 7.6-14 9-16.5 1.4-2.5 3.6-6.5 5-9 1.3-2.5 3.7-6.8 5.2-9.5 1.6-2.8 3.9-7 5.2-9.5 1.4-2.5 4.8-8.8 7.8-14 2.9-5.2 6.3-11.3 7.5-13.5 1.2-2.2 4.6-8.3 7.5-13.5 2.9-5.2 6.3-11.3 7.5-13.5 2.4-4.4 11.3-20.4 15.3-27.5 1.4-2.5 3.8-7 5.5-10 1.7-3 3.7-6.6 4.6-8 .9-1.4 2.8-4.7 4.1-7.3 2.9-5.5 4.2-7.9 9-16.2 1.8-3.3 4.1-7.4 5-9 6.4-11.8 8.4-15.2 9.6-16.6.8-.8 1.4-1.9 1.4-2.2 0-.4 7.9-14.6 17.6-31.5 9.7-16.9 18.9-33 20.4-35.7 2.5-4.7 9.9-17.2 12-20.5.6-.8 1.9-3.4 3.1-5.8 1.2-2.3 2.5-4.5 3-4.8.5-.3 1.6-2 2.4-3.7.8-1.8 1.9-3.9 2.5-4.7 1.5-2.3 8.5-14.3 9.4-16 .4-.8 1.7-3.1 2.9-5.2 5.8-9.5 9.2-15.4 9.7-16.3.3-.6 2.1-3.6 4-6.8 5.2-8.6 5.2-8.6 9.4-15.7 3.6-6.2 28.6-48 33.4-55.8 1.2-2 3.2-5.4 4.5-7.6 1.2-2.1 2.7-4.6 3.2-5.5 1.6-2.6 16.8-27.9 19.2-31.9 2.2-3.7 4.4-7.4 8.8-14.7 1.3-2.2 2.7-4.6 3.1-5.4.4-.7 4.4-7.5 8.9-15 8-13.4 8.9-15.8 11.6-30.1 1.2-6.3.5-22.5-1-24.4-.6-.6-1.3-3.1-1.7-5.4-.4-2.3-1.1-4.5-1.5-4.8-.5-.3-.9-1.2-.9-2.1 0-1.7-2.2-4.5-11.9-15.6-3.5-3.9-7.3-8.6-8.5-10.3-1.1-1.8-4.9-6.5-8.3-10.5-3.5-4.1-8.9-10.4-12-14.1-3.1-3.7-6.1-7.6-6.7-8.5-.5-1-3.7-5-7-9-3.4-4-8.8-10.7-12.1-14.9-3.3-4.2-8.1-10.3-10.7-13.5-2.7-3.2-4.8-6.1-4.8-6.4 0-.3-2.6-3.7-5.7-7.5-3.2-3.8-7.8-9.6-10.3-13-2.5-3.4-6.9-9-9.7-12.5-2.9-3.5-5.3-6.8-5.3-7.3 0-1.1-3.1-4-6.3-5.8-8.5-5.1-27.8-13.9-32.5-14.9-3.2-.7-6.4-1.5-7.3-1.9-.8-.4-1.7-.4-2-.2z" style="stroke:none;fill:#004aad"/><path d="M2408 4396.7c-1.9.2-6.1 1.1-9.3 2-5.3 1.5-6.7 2.5-13 9.6-4 4.3-12.6 13.9-19.2 21.1-6.6 7.3-14.2 15.9-17 19.1-2.7 3.3-7.2 8.4-10 11.5-2.7 3.1-6.9 7.9-9.2 10.6-11.4 13.4-20.5 24.1-27 31.8-4 4.6-7.3 8.7-7.3 9.1 0 .3-2.8 3.9-6.2 8-3.5 4.1-9 10.8-12.3 14.9-3.3 4.2-8.7 10.9-12 15.1-3.3 4.1-8.2 10.3-10.8 13.7-9.4 12.4-14.3 18.8-18.7 24.8-2.5 3.3-6.4 8.4-8.7 11.4-2.4 3-4.3 5.7-4.3 6 0 .4-1.9 3.1-4.2 6.1-7.9 9.9-11.8 15.3-11.8 16 0 .4-1.8 2.9-4 5.5s-4 5.1-4 5.5c0 .4-1.6 2.6-3.5 4.9-1.9 2.4-3.5 4.6-3.5 5 0 .3-3 4.8-6.7 9.9-3.8 5.1-7.2 10-7.8 10.9-.5.9-4.6 6.9-9 13.3s-8.5 12.4-9 13.3c-.6.9-4.6 7.1-8.9 13.7-7.8 11.9-18.4 28.2-23.4 36-1.4 2.2-3.8 5.9-5.3 8.3-1.6 2.3-2.9 4.5-2.9 4.7 0 .4-4.7 8.1-9.7 16.1-.7 1-2.2 3.5-3.4 5.4-1.1 1.9-3.1 5.3-4.4 7.5-1.3 2.2-3.3 5.6-4.5 7.5-1.1 1.9-3.1 5.3-4.5 7.5-1.3 2.2-3.6 6-5 8.5s-3.6 6.3-4.9 8.5c-1.2 2.2-3.5 6.2-4.9 8.9-1.5 2.7-3.1 5.4-3.6 6-.9 1.1-2 3.1-11.1 20.1-2.4 4.4-4.7 8.5-5.2 9.2-.5.6-2.4 4-4.2 7.5-1.8 3.5-6.1 11.6-9.5 18.1-3.5 6.6-6.8 13.5-7.3 15.5-2.5 9.3-4 19.4-4 27-.1 7 .2 8.7 2 11.2 1.2 1.6 2.2 3.3 2.2 3.7 0 1.1 13.6 16.2 19 21.1 2.9 2.5 6.9 4.9 11 6.3 3.6 1.2 7 2.5 7.5 2.9.6.4 2.6 1.1 4.5 1.5 1.9.4 4.1 1.1 5 1.5 2.2 1.2 16.4 6.1 34.5 12.1 8.8 2.8 17.6 5.7 19.5 6.4 1.9.7 6.9 2.3 11 3.5 4.1 1.2 8.4 2.6 9.5 3 1.1.5 4.7 1.6 8 2.5 9.2 2.6 18.8 5.6 21 6.5 1.1.5 3.6 1.2 5.5 1.6 1.9.3 4 1 4.5 1.4.6.4 3 1.2 5.5 1.8 2.5.6 6.9 1.8 9.8 2.6 15.8 4.8 21.1 6.3 30.2 8.6 2.5.6 5.2 1.5 6 1.9.9.5 3.6 1.2 6 1.6 2.5.4 5 1.1 5.5 1.5.6.4 2.8 1.1 5 1.5 2.2.4 4.4 1 5 1.3.5.4 3.5 1.3 6.5 2 13.3 3.1 15.6 3.7 16.5 4.3.6.4 2.6 1 4.5 1.3 1.9.4 4.4 1.1 5.5 1.6 1.1.5 4 1.3 6.5 1.9 2.5.5 7.2 1.7 10.5 2.6 3.3.9 8.5 2.3 11.5 3 11.3 2.8 14.6 3.7 16.5 4.6 1.1.4 4.3 1.3 7 1.8 2.8.5 8.6 1.9 13 3.1 4.4 1.2 10.6 2.8 13.8 3.6 10.5 2.6 17.1 4.2 23.2 5.9 3.3.8 8.5 2.2 11.5 3 3 .7 8.4 2.1 12 3 3.6.9 8.8 2.2 11.5 2.9 2.8.7 5.7 1.5 6.5 1.9.8.3 3.8 1.1 6.5 1.7 2.8.6 7.5 1.7 10.5 2.5s8.2 2.1 11.5 2.9c3.3.8 8.7 2.2 12 3.1 3.3.9 8.6 2.3 11.8 3.1 3.1.8 8.3 2.1 11.5 2.8 3.1.8 8.5 2.2 12 3 3.4.9 8.8 2.3 12 3 14.2 3.6 19.1 4.8 24.2 6 3 .7 6.2 1.5 7 1.8.8.4 3.8 1.1 6.5 1.6 2.8.6 7.9 1.8 11.5 2.7 3.6.9 9.2 2.3 12.5 3 3.3.8 8.9 2.1 12.5 3 3.6.9 9.4 2.3 13 3 3.6.7 6.5 1.4 6.5 1.5 0 .2.9.4 2 .6 3.2.5 15.4 3.1 23 4.8 8.6 2 25.8 5.8 41.8 9.1 3.9.9 10.4 2.2 14.2 3.1 3.9.8 9.9 2 13.5 2.7 3.6.7 7 1.5 7.5 1.8.6.4 3.9 1 7.5 1.4 3.6.4 7 1.1 7.5 1.5.6.4 3.9 1.1 7.5 1.5 3.6.4 7 1.1 7.5 1.5.6.4 3.9 1.1 7.5 1.5 3.5.4 7.1 1.1 8 1.6.8.4 4.5 1.3 8.3 1.9 16.7 2.6 20.3 3.2 21.7 3.8.8.3 4.9 1.1 9 1.8s11.3 2 16 2.9c15.2 2.8 25.3 4.5 33 5.6 4.1.6 8.4 1.4 9.5 1.9 1.1.5 5.6 1.4 10 1.9 4.4.6 12.3 1.8 17.5 2.6 17.2 2.9 38.7 6.2 58 8.9 5.8.9 11.6 1.8 13 2.1 1.4.3 6.3 1 11 1.5s10.1 1.2 12 1.5c1.9.2 8.9 1.2 15.5 2 6.6.9 17.2 2.2 23.5 3.1 6.3.8 16.7 2.1 23 2.8 6.3.7 11.5 1.4 11.5 1.6 0 .3 15.4 2.1 38 4.4 7.2.7 13 1.4 13 1.6 0 .2 6.1.9 13.5 1.7 7.4.7 20 2 28 2.8 8 .9 21.3 2.2 29.5 2.9 8.3.7 15 1.4 15 1.6 0 .2 7.7.9 17 1.7 9.4.7 25.1 2 35 2.8 30.8 2.6 56.2 4.5 78.5 5.9 11.8.7 21.5 1.4 21.5 1.6 0 .2 12.2.9 27 1.6 14.9.8 29.6 1.6 32.8 2 4.3.4 6.7.2 9.1-1 1.9-.9 3.9-1.6 4.5-1.6.6 0 1.9-.4 2.9-.8.9-.5 3.7-1.9 6.2-3.1 4.1-2 8.3-6.6 11.6-12.7 1.7-3.2 2.4-8 2.5-18.1.2-8.9 0-9.4-3.6-16-2.1-3.7-4.6-8.2-5.5-9.8-1.9-3.5-7.5-13.1-10.8-18.3-1.2-2.1-3.2-5.4-4.5-7.6-2.8-5-3-5.3-10.5-17.1-3.4-5.5-6.8-10.9-7.5-12-.7-1.1-2.4-3.6-3.9-5.6-1.6-2-2.8-4-2.8-4.4 0-.4-1.3-2.4-3-4.5-1.6-2.1-3-4.1-3-4.5 0-.4-1.2-2.4-2.7-4.4-1.6-2-3.2-4.4-3.8-5.3-1.7-2.9-6.6-9.8-14.2-20.1-4-5.4-7.3-10.1-7.3-10.3 0-.3-2.1-3.1-4.7-6.3-2.7-3.2-5.7-7.1-6.8-8.6-1.6-2.3-15-19.4-23.5-29.9-13.1-16.3-35.7-42.2-50.5-57.8-7.7-8.2-18.8-20.1-24.6-26.6-9.5-10.4-20.9-21.7-35.7-35.2-2.7-2.5-13.6-12.7-24.3-22.7-10.7-10.1-21-19.7-23.1-21.5-14.4-12.9-40-35.2-45.7-39.8-2.4-1.9-7.3-6.1-11-9.3-3.6-3.3-7.7-6.6-9.1-7.5-1.4-.9-5.3-3.9-8.6-6.7-3.4-2.7-9.4-7.5-13.3-10.5-3.9-3-10-7.8-13.6-10.5-3.5-2.8-9.2-7-12.5-9.5-3.3-2.5-8.5-6.4-11.5-8.8-2.9-2.3-5.6-4.2-5.9-4.2-.2 0-4.9-3.3-10.3-7.3s-11.7-8.6-14-10.2c-2.4-1.7-6-4.2-8-5.7-4-3-16.1-11.3-19.9-13.8-1.3-.8-5.1-3.5-8.6-5.9-9.9-7-57.8-38.8-64-42.6-.9-.5-8.8-5.5-17.5-11s-16.5-10.5-17.4-11c-.9-.6-5.9-3.6-11-6.8-5.2-3.2-10.3-6.3-11.3-7-1.1-.7-4.9-3-8.5-5.3-3.7-2.2-7.1-4.3-7.6-4.5-.9-.4-7.1-4-15.3-9-6.6-4-33-19.4-36.2-21.1-1.9-1-4.2-2.3-5-2.8-3.8-2.4-15.2-9-15.6-9-.3 0-15.4-8.4-29-16.2-3.9-2.2-22.5-12.4-29.9-16.3-3.3-1.8-12.1-6.5-19.5-10.5-37.4-20.1-160.8-82-163.4-82-.6 0-15.6-7-33.3-15.6-6.2-3-11.4-5.4-11.7-5.4-.2 0-4.8-2.1-10.3-4.6-5.4-2.5-11.1-5.2-12.8-5.9-6.1-2.7-24.1-10.7-28-12.5-13.8-6.3-16.4-6.7-30.5-5.3zM4871.5 4682.2c-1.6.6-3.5 1.2-4 1.3-.6.2-3.9 5.2-7.5 11.1-3.5 6-7.2 12-8.1 13.4-.9 1.4-8.6 14.1-17 28.3-8.5 14.2-16.4 27.5-17.7 29.5-1.2 2-3.1 5.3-4.2 7.2-1.1 1.9-2.4 4.2-3 5-1.3 2.2-20 33.9-22.2 37.7-1 1.8-2.7 5-3.9 7-1.2 2.1-2.6 4.5-3.3 5.3-.7.8-1.8 2.6-2.4 4-.7 1.4-1.8 3.4-2.5 4.5s-2.8 4.7-4.7 8c-1.9 3.3-4 6.9-4.7 8-.6 1.1-2 3.6-3.1 5.5-1 1.9-4.9 8.7-8.6 15-15 25.4-37.6 64.8-37.6 65.5 0 .3-1.1 2.2-2.3 4.3-2.5 3.9-5.9 9.8-11 19.2-1.6 3-3.3 5.9-3.7 6.5-.7.9-2.8 4.7-9.5 17-1.2 2.2-4.1 7.4-6.5 11.5-4.6 8-8.8 15.5-14.5 26-1.9 3.6-4.8 8.7-6.3 11.5-8.8 15.5-13.9 24.6-16.5 29.5-1.6 3-5 9.1-7.5 13.5s-5.8 10.2-7.3 13c-1.5 2.7-5 9.3-7.9 14.5-2.9 5.2-6.7 12.2-8.5 15.5-1.8 3.3-5.6 10.3-8.5 15.5-6 10.9-8.1 14.8-17.2 31.5-3.6 6.6-8.2 14.9-10.2 18.5-8.2 14.7-13 24.8-14.2 30-.7 3-2 8.2-2.9 11.5-.9 3.3-2.2 8.5-2.9 11.5-.7 3-1.5 6.2-1.9 7-1.2 3-3 16.7-3 24 0 6.6 1.4 15.6 3.1 20 .3.8 1.1 3.7 1.8 6.5 1.5 5.9 3.9 15.5 5.2 20.7.6 2.1 2 5.5 3.3 7.5 1.2 2.1 3.7 6.5 5.4 9.8 1.8 3.3 5.6 10.3 8.5 15.5 2.9 5.2 6.3 11.3 7.5 13.5 1.2 2.2 4.6 8.3 7.5 13.5 3 5.2 7 12.5 8.9 16.2 2 3.6 5.6 10.2 7.9 14.5 2.4 4.3 5.8 10.5 7.7 13.8 1.8 3.3 5.6 10.3 8.5 15.5 2.9 5.2 6.5 11.7 8 14.5 1.5 2.7 4.7 8.5 7.1 12.8 6.6 11.8 12.4 22.3 16.9 30.7 2.2 4.1 5.7 10.5 7.8 14.2 4.8 8.6 11.5 20.8 15.6 28.3 3.1 5.7 5.2 9.5 11.6 21 1.6 2.7 3.9 7 5.2 9.5 1.4 2.5 4.8 8.8 7.8 14 2.9 5.2 6.5 11.7 8 14.5 1.5 2.7 4.9 8.8 7.5 13.5 2.6 4.7 6.3 11.4 8.2 15 1.9 3.6 5.5 10.1 8 14.5s6 10.7 7.7 14c7.1 13 9.9 18.1 11.4 20.5.9 1.4 3 5.2 4.7 8.5 5.9 11.4 12.8 24 13.7 25.2.5.6 2.3 3.7 4 7 1.7 3.2 3.7 7.1 4.6 8.7 2 3.8 21.7 23.6 23.5 23.6.7 0 2.4 1.1 3.6 2.4 1.3 1.3 5.1 3.4 8.4 4.6 3.4 1.2 7 2.6 7.9 3.1 1 .5 2.3.9 3 .9.7 0 2.5.7 4 1.4 2.3 1.2 31.8 1.5 198 1.7l195.3.2 5.3-2.8c5.8-3.1 11.9-9.4 15.1-15.6 1.7-3.2 2.1-5.8 2.1-13.2 0-8.6-.4-10.3-5.6-25.2-3-8.8-6.7-19.6-8.1-24-1.4-4.4-3-8.4-3.4-8.9-.5-.6-.9-1.9-.9-3 0-1.2-.6-3.3-1.4-4.8-.8-1.5-1.7-4.2-2.1-6-.4-1.8-1.1-3.8-1.5-4.3-.4-.6-1.1-2.5-1.5-4.3-.4-1.8-1.3-4.5-2.1-6s-1.4-3.5-1.4-4.5c0-.9-.5-2.5-1-3.5-.6-.9-2.8-7.1-5-13.7s-10.5-31.4-18.6-55c-8-23.7-15-44.4-15.4-46-1.2-4.1-6.4-18.8-7.2-20-.3-.6-.9-2.6-1.3-4.5s-1.1-4-1.5-4.5c-.4-.6-1.1-2.6-1.5-4.5-.4-1.9-1.1-4-1.5-4.5-.4-.6-1.1-2.6-1.5-4.5-.4-1.9-1.1-4.1-1.6-5-.4-.8-1.9-4.9-3.3-9-2.3-7.2-6.7-19.4-8.5-23.5-.4-1.1-1.8-4.7-3-8-1.3-3.3-3-7.8-3.8-10-.8-2.2-1.9-4.9-2.3-6-.4-1.1-1.5-3.8-2.4-6-2.5-6.4-4.6-12.9-4.6-14.5 0-1.4-16.2-52.2-18-56.5-.5-1.1-1.9-5.2-3-9-1.2-3.9-2.6-7.9-3-9-.4-1.1-3.1-9.2-5.9-18-2.9-8.8-5.5-16.7-6-17.5-.5-.9-1.2-3.1-1.6-5-.4-1.9-1.1-4.1-1.6-5-.5-.8-4.7-13-9.4-27-14.3-42.9-19.5-58.4-20.4-60.5-.4-1.1-1.9-5.4-3.2-9.5-1.3-4.1-2.7-8-3.1-8.5-.4-.6-1.1-2.9-1.7-5-.5-2.2-6-18.6-12-36.5-6.1-17.9-13.6-39.9-16.6-49-3.1-9.1-5.9-17.2-6.4-18-.5-.9-1.2-3.1-1.6-5-.4-1.9-1.1-4-1.5-4.5-.4-.6-1.1-2.6-1.5-4.5-.4-1.9-1.1-4-1.4-4.5-.4-.6-2.4-6.2-4.5-12.5-2-6.3-4-12.2-4.5-13-.5-.9-1.2-3.1-1.6-5-.4-1.9-1-4-1.3-4.5-.6-1-12.6-35.7-14.2-41-1.9-6.3-7.2-22.1-8-23.5-.4-.9-1.1-3.1-1.5-5-.4-1.9-1.1-4-1.5-4.5-.4-.6-1.1-2.6-1.5-4.5-.4-1.9-1-4-1.3-4.5-.8-1.2-6-15.8-7.2-20-1.1-4-3-9.3-4.6-13.3-.8-1.8-1.4-3.7-1.4-4.3 0-.6-.6-2.5-1.4-4.2-.7-1.8-3.7-10.4-6.5-19.2-2.9-8.8-5.6-16.9-6.1-18-.5-1.1-4-11.5-7.9-23-3.9-11.6-7.6-22.6-8.2-24.5-.7-1.9-1.7-5.1-2.4-7-2.7-7.8-3.7-10.8-6.1-18.5-1.4-4.4-2.9-8.7-3.3-9.5-.5-.9-1.2-3.1-1.6-5-.4-1.9-1-3.9-1.3-4.5-.7-1.1-8.9-24.6-10.4-29.5-.5-1.9-1.4-3.9-1.9-4.5-.5-.5-.9-1.8-.9-2.8 0-2.6-3.5-10.7-9.3-21.4-4.4-8.1-5.1-8.9-10.1-11.2-9.3-4.2-15.7-5-22.1-2.9zM3824.6 5333.7c-.8.8-38.6 2.6-94.1 4.3-41.5 1.3-47.9 2.1-57 6.6-11.9 5.9-20.8 12.9-26.6 20.9-8.6 11.9-15 31.9-12.1 37.9.6 1.1 2 5.5 3.2 9.6 1.1 4.1 2.5 8.2 2.9 9 .5.9 1.2 3.1 1.5 5 .4 1.9 1.1 4.4 1.6 5.5.4 1.1 1.3 3.8 1.8 6 .6 2.2 1.8 6.5 2.7 9.5.9 3 2.3 7.9 3.1 10.7.8 2.9 2.1 7.7 2.8 10.5.8 2.9 2 7.3 2.6 9.8.7 2.5 1.5 5.4 2 6.5.8 1.9 1.5 4.6 4.5 16.5.8 3 2.1 8.1 3 11.2 4.1 15.3 5 18.8 9 34.8.8 3 2.5 9.8 3.8 15 1.4 5.2 3.4 14 4.7 19.5 1.2 5.5 2.6 11.1 3 12.5.5 1.4 1.4 4.7 1.9 7.5 1.1 5.3 3.2 14.8 5.7 25.5.8 3.6 2.1 9.4 2.7 13 .7 3.6 1.5 6.9 1.9 7.5.3.5.9 3.7 1.3 7s1.1 6.4 1.5 7c.4.5 1.1 4.3 1.5 8.3.4 3.9 1.1 7.4 1.5 7.7.5.3 1.1 3.9 1.5 8 .4 4.2 1.1 7.8 1.6 8.1.5.3.9 1.3.9 2.2 0 3.5 10.2 17.1 19.7 26.3 12.5 12.1 28.3 22.7 45.8 30.5 2.4 1.1 22.7 1.4 105 1.9 151.6.8 160 .8 163-1.5.6-.4 2.9-1.1 5.2-1.5 2.4-.4 4.5-1.1 4.9-1.6.3-.5 1.2-.9 2-.9 2.3 0 21.6-7.9 25.5-10.5 3.8-2.4 4.2-3.6 7-18.5 1.4-7 .5-40.8-1-42.3-.6-.6-1.1-1.9-1.1-2.9 0-1.7-8.6-18.3-31.5-60.8-3.7-6.9-8.9-16.6-11.5-21.5-2.6-5-8.2-15.5-12.5-23.5-4.3-8-9.3-17.2-11-20.5-1.8-3.3-6.9-13-11.5-21.5-4.5-8.5-10.2-19.1-12.5-23.5-2.3-4.4-7.3-13.6-11-20.5s-8.6-16.1-11-20.5c-2.3-4.4-5.7-10.9-7.7-14.5-5.2-9.6-12.2-22.6-16.1-30-4.8-9.2-14.6-26-17.1-29.5-1.2-1.7-2.7-4.1-3.4-5.5-1.8-3.5-3.3-6-5.9-9.7-1.3-1.7-2.3-3.6-2.3-4.1 0-2.2-10.4-12.3-17.3-16.9-7.7-5.1-21.9-12.3-24.2-12.3-.8 0-1.6-.4-1.9-.9-.3-.5-2.3-1.2-4.3-1.6-2.1-.4-4.3-1.1-4.8-1.5-2.9-2.4-40.8-5.3-42.9-3.3z" style="stroke:none;fill:#004aad"/></svg>